<svg xmlns="http://www.w3.org/2000/svg" xmlns:xlink="http://www.w3.org/1999/xlink" width="647.002" height="556.635" viewBox="0 0 647.002 556.635">
  <defs>
    <linearGradient id="linear-gradient" x1="0.5" y1="1" x2="0.5" gradientUnits="objectBoundingBox">
      <stop offset="0" stop-color="gray" stop-opacity="0.251"/>
      <stop offset="0.54" stop-color="gray" stop-opacity="0.122"/>
      <stop offset="1" stop-color="gray" stop-opacity="0.102"/>
    </linearGradient>
    <linearGradient id="linear-gradient-2" x1="0.5" y1="1" x2="0.5" y2="0" xlink:href="#linear-gradient"/>
  </defs>
  <g id="undraw_gaming_6oy3" transform="translate(0.044 0.008)">
    <path id="Caminho_715" data-name="Caminho 715" d="M701.425,331.891c-25.139,42.865-21.714,100.5-11.924,145.792,3.272,15.163,7.081,31.134,3.69,48.277-4.147,20.932-18.084,37.592-32.055,47.237-25.463,17.587-54.146,17.713-74.681.331-17.746-15.024-29.1-41.627-47.244-55.822-30.359-23.748-72.919-8.068-110.1,15.507-26.3,16.68-55.3,37.725-79.08,26.662-16.733-7.783-26.815-30.531-31.24-55.425-2.14-12.016-3.312-25.172-8.578-34.254-3.133-5.4-7.512-8.963-12.063-11.864-41.58-26.5-99.005-2.391-139.009-32.512-27.02-20.343-41.772-63.208-45.992-109.3s.961-95.607,7.194-144.408c4.432-34.664,10.241-71.806,27.649-100.3,18.415-30.14,46.793-44.024,71.171-41.733s45.27,18.548,63.162,38.54c22.357,25,42.335,57.1,71.753,64.7,20.038,5.174,42.17-1.769,63.645-5.889,35.9-6.889,71.137-5.869,106.12-4.306,33.492,1.5,67.176,3.537,98.171,15.6,21.933,8.539,38.533,26.921,58.955,38.672,13.295,7.658,28.451,8.347,40.772,18.674,15.183,12.725,28.067,36.533,21.29,67.1C736.586,292.265,714.792,309.137,701.425,331.891Z" transform="translate(-111.66 -29.85)" fill="#86a5c0" opacity="0.1"/>
    <path id="Caminho_716" data-name="Caminho 716" d="M242.242,560.311s-44.2-73.2-31.8-138.89c5.213-27.57,1.861-56.094-10.506-81.279a217.937,217.937,0,0,0-20.82-33.982" transform="translate(-134.448 -123.129)" fill="none" stroke="#535461" stroke-miterlimit="10" stroke-width="2"/>
    <path id="Caminho_717" data-name="Caminho 717" d="M172.346,236.675c2.55,9.724-7.651,42.541-7.651,42.541s-25.006-23.576-27.563-33.3a18.207,18.207,0,1,1,35.214-9.274Z" transform="translate(-120.069 -95.079)" fill="#86a5c0"/>
    <path id="Caminho_718" data-name="Caminho 718" d="M237.891,301.211c-3.14,9.552-29.544,31.551-29.544,31.551s-8.181-33.379-5.034-42.932a18.2,18.2,0,1,1,34.58,11.381Z" transform="translate(-142.372 -113.391)" fill="#86a5c0"/>
    <path id="Caminho_719" data-name="Caminho 719" d="M269.314,436.613c-7.532,6.624-41.434,12.321-41.434,12.321s9.791-32.942,17.322-39.6a18.2,18.2,0,1,1,24.107,27.28Z" transform="translate(-150.908 -156.418)" fill="#86a5c0"/>
    <path id="Caminho_720" data-name="Caminho 720" d="M273.072,549.15c-6.3,7.836-38.752,19.144-38.752,19.144s4.081-34.128,10.38-41.958a18.2,18.2,0,1,1,28.372,22.814Z" transform="translate(-153.082 -195.161)" fill="#86a5c0"/>
    <path id="Caminho_721" data-name="Caminho 721" d="M151.294,361.05c8.751,4.942,43.057,3.431,43.057,3.431s-16.428-30.187-25.172-35.108a18.2,18.2,0,1,0-17.885,31.7Z" transform="translate(-121.791 -130.093)" fill="#86a5c0"/>
    <path id="Caminho_722" data-name="Caminho 722" d="M153.317,490.406c9.83,2.1,42.143-9.618,42.143-9.618s-24.7-23.887-34.545-25.993a18.2,18.2,0,0,0-7.6,35.605Z" transform="translate(-120.874 -173.168)" fill="#86a5c0"/>
    <path id="Caminho_723" data-name="Caminho 723" d="M176.824,616.982c9.333,3.729,43.163-2.358,43.163-2.358s-20.316-27.722-29.65-31.452a18.2,18.2,0,0,0-13.507,33.783Z" transform="translate(-130.012 -216.28)" fill="#86a5c0"/>
    <path id="Caminho_724" data-name="Caminho 724" d="M172.346,236.675c2.55,9.724-7.651,42.541-7.651,42.541s-25.006-23.576-27.563-33.3a18.207,18.207,0,1,1,35.214-9.274Z" transform="translate(-120.069 -95.079)" fill="#86a5c0"/>
    <path id="Caminho_725" data-name="Caminho 725" d="M237.891,301.211c-3.14,9.552-29.544,31.551-29.544,31.551s-8.181-33.379-5.034-42.932a18.2,18.2,0,1,1,34.58,11.381Z" transform="translate(-142.372 -113.391)" fill="#86a5c0"/>
    <path id="Caminho_726" data-name="Caminho 726" d="M269.314,436.613c-7.532,6.624-41.434,12.321-41.434,12.321s9.791-32.942,17.322-39.6a18.2,18.2,0,1,1,24.107,27.28Z" transform="translate(-150.908 -156.418)" fill="#fc6681"/>
    <path id="Caminho_727" data-name="Caminho 727" d="M273.072,549.15c-6.3,7.836-38.752,19.144-38.752,19.144s4.081-34.128,10.38-41.958a18.2,18.2,0,1,1,28.372,22.814Z" transform="translate(-153.082 -195.161)" fill="#fc6681"/>
    <path id="Caminho_728" data-name="Caminho 728" d="M151.294,361.05c8.751,4.942,43.057,3.431,43.057,3.431s-16.428-30.187-25.172-35.108a18.2,18.2,0,1,0-17.885,31.7Z" transform="translate(-121.791 -130.093)" fill="#86a5c0"/>
    <path id="Caminho_729" data-name="Caminho 729" d="M153.317,490.406c9.83,2.1,42.143-9.618,42.143-9.618s-24.7-23.887-34.545-25.993a18.2,18.2,0,0,0-7.6,35.605Z" transform="translate(-120.874 -173.168)" fill="#86a5c0"/>
    <path id="Caminho_730" data-name="Caminho 730" d="M176.824,616.982c9.333,3.729,43.163-2.358,43.163-2.358s-20.316-27.722-29.65-31.452a18.2,18.2,0,0,0-13.507,33.783Z" transform="translate(-130.012 -216.28)" fill="#86a5c0"/>
    <ellipse id="Elipse_85" data-name="Elipse 85" cx="318.293" cy="21.86" rx="318.293" ry="21.86" transform="translate(10.372 423.669)" fill="#86a5c0" opacity="0.1"/>
    <path id="Caminho_731" data-name="Caminho 731" d="M950.06,531.749s-.53-.709-1.265-1.5l.212-.073s-9.459-23.642-7.353-33.624-8.406-34.148-8.406-34.148-15.507-31.756-8.168-57.1a68.04,68.04,0,0,0,1.894-9.1c2.193-15.01,1.418-18.1-2.259-23.589l-.4-.59a4.635,4.635,0,0,0,1.053-1.557c3.153-8.406-14.706-23.642-9.956-37.831,4.385-13.149-7.028-40.282-8.724-44.183h0l-.192-.444-.57.185a13.858,13.858,0,0,1,3.749-9.1l.106-.106c1.577-1.451,3.491-2.517,4.968-4.074l.086-.1c.146-.139.3-.278.437-.424,1.464-1.537,2.464-3.816,1.669-5.79-.722-1.8-2.749-2.9-3.226-4.783a24.6,24.6,0,0,1-.212-2.55c-.384-2.65-2.961-4.312-5.3-5.624-2.908-1.643-5.962-3.312-9.32-3.352-4.544,0-8.611,3.047-13.123,3.425-1.537.133-3.133-.053-4.591.457a10.222,10.222,0,0,0-3.014,1.934,14.815,14.815,0,0,0-1.471,1.325,4.721,4.721,0,0,0-1.848,3.431,3.735,3.735,0,0,0,1.285,2.55,16.812,16.812,0,0,0,6.088,25.026c.053.364.106.735.159,1.126.662,4.975,1.053,12.01-.715,17.521-7.545,3.888-19.3,10.228-21.409,13.043a1.987,1.987,0,0,0-.278,1.649,2.241,2.241,0,0,0-.04.788c-1.649.378-3.842,0-6.512-2.438-6.306-5.776-26.265-23.118-26.265-23.118s-8.929-22.065-15.236-17.885,7.353,24.7,7.353,24.7l29.9,32.061s1.053,6.83,12.083,3.153c3.643-1.212,6.936-2.371,9.718-3.372l.662.563c-2.484,14.534-3.769,33.9,5.392,39.586a8.864,8.864,0,0,1,1.524,3.193c-.046.172-.093.351-.132.523a50.441,50.441,0,0,0-1.325,8.837,28.1,28.1,0,0,0-2.325,12.546l-3.511,50.019s-.523,11.029,3.153,19.435,15.236,50.437,7.353,53.59l.749.1c-2.259,2.325-6.061,5.849-8.956,6.545-4.4,1.047-3.166,7.79,6.584,8.916s10.923,1.033,17.779-4.683c6.041-5.034,7-7.287,7.141-7.77l.344.046s-3.676-13.659,0-19.435-8.4-40.971-8.4-40.971a113.589,113.589,0,0,1,.5-13.474c1.855,4.856,3.18,8.221,3.18,8.221s3.153,15.236,6.83,17.885,23.119,38.877,19.965,54.636l-.364,1.835.888-.258h.079c-1.212,3-3.418,7.744-5.856,9.486-3.676,2.65,0,8.406,9.459,5.776s10.506-3.153,14.712-11.029S950.06,531.749,950.06,531.749Z" transform="translate(-347.504 -104.947)" fill="url(#linear-gradient)"/>
    <path id="Caminho_732" data-name="Caminho 732" d="M911.616,460.952l-2.305-2.842a27.478,27.478,0,0,0-3.253,14.288L902.627,521.3s-.517,10.784,3.08,19,14.9,49.311,7.194,52.391l23.085,3.12s-3.6-13.354,0-19-8.221-40.063-8.221-40.063-1.027-28.762,8.731-35.446S911.616,460.952,911.616,460.952Z" transform="translate(-378.68 -174.424)" fill="#555388"/>
    <path id="Caminho_733" data-name="Caminho 733" d="M915.465,658.271s-6.339,7.406-10.632,8.433-3.094,7.611,6.439,8.717,10.678,1.014,17.389-4.577,7.008-7.691,7.008-7.691-1.325-4.968-2.928-5.074S915.465,658.271,915.465,658.271Z" transform="translate(-378.634 -241.922)" fill="#603556"/>
    <path id="Caminho_734" data-name="Caminho 734" d="M913.163,462.5l-3.842-4.385a27.478,27.478,0,0,0-3.253,14.288L902.637,521.3s-.517,10.784,3.08,19,14.9,49.311,7.194,52.391l23.079,3.12s-3.6-13.354,0-19-8.221-40.063-8.221-40.063-1.027-28.762,8.731-35.446S913.163,462.5,913.163,462.5Z" transform="translate(-378.684 -174.424)" opacity="0.1"/>
    <path id="Caminho_735" data-name="Caminho 735" d="M703.09,449.546s-6.419-126-32.77-170.593c0,0-19.323-35.294-35.473-45.588V229.3c-26.351-18.243-58.777,0-58.777,0v1.8l-6.757,5.631-30.425-.106a14.66,14.66,0,0,0-11.294-5.3H388.765a14.653,14.653,0,0,0-10.8,4.73h-31.6s-1.861-2.166-6.757-4.345V229.3c-26.351-18.243-58.777,0-58.777,0v4.9a8.678,8.678,0,0,0-2.027,1.861s-26.689,17.885-32.77,40.2c0,0-32.77,98.3-33.446,175.323s29.054,87.83,44.588,89.857,43.236-.662,70.263-68.892l11.486-39.858s2.027-23.648,26.351-8.784,45.939-8.108,45.939-8.108h91.215s30.372,18.892,58.1,4c0,0,10.811-14.189,20.946,33.783,0,0,31.081,98.641,79.047,88.506S703.09,449.546,703.09,449.546Z" transform="translate(-145.744 -94.445)" fill="url(#linear-gradient-2)"/>
    <path id="Caminho_736" data-name="Caminho 736" d="M320.84,241.166v-7.287s31.8-17.885,57.631,0V240.5Z" transform="translate(-182.29 -96.045)" fill="#535461"/>
    <path id="Caminho_737" data-name="Caminho 737" d="M757.84,241.166v-7.287s31.8-17.885,57.631,0V240.5Z" transform="translate(-329.812 -96.045)" fill="#535461"/>
    <path id="Caminho_738" data-name="Caminho 738" d="M320.84,241.166v-7.287s31.8-17.885,57.631,0V240.5Z" transform="translate(-182.29 -96.045)" opacity="0.1"/>
    <path id="Caminho_739" data-name="Caminho 739" d="M757.84,241.166v-7.287s31.8-17.885,57.631,0V240.5Z" transform="translate(-329.812 -96.045)" opacity="0.1"/>
    <path id="Caminho_740" data-name="Caminho 740" d="M382.127,243.524H350.994s-7.949-9.274-34.446-8.611-31.8,8.611-31.8,8.611-26.166,17.554-32.127,39.414c0,0-32.127,96.382-32.79,171.9s28.484,86.115,43.72,88.1,42.395-.662,68.892-67.567l11.261-39.083s1.987-23.185,25.834-8.611,45.045-7.949,45.045-7.949h89.427s29.809,18.548,56.968,3.975c0,0,10.6-13.911,20.535,33.121,0,0,30.471,96.713,77.5,86.777s41.732-90.752,41.732-90.752-6.293-123.541-32.127-167.261c0,0-24.841-45.376-41.4-47.363,0,0-35.771-6.624-49.682-.662l-7.949,6.624Z" transform="translate(-148.189 -99.066)" fill="#535461"/>
    <circle id="Elipse_86" data-name="Elipse 86" cx="57.631" cy="57.631" r="57.631" transform="translate(104.104 151.745)" fill="#e2e2ec"/>
    <circle id="Elipse_87" data-name="Elipse 87" cx="57.631" cy="57.631" r="57.631" transform="translate(404.843 151.745)" fill="#e2e2ec"/>
    <path id="Caminho_741" data-name="Caminho 741" d="M360.147,313.837l-7.684,6.8a3.564,3.564,0,0,1-4.71,0l-7.7-6.8a3.557,3.557,0,0,1-1.206-2.65v-18.7a3.564,3.564,0,0,1,3.564-3.557h15.4a3.557,3.557,0,0,1,3.564,3.564v18.68A3.557,3.557,0,0,1,360.147,313.837Z" transform="translate(-188.37 -117.313)" fill="#535461"/>
    <path id="Caminho_742" data-name="Caminho 742" d="M360.147,361.407l-7.684-6.79a3.564,3.564,0,0,0-4.71,0l-7.7,6.8a3.557,3.557,0,0,0-1.206,2.65v18.68a3.557,3.557,0,0,0,3.564,3.564h15.4a3.557,3.557,0,0,0,3.564-3.557V364.07a3.557,3.557,0,0,0-1.232-2.663Z" transform="translate(-188.37 -139.187)" fill="#535461"/>
    <path id="Caminho_743" data-name="Caminho 743" d="M323.767,350.25l6.8-7.7a3.564,3.564,0,0,0,0-4.71l-6.8-7.7a3.564,3.564,0,0,0-2.65-1.206h-18.68a3.564,3.564,0,0,0-3.557,3.564v15.4a3.557,3.557,0,0,0,3.564,3.564h18.68A3.557,3.557,0,0,0,323.767,350.25Z" transform="translate(-174.876 -130.819)" fill="#535461"/>
    <path id="Caminho_744" data-name="Caminho 744" d="M371.329,350.247l-6.783-7.7a3.557,3.557,0,0,1,0-4.71l6.8-7.7a3.557,3.557,0,0,1,2.65-1.206h18.68a3.557,3.557,0,0,1,3.564,3.564v15.4a3.557,3.557,0,0,1-3.557,3.564H374a3.557,3.557,0,0,1-2.67-1.212Z" transform="translate(-196.743 -130.816)" fill="#535461"/>
    <path id="Caminho_745" data-name="Caminho 745" d="M229.18,247.691h19.873l-9.936-8.611Z" transform="translate(-77.381 -80.711)" fill="none" stroke="#535461" stroke-miterlimit="10" stroke-width="2"/>
    <path id="Caminho_746" data-name="Caminho 746" d="M229.18,380.08h19.873l-9.936,8.611Z" transform="translate(-77.381 -128.31)" fill="none" stroke="#535461" stroke-miterlimit="10" stroke-width="2"/>
    <path id="Caminho_747" data-name="Caminho 747" d="M175.791,301.08v19.873l-8.611-9.936Z" transform="translate(-56.451 -101.641)" fill="none" stroke="#535461" stroke-miterlimit="10" stroke-width="2"/>
    <path id="Caminho_748" data-name="Caminho 748" d="M308.18,301.08v19.873l8.611-9.936Z" transform="translate(-104.05 -101.641)" fill="none" stroke="#535461" stroke-miterlimit="10" stroke-width="2"/>
    <circle id="Elipse_88" data-name="Elipse 88" cx="41.733" cy="41.733" r="41.733" transform="translate(198.168 230.573)" fill="#e2e2ec"/>
    <circle id="Elipse_89" data-name="Elipse 89" cx="27.822" cy="27.822" r="27.822" transform="translate(210.754 237.859)" fill="#535461"/>
    <circle id="Elipse_90" data-name="Elipse 90" cx="41.733" cy="41.733" r="41.733" transform="translate(342.576 230.573)" fill="#e2e2ec"/>
    <circle id="Elipse_91" data-name="Elipse 91" cx="27.822" cy="27.822" r="27.822" transform="translate(355.162 237.859)" fill="#535461"/>
    <circle id="Elipse_92" data-name="Elipse 92" cx="18.548" cy="18.548" r="18.548" transform="translate(220.028 247.133)" fill="none" stroke="#000" stroke-miterlimit="10" stroke-width="2" opacity="0.1"/>
    <circle id="Elipse_93" data-name="Elipse 93" cx="18.548" cy="18.548" r="18.548" transform="translate(364.436 247.133)" fill="none" stroke="#000" stroke-miterlimit="10" stroke-width="2" opacity="0.1"/>
    <circle id="Elipse_94" data-name="Elipse 94" cx="11.924" cy="11.924" r="11.924" transform="translate(301.506 265.019)" fill="#e2e2ec"/>
    <circle id="Elipse_95" data-name="Elipse 95" cx="2.603" cy="2.603" r="2.603" transform="translate(292.603 234.541)" fill="#e2e2ec"/>
    <circle id="Elipse_96" data-name="Elipse 96" cx="2.603" cy="2.603" r="2.603" transform="translate(302.354 234.541)" fill="#e2e2ec"/>
    <circle id="Elipse_97" data-name="Elipse 97" cx="2.603" cy="2.603" r="2.603" transform="translate(301.055 246.895)" fill="#e2e2ec"/>
    <circle id="Elipse_98" data-name="Elipse 98" cx="2.65" cy="2.65" r="2.65" transform="translate(310.117 247.133)" fill="#e2e2ec"/>
    <circle id="Elipse_99" data-name="Elipse 99" cx="2.603" cy="2.603" r="2.603" transform="translate(319.259 246.895)" fill="#e2e2ec"/>
    <circle id="Elipse_100" data-name="Elipse 100" cx="2.603" cy="2.603" r="2.603" transform="translate(297.154 241.046)" fill="#e2e2ec"/>
    <circle id="Elipse_101" data-name="Elipse 101" cx="2.65" cy="2.65" r="2.65" transform="translate(305.48 241.172)" fill="#e2e2ec"/>
    <circle id="Elipse_102" data-name="Elipse 102" cx="2.65" cy="2.65" r="2.65" transform="translate(314.092 241.172)" fill="#e2e2ec"/>
    <circle id="Elipse_103" data-name="Elipse 103" cx="2.603" cy="2.603" r="2.603" transform="translate(323.16 241.046)" fill="#e2e2ec"/>
    <circle id="Elipse_104" data-name="Elipse 104" cx="2.65" cy="2.65" r="2.65" transform="translate(310.117 234.547)" fill="#e2e2ec"/>
    <circle id="Elipse_105" data-name="Elipse 105" cx="2.65" cy="2.65" r="2.65" transform="translate(319.391 234.547)" fill="#e2e2ec"/>
    <circle id="Elipse_106" data-name="Elipse 106" cx="2.603" cy="2.603" r="2.603" transform="translate(327.062 234.541)" fill="#e2e2ec"/>
    <rect id="Retângulo_1" data-name="Retângulo 1" width="14.573" height="25.172" rx="7.287" transform="translate(208.767 149.095)" fill="#e2e2ec"/>
    <rect id="Retângulo_2" data-name="Retângulo 2" width="14.573" height="25.172" rx="7.287" transform="translate(402.194 149.095)" fill="#e2e2ec"/>
    <circle id="Elipse_107" data-name="Elipse 107" cx="15.898" cy="15.898" r="15.898" transform="translate(447.238 158.369)" fill="#535461"/>
    <circle id="Elipse_108" data-name="Elipse 108" cx="15.898" cy="15.898" r="15.898" transform="translate(413.455 192.152)" fill="#535461"/>
    <circle id="Elipse_109" data-name="Elipse 109" cx="15.898" cy="15.898" r="15.898" transform="translate(482.347 190.165)" fill="#535461"/>
    <circle id="Elipse_110" data-name="Elipse 110" cx="15.898" cy="15.898" r="15.898" transform="translate(449.888 225.273)" fill="#535461"/>
    <rect id="Retângulo_3" data-name="Retângulo 3" width="164.943" height="88.102" rx="21.75" transform="translate(229.964 139.821)" fill="#e2e2ec"/>
    <path id="Caminho_749" data-name="Caminho 749" d="M684.68,264.978l9.274-15.9,9.936,15.9Z" transform="translate(-231.149 -84.087)" fill="none" stroke="#e2e2ec" stroke-miterlimit="10" stroke-width="2"/>
    <rect id="Retângulo_4" data-name="Retângulo 4" width="16.561" height="14.573" transform="translate(421.073 200.764)" fill="none" stroke="#e2e2ec" stroke-miterlimit="10" stroke-width="2"/>
    <circle id="Elipse_111" data-name="Elipse 111" cx="9.274" cy="9.274" r="9.274" transform="translate(488.971 196.789)" fill="none" stroke="#e2e2ec" stroke-miterlimit="10" stroke-width="2"/>
    <line id="Linha_2" data-name="Linha 2" x2="14.904" y2="14.904" transform="translate(458.168 233.719)" fill="none" stroke="#e2e2ec" stroke-miterlimit="10" stroke-width="2"/>
    <line id="Linha_3" data-name="Linha 3" x1="15.236" y2="14.573" transform="translate(458.168 233.719)" fill="none" stroke="#e2e2ec" stroke-miterlimit="10" stroke-width="2"/>
    <path id="Caminho_750" data-name="Caminho 750" d="M433.648,685.548c1.987-1.517,3.875-3.312,4.451-5.478a4.637,4.637,0,0,0-3.107-5.578c-2.855-.888-5.9.722-8.221,2.352s-4.962,3.491-7.989,3.146a8.888,8.888,0,0,0,3.763-9.274,3.6,3.6,0,0,0-1.047-1.888c-1.583-1.384-4.458-.788-6.353.3-6.035,3.464-7.717,10.148-7.75,16.17-.609-2.173-.093-4.432-.113-6.664s-.762-4.7-3.067-5.9a10.964,10.964,0,0,0-4.677-.894c-2.709-.08-5.737.139-7.585,1.762-2.3,1.987-1.7,5.385.3,7.6s5.048,3.6,7.85,5.134a16.356,16.356,0,0,1,5.611,4.365,3.975,3.975,0,0,1,.417.782h17a48.886,48.886,0,0,0,10.513-5.935Z" transform="translate(-205.797 -245.286)" fill="#86a5c0"/>
    <path id="Caminho_751" data-name="Caminho 751" d="M983.837,671.068s-3.08,9.274-6.677,11.818,0,8.221,9.274,5.65,10.274-3.08,14.381-10.784,3.6-9.757,3.6-9.757-3.08-4.107-4.637-3.6S983.837,671.068,983.837,671.068Z" transform="translate(-403.386 -244.048)" fill="#603556"/>
    <path id="Caminho_752" data-name="Caminho 752" d="M942.264,315.856s-41.607,23.112-31.849,16.435c6.558-4.485,6.161-16.388,5.193-23.721-.3-2.285-.662-4.127-.881-5.16-.126-.583-.205-.908-.205-.908s20.177-12.109,19.045-4.829h0a.42.42,0,0,1-.033.2,7.848,7.848,0,0,0-.152,1.477C933.242,306.834,942.264,315.856,942.264,315.856Z" transform="translate(-380.817 -119.478)" fill="#c87486"/>
    <path id="Caminho_753" data-name="Caminho 753" d="M864.514,339.747s-3.6,5.65-9.757,0-25.682-22.6-25.682-22.6-8.731-21.575-14.9-17.461,7.194,24.145,7.194,24.145l29.279,31.332s1.027,6.677,11.818,3.08,18.495-6.677,18.495-6.677Z" transform="translate(-348.278 -120.767)" fill="#c87486"/>
    <path id="Caminho_754" data-name="Caminho 754" d="M915.83,439.53" transform="translate(-383.146 -168.152)" fill="none"/>
    <path id="Caminho_755" data-name="Caminho 755" d="M982.912,587.669l-20.535,7.194-.868.252.358-1.8c3.08-15.408-15.9-50.854-19.521-53.424s-6.69-17.481-6.69-17.481-6.73-33.9-7.757-41.07c-.258-1.8-1.2-3.226-2.338-5.2a41.152,41.152,0,0,1-3.975-9.512c-2.259-7.949-7.525-22.059-5.591-30.041.391-1.623-1.206,2.524-.662.941l.311-.874L957.23,431a31.017,31.017,0,0,1,1.934,2.617c3.146,4.67,2.941,4.67,3.6,13.547a91.588,91.588,0,0,1-2.259,15.9c-5.6,24.927,7.028,58.293,7.028,58.293s10.274,23.629,8.221,33.386S982.912,587.669,982.912,587.669Z" transform="translate(-382.939 -165.272)" fill="#555388"/>
    <path id="Caminho_756" data-name="Caminho 756" d="M958.49,433.61c-6.154,7.717-45.575,13.712-45.084,11.261a5.207,5.207,0,0,0-.185-2.53,50.136,50.136,0,0,1,1.418-4.816l.311-.874L956.556,431a31.056,31.056,0,0,1,1.934,2.61Z" transform="translate(-382.265 -165.272)" opacity="0.1"/>
    <path id="Caminho_757" data-name="Caminho 757" d="M939.6,310S922.639,315.154,918,326.971s3.517,12.46,3.517,12.46-14.573,38.42-10.711,58.426c0,0,2.053,2.57,1.543,5.134s42.633-4.107,45.707-12.328-14.381-23.112-9.757-36.983S939.6,310,939.6,310Z" transform="translate(-381.231 -124.425)" fill="#dfe5ee"/>
    <path id="Caminho_758" data-name="Caminho 758" d="M936.483,299.432a1.622,1.622,0,0,1-.152.444c-.7,1.325-2.934-.126-2.159,1.861-2.981,2.994-3.922,8.989-8.472,8.989a16.335,16.335,0,0,1-7.148-1.623c-.3-2.285-.662-4.127-.881-5.16,1.987-1.179,17.885-10.387,18.839-5.737h0a3.054,3.054,0,0,1-.027,1.225Z" transform="translate(-383.767 -120.004)" opacity="0.1"/>
    <circle id="Elipse_112" data-name="Elipse 112" cx="16.435" cy="16.435" r="16.435" transform="translate(525.49 156.832)" fill="#c87486"/>
    <path id="Caminho_759" data-name="Caminho 759" d="M931.4,359.535,902.633,372.89S883.112,358,886.192,353.9,913.417,338,913.417,338,938.073,343.1,931.4,359.535Z" transform="translate(-373.03 -133.878)" opacity="0.1"/>
    <path id="Caminho_760" data-name="Caminho 760" d="M931.4,358.019l-28.762,13.354s-19.521-14.9-16.435-19,27.226-15.9,27.226-15.9S938.076,341.557,931.4,358.019Z" transform="translate(-373.032 -133.361)" fill="#dfe5ee"/>
    <path id="Caminho_761" data-name="Caminho 761" d="M917.65,273.127c-2.511-.252-5.107-.53-7.287-1.8a4.391,4.391,0,0,1-2.464-3.4c-.046-1.722,1.4-3.067,2.736-4.16a9.99,9.99,0,0,1,2.948-1.888,18.029,18.029,0,0,1,4.485-.444c4.425-.371,8.386-3.378,12.831-3.352,3.266,0,6.267,1.669,9.108,3.279,2.272,1.285,4.8,2.915,5.174,5.5a24.075,24.075,0,0,0,.205,2.491c.47,1.842,2.451,2.915,3.16,4.677.775,1.928-.205,4.16-1.636,5.664s-3.312,2.537-4.816,3.941a13.5,13.5,0,0,0-4.319,10.162,1.325,1.325,0,0,1-.113.735,1.285,1.285,0,0,1-.927.464c-1.636.3-3.657.47-4.637-.881s-.205-3.6-1.325-4.935c-1.424-1.716-4.418-.351-6.346-1.477a3.855,3.855,0,0,1-1.457-1.742c-1.59-3.425.232-6.114.894-9.387C924.639,272.756,920.346,273.4,917.65,273.127Z" transform="translate(-380.468 -106.902)" opacity="0.1"/>
    <path id="Caminho_762" data-name="Caminho 762" d="M918.43,272.337c-2.51-.252-5.107-.53-7.287-1.8a4.39,4.39,0,0,1-2.464-3.4c-.046-1.722,1.4-3.067,2.736-4.16a9.991,9.991,0,0,1,2.948-1.888,18.026,18.026,0,0,1,4.484-.444c4.425-.371,8.386-3.378,12.831-3.352,3.266,0,6.266,1.669,9.108,3.279,2.272,1.285,4.8,2.915,5.173,5.5a24.058,24.058,0,0,0,.205,2.491c.47,1.842,2.451,2.915,3.16,4.677.775,1.928-.205,4.16-1.636,5.664s-3.312,2.537-4.816,3.941a13.5,13.5,0,0,0-4.326,10.188,1.325,1.325,0,0,1-.113.735,1.285,1.285,0,0,1-.927.464c-1.636.3-3.656.47-4.637-.881s-.205-3.6-1.325-4.935c-1.424-1.716-4.418-.351-6.346-1.477a3.855,3.855,0,0,1-1.457-1.742c-1.6-3.431.225-6.141.888-9.446C925.412,271.973,921.12,272.622,918.43,272.337Z" transform="translate(-380.732 -106.635)" fill="#603456"/>
  </g>
</svg>
