<svg xmlns="http://www.w3.org/2000/svg" xmlns:xlink="http://www.w3.org/1999/xlink" width="759.778" height="571.906" viewBox="0 0 759.778 571.906">
  <defs>
    <linearGradient id="linear-gradient" x1="0.5" y1="1" x2="0.5" gradientUnits="objectBoundingBox">
      <stop offset="0" stop-color="gray" stop-opacity="0.251"/>
      <stop offset="0.54" stop-color="gray" stop-opacity="0.122"/>
      <stop offset="1" stop-color="gray" stop-opacity="0.102"/>
    </linearGradient>
    <linearGradient id="linear-gradient-2" x1="0.5" y1="1" x2="0.5" y2="0" xlink:href="#linear-gradient"/>
    <linearGradient id="linear-gradient-4" x1="0.501" y1="0.999" x2="0.501" y2="-0.001" xlink:href="#linear-gradient"/>
    <linearGradient id="linear-gradient-5" x1="0.5" y1="1" x2="0.5" y2="0.001" xlink:href="#linear-gradient"/>
    <linearGradient id="linear-gradient-7" x1="0.5" y1="1" x2="0.5" y2="0" xlink:href="#linear-gradient"/>
    <linearGradient id="linear-gradient-9" x1="0.5" y1="1" x2="0.5" y2="-0.001" xlink:href="#linear-gradient"/>
    <linearGradient id="linear-gradient-10" x1="0.5" y1="1" x2="0.5" y2="0" xlink:href="#linear-gradient"/>
    <linearGradient id="linear-gradient-14" x1="0.5" y1="1" x2="0.5" y2="0.001" xlink:href="#linear-gradient"/>
    <linearGradient id="linear-gradient-16" x1="0.5" y1="1" x2="0.5" y2="0" xlink:href="#linear-gradient"/>
    <linearGradient id="linear-gradient-17" x1="0.5" y1="1" x2="0.5" y2="0" xlink:href="#linear-gradient"/>
    <linearGradient id="linear-gradient-19" x1="0.5" y1="1" x2="0.5" y2="0" xlink:href="#linear-gradient"/>
    <linearGradient id="linear-gradient-20" x1="0.5" y1="1" x2="0.5" y2="0" xlink:href="#linear-gradient"/>
    <linearGradient id="linear-gradient-21" x1="0.5" y1="1" x2="0.5" y2="0" xlink:href="#linear-gradient"/>
    <linearGradient id="linear-gradient-22" x1="0.5" y1="1" x2="0.5" y2="0" xlink:href="#linear-gradient"/>
    <linearGradient id="linear-gradient-25" x1="0.5" y1="0.999" x2="0.5" y2="0" xlink:href="#linear-gradient"/>
  </defs>
  <g id="undraw_old_day_6x25_4_" data-name="undraw_old_day_6x25 (4)" transform="translate(-0.017 -0.038)">
    <path id="Caminho_790" data-name="Caminho 790" d="M684,143.906c4.979,47.46,43.767,87.24,80.394,113.91,12.255,8.931,25.487,18.136,33.215,32.825,9.444,17.924,7.782,39.062,1.73,55.105-11.024,29.249-35.691,47.87-64.221,48.445-24.619.506-51-11.544-75.471-10.169-40.963,2.27-67.921,41.155-85.332,82.337-12.309,29.132-24.243,63.175-51.631,70.437-19.271,5.129-42.126-4.937-61.424-20.215-9.321-7.379-18.512-16.2-28.722-19.422-6.059-1.915-12.056-1.682-17.78-.855-52.322,7.584-86.884,62.224-140.136,66.074-35.964,2.626-75.354-19.086-107.66-49.922S108.327,442.171,83.366,402.61C65.627,374.5,47.532,343.688,44.844,311.7c-2.879-33.851,12.993-62.272,35.4-76.367s50.606-15.729,78.459-12.692c34.836,3.782,72.038,14.272,102.141.814,20.516-9.164,35.28-28.51,51.242-45.374,26.671-28.189,57.711-50.2,88.861-71.634,29.816-20.516,60.18-40.785,94.373-51.973,24.236-7.94,49.99-5.259,74.889-9.868,16.235-3,29.734-12.309,46.79-12.713,21.008-.533,46.933,8.5,60.1,35.15C689.648,92.35,681.353,118.719,684,143.906Z" transform="translate(-44.49 -31.83)" fill="#86a5c0" opacity="0.1"/>
    <path id="Caminho_791" data-name="Caminho 791" d="M696.274,43.228,649.567,40.4,622.54,38.468V38.42h-.711v.055L476.5,50.1h-12.05l-1.416,50.161,23.395,8.247,14.176,72.147L436.1,308.449l-38.98,29.543v28.168l23.395,22.677,1.416,103.755,7.092,1.368v-1.1l3.563.684v.41l138.447,46.557,5.82,3.946,12.173-7.584,98.065-56.658ZM547.432,365.544h0L585.359,333.4h0Zm-131.54,13.335,10.258,9.964v.615Z" transform="translate(-155.965 -33.901)" fill="url(#linear-gradient)"/>
    <path id="Caminho_792" data-name="Caminho 792" d="M397.866,509.75l138.139,34.877L515.49,521.376l-11.626-14.361L382.821,483.08l-5.471,4.787Z" transform="translate(-119.29 -152.71)" fill="#535461"/>
    <path id="Caminho_793" data-name="Caminho 793" d="M376.085,476.486l136.088,31.458.684-32.825-38.98-15.045-77.96-12.993H373.35Z" transform="translate(-118.026 -141.328)" fill="#d6d6e3"/>
    <path id="Caminho_794" data-name="Caminho 794" d="M514.711,181.408l138.823,8.89V164.311l-9.574-58.128-4.787-4.1-138.823,4.1Z" transform="translate(-158.176 -32.26)" fill="#d6d6e3"/>
    <path id="Caminho_795" data-name="Caminho 795" d="M440.155,27.08h-6.839L431.949,77l22.567,8.206,13.677,71.805-62.231,127.2L368.35,313.617v28.038l22.567,22.567,1.368,103.263,6.839,1.368-1.368-102.579-22.567-23.935-.684-28.722,36.245-28.722,63.6-127.2L460.671,85.208,438.1,75.634l2.052-48.554Z" transform="translate(-116.445 -8.549)" fill="#d6d6e3"/>
    <path id="Caminho_796" data-name="Caminho 796" d="M432.155,27.08h-6.839L423.949,77l22.567,8.206,13.677,71.805-62.231,127.2L360.35,313.617v28.038l22.567,22.567,1.368,103.263,6.839,1.368-1.368-102.579-22.567-23.935-.684-28.722,37.612-28.722,62.231-127.2L452.671,85.208,430.1,75.634l2.052-48.554Z" transform="translate(-113.916 -8.549)" fill="#535461"/>
    <path id="Caminho_797" data-name="Caminho 797" d="M464.85,89.261l3.419,4.787,19.148,8.89,151.817-4.1-14.7-4.445L608.8,87.551l2.052-5.471Z" transform="translate(-146.953 -25.937)" fill="#a8a8a8"/>
    <path id="Caminho_798" data-name="Caminho 798" d="M427.35,347.329,566.173,369.9l28.038-59.5,38.3-85.482L491.633,218.08Z" transform="translate(-135.097 -68.932)" fill="#86a5c0"/>
    <g id="Grupo_92" data-name="Grupo 92" transform="translate(318.239 173.767)" opacity="0.1">
      <path id="Caminho_799" data-name="Caminho 799" d="M511.169,254.08l93.689,7.522L556.3,357.343,465.35,343.666Z" transform="translate(-465.35 -254.08)" fill="#fff"/>
    </g>
    <g id="Grupo_93" data-name="Grupo 93" transform="translate(368.503 180.722)" opacity="0.1">
      <path id="Caminho_800" data-name="Caminho 800" d="M540.867,264.25l4.137.335-2.141,4.219-4.014-.6Z" transform="translate(-538.85 -264.25)" fill="#fff"/>
    </g>
    <g id="Grupo_94" data-name="Grupo 94" transform="translate(369.187 220.385)" opacity="0.1">
      <path id="Caminho_801" data-name="Caminho 801" d="M541.867,322.25l4.137.335-2.141,4.219-4.014-.6Z" transform="translate(-539.85 -322.25)" fill="#fff"/>
    </g>
    <g id="Grupo_95" data-name="Grupo 95" transform="translate(391.754 185.509)" opacity="0.1">
      <path id="Caminho_802" data-name="Caminho 802" d="M574.867,271.25l4.137.335-2.141,4.219-4.014-.6Z" transform="translate(-572.85 -271.25)" fill="#fff"/>
    </g>
    <g id="Grupo_96" data-name="Grupo 96" transform="translate(434.837 187.56)" opacity="0.1">
      <path id="Caminho_803" data-name="Caminho 803" d="M637.867,274.25l4.137.335-2.14,4.219-4.014-.6Z" transform="translate(-635.85 -274.25)" fill="#fff"/>
    </g>
    <g id="Grupo_97" data-name="Grupo 97" transform="translate(376.709 193.031)" opacity="0.1">
      <path id="Caminho_804" data-name="Caminho 804" d="M552.867,282.25l4.137.335-2.141,4.219-4.014-.6Z" transform="translate(-550.85 -282.25)" fill="#fff"/>
    </g>
    <g id="Grupo_98" data-name="Grupo 98" transform="translate(391.754 234.747)" opacity="0.1">
      <path id="Caminho_805" data-name="Caminho 805" d="M574.867,343.25l4.137.335-2.141,4.219-4.014-.6Z" transform="translate(-572.85 -343.25)" fill="#fff"/>
    </g>
    <g id="Grupo_99" data-name="Grupo 99" transform="translate(354.826 210.811)" opacity="0.1">
      <path id="Caminho_806" data-name="Caminho 806" d="M520.867,308.25l4.137.335-2.141,4.219-4.014-.6Z" transform="translate(-518.85 -308.25)" fill="#fff"/>
    </g>
    <g id="Grupo_100" data-name="Grupo 100" transform="translate(417.741 185.509)" opacity="0.1">
      <path id="Caminho_807" data-name="Caminho 807" d="M612.867,271.25l4.137.335-2.14,4.219-4.014-.6Z" transform="translate(-610.85 -271.25)" fill="#fff"/>
    </g>
    <g id="Grupo_101" data-name="Grupo 101" transform="translate(384.915 208.76)" opacity="0.1">
      <path id="Caminho_808" data-name="Caminho 808" d="M564.867,305.25l4.137.335-2.14,4.219-4.014-.6Z" transform="translate(-562.85 -305.25)" fill="#fff"/>
    </g>
    <g id="Grupo_102" data-name="Grupo 102" transform="translate(380.128 182.773)" opacity="0.1">
      <path id="Caminho_809" data-name="Caminho 809" d="M557.867,267.25l4.137.335-2.141,4.219-4.014-.6Z" transform="translate(-555.85 -267.25)" fill="#fff"/>
    </g>
    <g id="Grupo_103" data-name="Grupo 103" transform="translate(401.328 206.708)" opacity="0.1">
      <path id="Caminho_810" data-name="Caminho 810" d="M588.867,302.25l4.137.335-2.14,4.219-4.014-.6Z" transform="translate(-586.85 -302.25)" fill="#fff"/>
    </g>
    <g id="Grupo_104" data-name="Grupo 104" transform="translate(406.115 185.509)" opacity="0.1">
      <path id="Caminho_811" data-name="Caminho 811" d="M595.867,271.25l4.137.335-2.14,4.219-4.014-.6Z" transform="translate(-593.85 -271.25)" fill="#fff"/>
    </g>
    <g id="Grupo_105" data-name="Grupo 105" transform="translate(363.032 195.083)" opacity="0.1">
      <path id="Caminho_812" data-name="Caminho 812" d="M532.867,285.25l4.137.335-2.141,4.219-4.014-.6Z" transform="translate(-530.85 -285.25)" fill="#fff"/>
    </g>
    <path id="Caminho_813" data-name="Caminho 813" d="M373.35,433.96l135.4,27.354,37.3-32.634L410.62,405.58Z" transform="translate(-118.026 -128.209)" fill="#d6d6e3"/>
    <path id="Caminho_814" data-name="Caminho 814" d="M410.35,517.08V623.762l134.036,46.5,2.052-110.785-5.471-10.306-24.619-6.107Z" transform="translate(-129.723 -163.458)" fill="#535461"/>
    <ellipse id="Elipse_117" data-name="Elipse 117" cx="5.813" cy="3.419" rx="5.813" ry="3.419" transform="translate(292.252 283.868)" fill="#575988"/>
    <ellipse id="Elipse_118" data-name="Elipse 118" cx="5.813" cy="3.419" rx="5.813" ry="3.419" transform="translate(297.039 291.391)" fill="#fa595f"/>
    <ellipse id="Elipse_119" data-name="Elipse 119" cx="5.813" cy="3.419" rx="5.813" ry="3.419" transform="translate(280.627 289.339)" fill="#ffd037"/>
    <ellipse id="Elipse_120" data-name="Elipse 120" cx="5.813" cy="3.419" rx="5.813" ry="3.419" transform="translate(354.484 296.178)" fill="#575988"/>
    <ellipse id="Elipse_121" data-name="Elipse 121" cx="5.813" cy="3.419" rx="5.813" ry="3.419" transform="translate(342.858 302.332)" fill="#ffd037"/>
    <ellipse id="Elipse_122" data-name="Elipse 122" cx="8.548" cy="4.103" rx="8.548" ry="4.103" transform="translate(318.239 291.391)" fill="#a8a8a8"/>
    <ellipse id="Elipse_123" data-name="Elipse 123" cx="5.813" cy="3.419" rx="5.813" ry="3.419" transform="translate(360.638 303.7)" fill="#fa595f"/>
    <path id="Caminho_815" data-name="Caminho 815" d="M522.255,454.381h-4.1l-3.529-13.622a3.878,3.878,0,0,1,3.754-4.849h0a3.877,3.877,0,0,1,3.877,3.878Z" transform="translate(-193.074 -159.564)" fill="#a8a8a8"/>
    <ellipse id="Elipse_124" data-name="Elipse 124" cx="8.548" cy="4.103" rx="8.548" ry="4.103" transform="translate(379.786 302.332)" fill="#a8a8a8"/>
    <path id="Caminho_816" data-name="Caminho 816" d="M612.255,470.381h-4.1l-3.529-13.622a3.878,3.878,0,0,1,3.754-4.849h0a3.877,3.877,0,0,1,3.877,3.878Z" transform="translate(-221.527 -164.623)" fill="#a8a8a8"/>
    <path id="Caminho_817" data-name="Caminho 817" d="M470.769,21.706,611.644,10.08l-3.419,51.289L467.35,68.208Z" transform="translate(-147.743 -3.175)" fill="#535461"/>
    <path id="Caminho_818" data-name="Caminho 818" d="M643.839,10.08l64.967,4.787L699.915,449.8l-99.5,63.941-6.839-4.787-.342-113.863L571.35,370.474V336.281l38.3-33.509,64.967-144.294-9.232-82.405h4.787l-30.432-10.6Z" transform="translate(-180.622 -3.175)" fill="#d6d6e3"/>
    <path id="Caminho_819" data-name="Caminho 819" d="M653.155,11.08l65.651,4.1-8.89,434.934-106.682,63.6V395.409L581.35,370.79V336.6l38.3-33.509,64.967-144.294L672.987,76.047,649.736,65.789Z" transform="translate(-183.783 -3.491)" fill="#535461"/>
    <path id="Caminho_820" data-name="Caminho 820" d="M536.8,424.227c-9.574,19.832-33.14,14.689-33.14,14.689-1.217-1.128-8.835-3.016-14.614-4.322-3.707-.841-6.654-1.429-6.654-1.429l8.09-11.277,6.066,1.245,9.047,1.86S546.406,404.4,536.8,424.227Z" transform="translate(-182.923 -153.147)" fill="url(#linear-gradient-2)"/>
    <g id="Grupo_106" data-name="Grupo 106" transform="translate(299.467 262.463)" opacity="0.08">
      <path id="Caminho_821" data-name="Caminho 821" d="M536.8,424.227c-9.574,19.832-33.14,14.689-33.14,14.689-1.217-1.128-8.835-3.016-14.614-4.322-3.707-.841-6.654-1.429-6.654-1.429l8.09-11.277,6.066,1.245,9.047,1.86S546.406,404.4,536.8,424.227Z" transform="translate(-482.39 -415.61)" fill="url(#linear-gradient-2)"/>
    </g>
    <g id="Grupo_107" data-name="Grupo 107" transform="translate(299.454 268.748)" opacity="0.1">
      <path id="Caminho_822" data-name="Caminho 822" d="M496.546,426.038l-7.522,11.468c-3.707-.841-6.654-1.429-6.654-1.429l8.09-11.277Z" transform="translate(-482.37 -424.8)" fill="url(#linear-gradient-4)"/>
    </g>
    <path id="Caminho_823" data-name="Caminho 823" d="M379.487,354.729s35.267,55.112,73.029,54.982l10.258-15.729s-34.562-24.687-39.158-37.558c-1.7-4.787-5.2-11.345-8.931-17.78-11.468-19.716-42.4-6.839-35.6,14.826Q379.282,354.114,379.487,354.729Z" transform="translate(-149.958 -125.734)" fill="url(#linear-gradient-5)"/>
    <g id="Grupo_108" data-name="Grupo 108" transform="translate(228.16 203.166)" opacity="0.05">
      <path id="Caminho_824" data-name="Caminho 824" d="M379.487,354.729s35.267,55.112,73.029,54.982l10.258-15.729s-34.562-24.687-39.158-37.558c-1.7-4.787-5.2-11.345-8.931-17.78-11.468-19.716-42.4-6.839-35.6,14.826Q379.282,354.114,379.487,354.729Z" transform="translate(-378.118 -328.9)" fill="url(#linear-gradient-5)"/>
    </g>
    <path id="Caminho_825" data-name="Caminho 825" d="M346.55,828.529l1.655,19.148s54.168-9,53.7-26.992S346.55,828.529,346.55,828.529Z" transform="translate(-139.978 -279.194)" fill="url(#linear-gradient-7)"/>
    <g id="Grupo_109" data-name="Grupo 109" transform="translate(206.572 535.121)" opacity="0.1">
      <path id="Caminho_826" data-name="Caminho 826" d="M346.55,828.529l1.655,19.148s54.168-9,53.7-26.992S346.55,828.529,346.55,828.529Z" transform="translate(-346.55 -814.315)" fill="url(#linear-gradient-7)"/>
    </g>
    <path id="Caminho_827" data-name="Caminho 827" d="M438.814,837.42l-.944,16.611s75.225-5.539,72.38-21.2-42.577-6.948-42.577-6.948Z" transform="translate(-168.848 -282.087)" fill="url(#linear-gradient-9)"/>
    <path id="Caminho_828" data-name="Caminho 828" d="M408.482,576.495s-4.445,12.309-10.121,26.411c-5.43,13.5-11.981,28.674-16.843,36.34-9.936,15.688-11.352,64.139-11.352,64.139-1.894,7.844,7.57,23.073,7.57,23.073-18.922,19.832-36.429,8.309-36.429,8.309,3.31-6-2.366-23.073-2.366-23.073s7.57-78.9,12.309-82.6,8.514-22.15,8.514-22.15l-4.233-62.724-.971-14.361,40.683-17.992,2.934,14.306,2.906,14.163Z" transform="translate(-137.572 -183.578)" fill="url(#linear-gradient-10)"/>
    <g id="Grupo_110" data-name="Grupo 110" transform="translate(201.368 328.292)" opacity="0.1">
      <path id="Caminho_829" data-name="Caminho 829" d="M408.482,576.495s-4.445,12.309-10.121,26.411c-5.43,13.5-11.981,28.674-16.843,36.34-9.936,15.688-11.352,64.139-11.352,64.139-1.894,7.844,7.57,23.073,7.57,23.073-18.922,19.832-36.429,8.309-36.429,8.309,3.31-6-2.366-23.073-2.366-23.073s7.57-78.9,12.309-82.6,8.514-22.15,8.514-22.15l-4.233-62.724-.971-14.361,40.683-17.992,2.934,14.306,2.906,14.163Z" transform="translate(-338.94 -511.87)" fill="url(#linear-gradient-10)"/>
    </g>
    <path id="Caminho_830" data-name="Caminho 830" d="M459.925,735.838c-8.514,14.765-38.3,12.918-38.3,12.918V705.379s-8.514-48.451-3.782-59.5-1.894-31.375-1.894-31.375l-1.628-4.985-19.292-59.5L389.44,532.78h63.866v7.755c.082,18.464.465,64.221,2.346,74.841,2.366,13.383-4.26,22.15-4.26,22.15s3.782,54.449.472,71.518S459.925,735.838,459.925,735.838Z" transform="translate(-153.537 -190.189)" fill="url(#linear-gradient-10)"/>
    <path id="Caminho_831" data-name="Caminho 831" d="M399.877,236.61s-9.936,26.759-29.8,36.45,32.641,12.46,32.641,12.46,8.514-20.3,27.908-34.61Z" transform="translate(-145.996 -96.557)" fill="url(#linear-gradient)"/>
    <g id="Grupo_111" data-name="Grupo 111" transform="translate(216.98 328.285)" opacity="0.1">
      <path id="Caminho_832" data-name="Caminho 832" d="M444.578,533.949c-7.919,1.525-21.931,4.137-36.286,6.408-7.522,1.19-15.127,2.284-22.007,3.077-10.586,1.224-19.442,1.737-23.545.78l-.971-14.361,40.683-17.992,2.934,14.306h39.171S444.558,529.148,444.578,533.949Z" transform="translate(-361.77 -511.86)" fill="url(#linear-gradient-14)"/>
    </g>
    <path id="Caminho_833" data-name="Caminho 833" d="M443.879,458.331S363.93,474.483,354,469.409s-12.309-17.992-9.465-32.3,0-49.833-5.2-95.056c-2.619-22.772,3.153-38.057,9.54-47.617a30.37,30.37,0,0,1,25.3-13.287,38.3,38.3,0,0,1,23.846,8.206,17.73,17.73,0,0,0,5.662,3.344c1.3.349,3.255,1.73,5.471,3.611a50.38,50.38,0,0,1,17.281,33.448c.821,8.6,1.689,19.422,2.113,30.363a246.88,246.88,0,0,1-.287,28.038,91.889,91.889,0,0,0,.971,20.454C432.917,433.548,443.879,458.331,443.879,458.331Z" transform="translate(-137.492 -110.638)" fill="url(#linear-gradient)"/>
    <g id="Grupo_112" data-name="Grupo 112" transform="translate(247.669 210.237)" opacity="0.1">
      <path id="Caminho_834" data-name="Caminho 834" d="M450.724,427.013c-29.016-17.657-44.02-67.059-44.02-67.059a11.175,11.175,0,0,0-.048-1.272c-.65-22.656,32.709-27.019,38.371-5.033,1.84,7.16,3.419,14.423,3.748,19.442a20.782,20.782,0,0,0,1.265,5.4,246.874,246.874,0,0,1-.287,28.038A91.891,91.891,0,0,0,450.724,427.013Z" transform="translate(-406.646 -339.241)" fill="url(#linear-gradient-16)"/>
    </g>
    <g id="Grupo_113" data-name="Grupo 113" transform="translate(248.909 142.822)" opacity="0.1">
      <path id="Caminho_835" data-name="Caminho 835" d="M408.46,253.811c4.719,7.8,8.452,15.66,18.033,16.994a86.778,86.778,0,0,1,16.262-15.838L411.982,240.66S413.787,245.543,408.46,253.811Z" transform="translate(-408.46 -240.66)" fill="url(#linear-gradient-17)"/>
    </g>
    <ellipse id="Elipse_125" data-name="Elipse 125" cx="31.225" cy="30.452" rx="31.225" ry="30.452" transform="translate(241.579 109.593)" fill="url(#linear-gradient-2)"/>
    <g id="Grupo_114" data-name="Grupo 114" transform="translate(233.465 94.731)" opacity="0.1">
      <path id="Caminho_836" data-name="Caminho 836" d="M456.077,225.2a6.38,6.38,0,0,0,3.665-.971c1.5-1.087,1.976-3.036,2.318-4.828.814-4.233,1.45-8.692,0-12.768-.937-2.694-2.735-5.026-3.994-7.584-2.8-5.587-3.3-12.309-7.3-17.158-2.5-3.036-11.27,0-14.935-1.532-7.878-3.31-11.3-10.025-19.88-10.019a31.711,31.711,0,0,0-9.314,1.163,33.117,33.117,0,0,0-10.381,5.874c-5.471,4.254-10.832,10.094-10.347,16.919.315,4.356,2.975,8.206,4.541,12.268,2.626,6.839,2.147,14.525.253,21.61-.807,3.016-1.73,6.62.41,8.924a6.179,6.179,0,0,0,5.471,1.539,18.218,18.218,0,0,0,5.471-2.188,37.522,37.522,0,0,0,8.685-5.7c1.648-1.587,2.975-3.46,4.541-5.122a50.2,50.2,0,0,1,10.326-8.206c3.029-1.819,6.155-.684,9.335.5C441.928,220.493,448.39,225.342,456.077,225.2Z" transform="translate(-385.875 -170.336)" fill="url(#linear-gradient-19)"/>
    </g>
    <path id="Caminho_837" data-name="Caminho 837" d="M455.387,224.525a6.38,6.38,0,0,0,3.665-.971c1.5-1.087,1.976-3.036,2.318-4.828.814-4.233,1.45-8.692,0-12.768-.937-2.694-2.735-5.026-3.994-7.584-2.8-5.587-3.3-12.309-7.3-17.158-2.5-3.036-10.8.465-14.464-1.074-7.878-3.31-11.769-10.484-20.352-10.477a31.711,31.711,0,0,0-9.314,1.163,33.118,33.118,0,0,0-10.381,5.874c-5.471,4.254-10.832,10.094-10.347,16.919.315,4.356,2.975,8.206,4.541,12.268,2.626,6.839,2.147,14.525.253,21.61-.807,3.016-1.73,6.62.41,8.924a6.179,6.179,0,0,0,5.471,1.539,18.218,18.218,0,0,0,5.471-2.188,37.521,37.521,0,0,0,8.685-5.7c1.648-1.587,2.975-3.46,4.541-5.122a50.2,50.2,0,0,1,10.326-8.206c3.029-1.819,6.155-.684,9.335.5C441.238,219.813,447.7,224.662,455.387,224.525Z" transform="translate(-152.192 -75.391)" fill="url(#linear-gradient-20)"/>
    <g id="Grupo_115" data-name="Grupo 115" transform="translate(220.844 177.218)" opacity="0.05">
      <path id="Caminho_838" data-name="Caminho 838" d="M438.323,411.749a91.892,91.892,0,0,1-.971-20.454,246.866,246.866,0,0,0,.287-28.038c-.424-10.942-1.286-21.767-2.113-30.363A50.38,50.38,0,0,0,418.2,299.425c-2.2-1.881-4.151-3.269-5.471-3.611a17.6,17.6,0,0,1-5.662-3.344c-6.715-5.355,1.819,5.074,4.014,6.955a50.38,50.38,0,0,1,17.322,33.468c.821,8.6,1.689,19.422,2.113,30.363a246.88,246.88,0,0,1-.287,28.038,91.893,91.893,0,0,0,.971,20.454c3.679,24.913,14.641,49.682,14.641,49.682s-53.519,10.812-78.425,11.961c19.517,1.368,85.517-11.961,85.517-11.961S442,436.648,438.323,411.749Z" transform="translate(-367.42 -290.957)" fill="url(#linear-gradient-21)"/>
    </g>
    <path id="Caminho_839" data-name="Caminho 839" d="M541.163,467.506c-14.669,16.611-35.95,5.539-35.95,5.539-.868-1.409-7.693-5.2-12.9-7.967-3.344-1.771-6.025-3.112-6.025-3.112l10.88-8.767,5.505,2.776,8.206,4.144S555.845,450.9,541.163,467.506Z" transform="translate(-184.156 -165.03)" fill="url(#linear-gradient-22)"/>
    <g id="Grupo_116" data-name="Grupo 116" transform="translate(302.134 288.17)" opacity="0.1">
      <path id="Caminho_840" data-name="Caminho 840" d="M502.675,455.976l-10.36,9.1c-3.344-1.771-6.025-3.112-6.025-3.112l10.88-8.767Z" transform="translate(-486.29 -453.2)" fill="url(#linear-gradient)"/>
    </g>
    <path id="Caminho_841" data-name="Caminho 841" d="M408.094,357.936s18.922,62.293,55.352,71.983l14.19-12.46s-26.541-32.784-27.471-46.386c-.335-5.026-1.908-12.309-3.748-19.442-5.662-21.979-39.021-17.623-38.371,5.033Q408.066,357.293,408.094,357.936Z" transform="translate(-159.417 -128.366)" fill="url(#linear-gradient)"/>
    <path id="Caminho_842" data-name="Caminho 842" d="M354.51,453.891s12.309-9.69,23.655-2.3,27.908,6.462,30.274,6.921" transform="translate(-142.495 -163.643)" opacity="0.05" fill="url(#linear-gradient-25)"/>
    <path id="Caminho_843" data-name="Caminho 843" d="M532.835,422.849c-9.13,19.34-31.54,14.361-31.54,14.361-1.163-1.1-8.411-2.941-13.9-4.213-3.529-.821-6.333-1.368-6.333-1.368l7.7-11,5.772,1.217,8.61,1.812S541.964,403.5,532.835,422.849Z" transform="translate(-182.502 -152.782)" fill="#f7c4a7"/>
    <path id="Caminho_844" data-name="Caminho 844" d="M532.835,422.849c-9.13,19.34-31.54,14.361-31.54,14.361-1.163-1.1-8.411-2.941-13.9-4.213-3.529-.821-6.333-1.368-6.333-1.368l7.7-11,5.772,1.217,8.61,1.812S541.964,403.5,532.835,422.849Z" transform="translate(-182.502 -152.782)" opacity="0.08"/>
    <path id="Caminho_845" data-name="Caminho 845" d="M494.532,424.613l-7.14,11.188c-3.529-.821-6.333-1.368-6.333-1.368l7.7-11Z" transform="translate(-182.502 -155.619)" opacity="0.1"/>
    <path id="Caminho_846" data-name="Caminho 846" d="M383.132,355.05s33.564,53.779,69.494,53.642l9.772-15.318s-32.887-24.085-37.263-36.648c-1.614-4.637-4.944-11.065-8.494-17.329-10.942-19.23-40.348-6.668-33.885,14.47Z" transform="translate(-151.134 -126.048)" fill="#575988"/>
    <path id="Caminho_847" data-name="Caminho 847" d="M383.132,355.05s33.564,53.779,69.494,53.642l9.772-15.318s-32.887-24.085-37.263-36.648c-1.614-4.637-4.944-11.065-8.494-17.329-10.942-19.23-40.348-6.668-33.885,14.47Z" transform="translate(-151.134 -126.048)" opacity="0.05"/>
    <path id="Caminho_848" data-name="Caminho 848" d="M351.78,817.319,353.353,836s51.549-8.781,51.1-26.335S351.78,817.319,351.78,817.319Z" transform="translate(-141.632 -275.759)" fill="#535461"/>
    <path id="Caminho_849" data-name="Caminho 849" d="M351.78,817.319,353.353,836s51.549-8.781,51.1-26.335S351.78,817.319,351.78,817.319Z" transform="translate(-141.632 -275.759)" opacity="0.1"/>
    <path id="Caminho_850" data-name="Caminho 850" d="M439.583,825.989l-.9,16.214s71.586-5.4,68.885-20.707-40.519-6.757-40.519-6.757Z" transform="translate(-169.104 -278.576)" fill="#535461"/>
    <path id="Caminho_851" data-name="Caminho 851" d="M410.72,571.411s-4.233,11.995-9.636,25.768c-5.17,13.171-11.407,27.977-16.03,35.458-9.424,15.312-10.791,62.58-10.791,62.58-1.8,7.652,7.2,22.513,7.2,22.513-18.006,19.36-34.665,8.1-34.665,8.1,3.153-5.854-2.25-22.513-2.25-22.513s7.2-76.989,11.708-80.586,8.1-21.61,8.1-21.61l-4.028-61.2-.923-13.985,38.72-17.561,2.811,13.958,2.735,13.821Z" transform="translate(-139.346 -182.475)" fill="#6a5c99"/>
    <path id="Caminho_852" data-name="Caminho 852" d="M410.72,571.411s-4.233,11.995-9.636,25.768c-5.17,13.171-11.407,27.977-16.03,35.458-9.424,15.312-10.791,62.58-10.791,62.58-1.8,7.652,7.2,22.513,7.2,22.513-18.006,19.36-34.665,8.1-34.665,8.1,3.153-5.854-2.25-22.513-2.25-22.513s7.2-76.989,11.708-80.586,8.1-21.61,8.1-21.61l-4.028-61.2-.923-13.985,38.72-17.561,2.811,13.958,2.735,13.821Z" transform="translate(-139.346 -182.475)" opacity="0.1"/>
    <path id="Caminho_853" data-name="Caminho 853" d="M459.677,726.88c-8.1,14.409-36.47,12.6-36.47,12.6V697.16s-8.1-47.275-3.6-58.08-1.8-30.616-1.8-30.616l-1.532-4.842L397.91,545.6l-5.32-16.823h60.781v7.57c.075,18.006.444,62.662,2.236,73.023,2.25,13.055-4.055,21.61-4.055,21.61s3.6,53.122.451,69.754S459.677,726.88,459.677,726.88Z" transform="translate(-154.533 -188.924)" fill="#6a5c99"/>
    <path id="Caminho_854" data-name="Caminho 854" d="M402.521,239.78s-9.458,26.11-28.366,35.561S405.222,287.5,405.222,287.5s8.1-19.832,26.561-33.769Z" transform="translate(-147.354 -97.56)" fill="#f7c4a7"/>
    <path id="Caminho_855" data-name="Caminho 855" d="M445.065,529.9c-7.536,1.463-20.858,4.035-34.535,6.25-7.153,1.163-14.4,2.229-20.947,3-10.073,1.19-18.505,1.7-22.41.759l-.923-13.985,38.72-17.561,2.824,13.964h37.277S445.044,525.213,445.065,529.9Z" transform="translate(-146.206 -182.472)" opacity="0.1"/>
    <path id="Caminho_856" data-name="Caminho 856" d="M444.41,456.067s-76.086,15.729-85.537,10.8-11.708-17.561-9.006-31.512,0-48.622-4.951-92.745c-2.5-22.219,3-37.127,9.075-46.461a28.722,28.722,0,0,1,24.072-12.993,35.841,35.841,0,0,1,22.69,7.994,16.8,16.8,0,0,0,5.389,3.262c1.238.335,3.1,1.689,5.184,3.522a49.573,49.573,0,0,1,16.488,32.654c.786,8.384,1.607,18.95,2.011,29.632a246.97,246.97,0,0,1-.267,27.354,91.893,91.893,0,0,0,.923,19.955C433.974,431.92,444.41,456.067,444.41,456.067Z" transform="translate(-139.266 -111.274)" fill="#575988"/>
    <path id="Caminho_857" data-name="Caminho 857" d="M450.917,425.561c-27.614-17.226-41.893-65.432-41.893-65.432a10.588,10.588,0,0,0-.048-1.238c-.615-22.1,31.129-26.363,36.518-4.91,1.751,6.989,3.248,14.067,3.563,18.97a20.71,20.71,0,0,0,1.2,5.266,246.956,246.956,0,0,1-.267,27.354,91.889,91.889,0,0,0,.923,19.989Z" transform="translate(-159.711 -129.219)" opacity="0.1"/>
    <path id="Caminho_858" data-name="Caminho 858" d="M410.7,256.556c4.486,7.611,8.042,15.284,17.165,16.577a83.6,83.6,0,0,1,15.476-15.455L414.078,243.72S415.767,248.493,410.7,256.556Z" transform="translate(-160.259 -98.805)" opacity="0.1"/>
    <circle id="Elipse_126" data-name="Elipse 126" cx="29.714" cy="29.714" r="29.714" transform="translate(243.466 112.507)" fill="#f7c4a7"/>
    <path id="Caminho_859" data-name="Caminho 859" d="M456,228.645a5.963,5.963,0,0,0,3.488-.957c1.422-1.06,1.881-2.968,2.2-4.712.773-4.1,1.368-8.48,0-12.46-.889-2.633-2.578-4.9-3.8-7.4-2.674-5.471-3.146-12.009-6.948-16.741-2.38-2.961-10.723,0-14.217-1.5-7.522-3.228-10.75-9.779-18.916-9.772a29.475,29.475,0,0,0-8.89,1.135,31.428,31.428,0,0,0-9.875,5.731c-5.225,4.151-10.313,9.848-9.848,16.508.3,4.254,2.831,7.974,4.322,11.968,2.5,6.688,2.052,14.176.239,21.083-.766,2.941-1.648,6.456.39,8.712a5.781,5.781,0,0,0,5.232,1.5,17.1,17.1,0,0,0,5.232-2.134,35.631,35.631,0,0,0,8.261-5.553c1.566-1.552,2.831-3.378,4.322-5a47.987,47.987,0,0,1,9.827-8.008c2.886-1.771,5.847-.684,8.89.486C442.537,224.049,448.685,228.782,456,228.645Z" transform="translate(-153.451 -77.11)" opacity="0.1"/>
    <path id="Caminho_860" data-name="Caminho 860" d="M455.342,227.975a5.963,5.963,0,0,0,3.488-.944c1.422-1.06,1.881-2.968,2.2-4.712.773-4.1,1.368-8.48,0-12.46-.889-2.633-2.578-4.9-3.8-7.4-2.674-5.471-3.146-12.009-6.948-16.741-2.38-2.961-10.258.458-13.766-1.046-7.522-3.228-11.2-10.258-19.367-10.258a29.474,29.474,0,0,0-8.89,1.135,31.428,31.428,0,0,0-9.875,5.731c-5.225,4.151-10.313,9.848-9.848,16.508.3,4.254,2.831,7.974,4.322,11.968,2.5,6.688,2.052,14.176.239,21.083-.766,2.941-1.648,6.456.39,8.712a5.781,5.781,0,0,0,5.232,1.5,17.1,17.1,0,0,0,5.232-2.134,35.631,35.631,0,0,0,8.261-5.553c1.566-1.552,2.831-3.378,4.322-5a47.985,47.985,0,0,1,9.923-7.981c2.886-1.771,5.847-.684,8.89.486C441.877,223.366,448.025,228.112,455.342,227.975Z" transform="translate(-153.242 -76.892)" fill="#632652"/>
    <path id="Caminho_861" data-name="Caminho 861" d="M439.145,410.676a91.886,91.886,0,0,1-.9-19.935,246.963,246.963,0,0,0,.267-27.354c-.4-10.682-1.224-21.241-2.011-29.632A49.573,49.573,0,0,0,420.017,301.1c-2.086-1.84-3.946-3.187-5.184-3.522a16.8,16.8,0,0,1-5.389-3.262c-6.394-5.225,1.73,4.951,3.823,6.784a49.573,49.573,0,0,1,16.488,32.654c.786,8.384,1.607,18.95,2.011,29.632a246.963,246.963,0,0,1-.267,27.354,91.891,91.891,0,0,0,.923,19.955c3.5,24.3,13.937,48.472,13.937,48.472s-50.934,10.545-74.63,11.673c18.574,1.368,81.379-11.673,81.379-11.673S442.646,434.98,439.145,410.676Z" transform="translate(-147.939 -114.334)" opacity="0.05"/>
    <path id="Caminho_862" data-name="Caminho 862" d="M536.983,465.067c-13.958,16.208-34.193,5.4-34.193,5.4-.821-1.368-7.317-5.081-12.31-7.769-3.18-1.73-5.731-3.036-5.731-3.036L495.1,451.11l5.238,2.735,7.83,4.028S550.941,448.86,536.983,465.067Z" transform="translate(-183.669 -164.37)" fill="#f7c4a7"/>
    <path id="Caminho_863" data-name="Caminho 863" d="M500.362,453.821l-9.861,8.89c-3.18-1.73-5.731-3.036-5.731-3.036l10.354-8.555Z" transform="translate(-183.675 -164.373)" opacity="0.1"/>
    <path id="Caminho_864" data-name="Caminho 864" d="M410.337,358.157s18.006,60.781,52.657,70.232L476.5,416.23s-25.3-31.984-26.144-45.258c-.321-4.9-1.812-11.988-3.57-18.97-5.389-21.446-37.134-17.192-36.511,4.91Q410.31,357.528,410.337,358.157Z" transform="translate(-160.122 -128.594)" fill="#575988"/>
    <path id="Caminho_865" data-name="Caminho 865" d="M359.35,451.778s11.708-9.458,22.513-2.25,26.561,6.305,28.811,6.757" transform="translate(-144.025 -163.013)" opacity="0.05"/>
  </g>
</svg>
