<svg xmlns="http://www.w3.org/2000/svg" xmlns:xlink="http://www.w3.org/1999/xlink" width="768.004" height="580.348" viewBox="0 0 768.004 580.348">
  <defs>
    <linearGradient id="linear-gradient" x1="0.5" y1="1" x2="0.5" gradientUnits="objectBoundingBox">
      <stop offset="0" stop-color="gray" stop-opacity="0.251"/>
      <stop offset="0.54" stop-color="gray" stop-opacity="0.122"/>
      <stop offset="1" stop-color="gray" stop-opacity="0.102"/>
    </linearGradient>
    <linearGradient id="linear-gradient-2" x1="0.5" x2="0.5" y2="0" xlink:href="#linear-gradient"/>
    <linearGradient id="linear-gradient-3" x1="0.5" x2="0.5" y2="0" xlink:href="#linear-gradient"/>
    <linearGradient id="linear-gradient-4" x1="1.096" x2="1.096" y2="0" xlink:href="#linear-gradient"/>
    <linearGradient id="linear-gradient-5" x1="0.5" x2="0.5" y2="0" xlink:href="#linear-gradient"/>
  </defs>
  <g id="undraw_team_spirit_hrr4_1_" data-name="undraw_team_spirit_hrr4 (1)" transform="translate(0.013 -0.004)">
    <path id="Caminho_473" data-name="Caminho 473" d="M43.44,426.65C55.591,474,81.317,514.94,121.976,534.78c84.53,41.239,275.051,19.968,417.264-4.442,73.581-12.63,138.211-47.456,185.187-96.533Z" transform="translate(-35.155 -152.233)" fill="#86a5c0" opacity="0.1"/>
    <path id="Caminho_474" data-name="Caminho 474" d="M798.675,71.661h-78.03c-3.713,0-6.75-2.768-6.75-6.15s3.031-6.15,6.75-6.15h13.5c-3.713,0-6.75-2.768-6.75-6.15s3.031-6.143,6.75-6.143h-9.633c-3.713,0-6.75-2.768-6.75-6.15s3.031-6.15,6.75-6.15h40.726a115.383,115.383,0,0,0-31.768-7.979c-111.053-13.008-150.706-4.408-164.713,4.442a163.437,163.437,0,0,1-57.076,22.81c-68.518,12.887-196.657,28.393-312.8-4.968C141.159,32.5,98.26,60.55,72.54,107.338H812.223c-.965-13.609-3.855-26.179-9.16-37.175A7.075,7.075,0,0,1,798.675,71.661Z" transform="translate(-44.61 -20.14)" fill="#86a5c0" opacity="0.1"/>
    <path id="Caminho_475" data-name="Caminho 475" d="M32.823,280.23a286.182,286.182,0,0,0,3.031,82.62l685.1,22.844a292.4,292.4,0,0,0,47.6-66.155Zm270.946,58.939h-13.5c3.706,0,6.75,2.768,6.75,6.15s-3.038,6.143-6.75,6.143h-78c-3.706,0-6.751-2.761-6.751-6.143s3.038-6.15,6.751-6.15h13.5c-3.706,0-6.751-2.768-6.751-6.15s3.038-6.15,6.751-6.15h-9.646c-3.706,0-6.751-2.761-6.751-6.143s3.038-6.15,6.751-6.15h78.029c3.713,0,6.751,2.768,6.751,6.15s-3.031,6.143-6.751,6.143h9.613c3.713,0,6.751,2.768,6.751,6.15S307.5,339.169,303.769,339.169Z" transform="translate(-31.16 -104.654)" fill="#86a5c0" opacity="0.1"/>
    <path id="Caminho_476" data-name="Caminho 476" d="M799.662,149.94,51.7,166.526c-9.113,21.325-15.141,45.431-17.923,70.422H786.553a269.338,269.338,0,0,0,10.868-44.884A194.429,194.429,0,0,0,799.662,149.94ZM185.647,204.289h-13.5c3.706,0,6.751,2.768,6.751,6.15s-3.038,6.15-6.751,6.15H94.123c-3.706,0-6.751-2.768-6.751-6.15s3.038-6.15,6.751-6.15h13.5c-3.706,0-6.751-2.761-6.751-6.143s3.038-6.15,6.751-6.15H97.978c-3.706,0-6.751-2.768-6.751-6.15s3.038-6.15,6.751-6.15h78.029c3.713,0,6.751,2.768,6.751,6.15s-3.031,6.15-6.751,6.15h9.64c3.706,0,6.751,2.768,6.751,6.15S189.353,204.289,185.647,204.289Z" transform="translate(-32.016 -62.317)" fill="#86a5c0" opacity="0.1"/>
    <ellipse id="Elipse_58" data-name="Elipse 58" cx="50.784" cy="11.402" rx="50.784" ry="11.402" transform="translate(397.677 494.849)" fill="#86a5c0" opacity="0.1"/>
    <ellipse id="Elipse_59" data-name="Elipse 59" cx="91.618" cy="7.52" rx="91.618" ry="7.52" transform="translate(474.849 534.941)" fill="#86a5c0" opacity="0.1"/>
    <ellipse id="Elipse_60" data-name="Elipse 60" cx="91.618" cy="11.402" rx="91.618" ry="11.402" transform="translate(106.992 519.657)" fill="#86a5c0" opacity="0.1"/>
    <ellipse id="Elipse_61" data-name="Elipse 61" cx="68.936" cy="11.402" rx="68.936" ry="11.402" transform="translate(269.362 462.582)" fill="#86a5c0" opacity="0.1"/>
    <ellipse id="Elipse_62" data-name="Elipse 62" cx="55.186" cy="11.402" rx="55.186" ry="11.402" transform="translate(302.359 557.548)" fill="#86a5c0" opacity="0.1"/>
    <path id="Caminho_477" data-name="Caminho 477" d="M544.584,261.6c-1.458-9.815-10.376-32.72-10.376-32.72h0q-.233-1.013-.526-2.025c-6.325-21.737-15.081-23.627-15.081-23.627l-31.363-6.751a2.431,2.431,0,0,1,.675.628,4.36,4.36,0,0,0-.493.074,12.285,12.285,0,0,1-2.747-5.94c-.061-.324-.115-.675-.155-1.006a22.061,22.061,0,0,0-1.8-33.165c-.331-.257-.675-.506-1.006-.743,1.478-1.573,1.526-3.76.419-5.947-2.471-5.13-7.844-8.377-13.366-9.964a22.66,22.66,0,0,0-12.975-.277A46.873,46.873,0,0,0,449,143.294c-4.165,2.079-8.776,3.726-11.888,7.149a3.489,3.489,0,0,0-1.188,2.869,7.741,7.741,0,0,0,1.181,2.086,6.3,6.3,0,0,1,.061,5.225,50.641,50.641,0,0,0-1.937,5.022,5.251,5.251,0,0,0,1.046,5.043,22.22,22.22,0,0,0,1.958,1.35,10.268,10.268,0,0,1,1.87,2.1q1.863,2.5,3.713,5.016a51.671,51.671,0,0,1,4.651,7.068,34.442,34.442,0,0,0,2.876,5.4,8,8,0,0,0,1.235,1.3l-.365-.142a5.623,5.623,0,0,0,4.125,1.681h.189a1.134,1.134,0,0,0,.756-.311c0,.23,0,.459,0,.675.074,2.41.061,4.975-.108,7.385l-.29-.148a2.531,2.531,0,0,0-2.7.284l-28.872,23.168s-6.278,8.587-5.4,23.411l-5.063,22.23s-6.325,18.861-1.458,32.328,7.689,21.17,7.689,21.17,1.944,15.3,4.867,16.552,4.185,1.924,4.185,1.924l.581,3.659h0s.2.358.54.958c2.126,3.7,10,16.755,14.581,15.358a58.527,58.527,0,0,1,.743,10.727l4.53,30.411s3.159,8.269,2.963,12.6,3.686,10.511,3.686,10.511a20.083,20.083,0,0,0-1.944,14.142c1.85,8.1,4.185,45.418,4.185,45.418l3.375,9.046-.095,10.605a10.126,10.126,0,0,1-2.093,4.725c-2.187,2.376-2.025,5.124-7.3,8.371s-8.614,4.476-8.614,8.776a11.285,11.285,0,0,1-.162,1.789c-.486,3.159-1.431,4.874,8.263,5.792a25.558,25.558,0,0,0,18.982-6.345s1.674-3.038,9.559-4.266c0,0,2.7-.142,2.842-2.525.054-.823.04-2.4,0-4.131-.128-3.3-.446-7.156-.864-7.345-.527-.236-1.445-3.558-1.762-4.759h2.194s2.025-15.3,0-25.213-.2-16.937-.2-16.937l-.392-26.172s-2.7-2.889-.581-7.993,0-30.31,0-30.31.783-9.046,3.017-11.165.108-13.251,0-13.832l3.983,13.359s1.748,26.557,5.454,31.363l1.067,12.03s7.588,11.071,6.129,17.031,1.559,27.522,1.559,27.522v22.041s-3.409,8.85,1.35,12.029l2.025-.081c-.675.628-1.195,1.573-1.985,2.39-.911.938-1.431,4.509-1.721,7.581-.243,2.6-.324,4.833-.324,4.833a7.959,7.959,0,0,0,5.839,3.463c3.814.223,16.384,9.781,16.384,9.781s12.414,0,15.627-.675l.189-.047a4.22,4.22,0,0,0,2.424-1.978,5.063,5.063,0,0,0,.581-3.639c-.4-1.9-1.9-3.976-5.238-5.745-8.3-4.374-9.532-8.472-9.532-8.472l-5.448-8.175h.776s-.479-8.661,5.448-18.382l-.385-42.819s2.43-14.723-1.748-22.716c0,0-.344-8.465,2.451-11.064s-3.72-28.865-3.72-28.865-1.35-14.1-2.936-26.968h0c6.568,6.231,13.38-16.2,14.527-20.191h.169l-.074-.29c.047-.189.074-.284.074-.284h0s-1.458-5.184-.392-4.131,3.7-2.889,3.7-2.889-.391-21.46,4.185-32.274S544.584,261.6,544.584,261.6Zm-19.577,13.656.034-.061c.675,13.1-.128,41.063-.128,41.063s-.9,3.585-1.87,7.8l-.675-26.563h0l-.675-25.024Zm-83.781-9.032s3.308,41.374,0,47.342a31.255,31.255,0,0,0-2.383,8.175c-1.094-2.869-3.409-9.606-2.579-13.177,1.073-4.617-2.14-16.748-2.14-17.032s-.29-6.751,2.025-11.692.8-7.081.8-7.081S438.891,264.662,441.226,266.228Z" transform="translate(-154.772 -58.864)" fill="url(#linear-gradient)"/>
    <path id="Caminho_478" data-name="Caminho 478" d="M459.034,455.462c-2.882,12.671-14.345-6.487-16.957-11.084-.338-.6-.527-.952-.527-.952l1.242-5.826,6.568-2.7a18.344,18.344,0,0,1,2.943,1.917C455.9,439.646,461.255,445.647,459.034,455.462Z" transform="translate(-164.519 -154.913)" fill="#d38884"/>
    <path id="Caminho_479" data-name="Caminho 479" d="M590.087,433.087a.885.885,0,0,1-.074.284,1.439,1.439,0,0,1-.088.3c-1.127,3.956-7.81,26.226-14.264,20.042-7.061-6.751-3.632-22.358-3.632-22.358h.047l14.851-1.519,2.943,3.024h0Z" transform="translate(-206.647 -153.269)" fill="#d38884"/>
    <path id="Caminho_480" data-name="Caminho 480" d="M542.722,543.507l.378,42.528c-5.826,9.653-5.346,18.226-5.346,18.226l-19.2.756c-4.685-3.153-1.35-11.935-1.35-11.935v-21.9s-2.963-21.393-1.532-27.319-6.015-16.876-6.015-16.876L508.6,515.047c-3.632-4.773-5.353-31.133-5.353-31.133l-3.9-13.312c.108.574,2.133,11.685,0,13.731s-2.963,11.078-2.963,11.078,2.1,25.031,0,30.087.567,7.932.567,7.932l.385,25.983a40.632,40.632,0,0,0,.189,16.809c2,9.836,0,25.031,0,25.031h-20.6l.095-10.605-3.335-8.978s-2.3-37.06-4.111-45.087a20.143,20.143,0,0,1,1.9-14.041s-3.814-6.109-3.625-10.409-2.943-12.5-2.943-12.5l-4.442-30.182a58.633,58.633,0,0,0-2.2-17.194c-2.579-8.6-6.4-19.874-6.4-19.874l4.314.385,21.764,1.937s52.917-3.557,55.287-.6a9.93,9.93,0,0,1,1,3.085c2.376,10.673,5.515,44.108,5.515,44.108s6.4,26.077,3.652,28.656S541,520.927,541,520.927C545.118,528.859,542.722,543.507,542.722,543.507Z" transform="translate(-167.876 -154.095)" fill="#444053"/>
    <path id="Caminho_481" data-name="Caminho 481" d="M501.321,696.692c-.148,2.369-2.788,2.511-2.788,2.511-7.736,1.215-9.383,4.226-9.383,4.226a24.848,24.848,0,0,1-18.625,6.305c-9.518-.918-8.594-2.613-8.1-5.752a11.909,11.909,0,0,0,.155-1.769c0-4.3,3.294-5.522,8.452-8.776s5.016-5.947,7.162-8.31,2.369-6.946,2.369-6.946c2.43-4.233,8.593.675,8.593.675.29,1.5,9.451,1.289,9.451,1.289s1.215,4.874,1.843,5.157c.412.189.722,4.01.844,7.291C501.362,694.315,501.375,695.875,501.321,696.692Z" transform="translate(-171.211 -233.408)" fill="#b07473"/>
    <path id="Caminho_482" data-name="Caminho 482" d="M501.321,704.464c-.148,2.369-2.788,2.511-2.788,2.511-7.736,1.215-9.383,4.226-9.383,4.226a24.847,24.847,0,0,1-18.625,6.305c-9.518-.918-8.594-2.612-8.1-5.751,4.253,1.053,12.38,2.525,17.126-.054,6.6-3.578,11.327-6.075,11.327-6.075L501.3,700.38C501.362,702.088,501.375,703.647,501.321,704.464Z" transform="translate(-171.211 -241.18)" opacity="0.1"/>
    <path id="Caminho_483" data-name="Caminho 483" d="M587.453,710.759a4.117,4.117,0,0,1-2.376,1.964l-.182.047c-3.153.675-15.337.675-15.337.675s-12.32-9.525-16.046-9.741a7.836,7.836,0,0,1-5.731-3.443s.074-2.214.311-4.793c.29-3.051.8-6.6,1.694-7.527,1.647-1.721,2.025-4.05,5.731-2.579,0,0,5.292-9.329,11.53-2.12l6.453,9.788s1.215,4.05,9.39,8.445c3.267,1.755,4.725,3.821,5.137,5.7A5.03,5.03,0,0,1,587.453,710.759Z" transform="translate(-199.038 -234.723)" fill="#b07473"/>
    <path id="Caminho_484" data-name="Caminho 484" d="M587.453,717.96c-.729.614-1.532,1.276-2.376,1.964l-.182.047c-3.153.675-15.337.675-15.337.675s-12.32-9.525-16.046-9.741a7.836,7.836,0,0,1-5.731-3.443s.074-2.214.311-4.793c3.794,1.134,9.539,3.139,11.078,5.3,2.363,3.288,9.539,7.878,9.539,7.878s13.38-1.289,19.32-1.465A5.03,5.03,0,0,1,587.453,717.96Z" transform="translate(-199.038 -241.924)" opacity="0.1"/>
    <path id="Caminho_485" data-name="Caminho 485" d="M512.244,220.745,494.625,239.37S473.273,237.8,477,231.492c1.9-3.213,2.194-9.937,2.025-15.783-.155-5.637-.736-10.436-.736-10.436s29.945-14.905,27.677-1.006a22.875,22.875,0,0,0-.081,7.932C507.161,219.219,512.244,220.745,512.244,220.745Z" transform="translate(-175.896 -78.044)" fill="#d38884"/>
    <path id="Caminho_486" data-name="Caminho 486" d="M506.77,204.267a22.878,22.878,0,0,0-.081,7.932,21.979,21.979,0,0,1-15.675,6.541c-4.05,0-8.431-3.328-11.705-5.252-.155-5.643-.189-8.215-.189-8.215S509.065,190.368,506.77,204.267Z" transform="translate(-176.727 -78.044)" opacity="0.1"/>
    <path id="Caminho_487" data-name="Caminho 487" d="M508.174,183.551a22.068,22.068,0,1,1-8.3-17.241A22.067,22.067,0,0,1,508.174,183.551Z" transform="translate(-171.826 -66.07)" fill="#d38884"/>
    <path id="Caminho_488" data-name="Caminho 488" d="M535.852,437.365c-5.495,13.076-40.841,13.346-40.841,13.346V436.454l-2.14-.142c.925,4.084-1.3,14.041-1.3,14.041-27.934,3.942-34.745-11.975-34.745-11.975l.972-5.448,21.764,1.937s52.917-3.558,55.287-.6a9.93,9.93,0,0,1,1,3.1Z" transform="translate(-169.484 -154.273)" opacity="0.1"/>
    <path id="Caminho_489" data-name="Caminho 489" d="M495.011,382.262V368l-2.14-.135c.925,4.05-1.3,14.041-1.3,14.041-21.021,2.963-30.08-5.313-33.273-9.592a13.062,13.062,0,0,1-1.472-2.376l8.533-48,2.025-70.638,3.058-12.394.709-5.947V232.9h.074l2.174.932,13.008,5.623L501.188,228.3l.216-.155.736-.56,1.222.979L506.4,231,516.14,293.9s16.876,48.435,20.036,67.985c.128.783.23,1.512.311,2.194C538.572,381.931,495.011,382.262,495.011,382.262Z" transform="translate(-169.484 -87.546)" fill="#86a5c0"/>
    <circle id="Elipse_63" data-name="Elipse 63" cx="1.256" cy="1.256" r="1.256" transform="translate(317.251 152.044)" fill="#67647e"/>
    <circle id="Elipse_64" data-name="Elipse 64" cx="1.256" cy="1.256" r="1.256" transform="translate(317.831 163.506)" fill="#67647e"/>
    <circle id="Elipse_65" data-name="Elipse 65" cx="1.256" cy="1.256" r="1.256" transform="translate(319.087 182.063)" fill="#67647e"/>
    <circle id="Elipse_66" data-name="Elipse 66" cx="1.256" cy="1.256" r="1.256" transform="translate(321.159 202.052)" fill="#67647e"/>
    <circle id="Elipse_67" data-name="Elipse 67" cx="1.256" cy="1.256" r="1.256" transform="translate(322.415 220.818)" fill="#67647e"/>
    <circle id="Elipse_68" data-name="Elipse 68" cx="1.256" cy="1.256" r="1.256" transform="translate(323.671 240.806)" fill="#67647e"/>
    <circle id="Elipse_69" data-name="Elipse 69" cx="1.256" cy="1.256" r="1.256" transform="translate(323.171 260.579)" fill="#67647e"/>
    <path id="Caminho_490" data-name="Caminho 490" d="M471.988,331.391s-1.4,18.382-3.983,23.728-3.726,20.346-3.726,20.346l-5.988-.675a13.063,13.063,0,0,1-1.472-2.376l8.533-48,2.025-70.638,3.065-12.4.709-5.947.081-.034a2.417,2.417,0,0,1,2.133.034l.284.148q-.128.365-.243.749c-2.336,7.311-3.206,20.785-3.206,20.785s3.375,24.646,3.726,36.109S471.988,331.391,471.988,331.391Z" transform="translate(-169.481 -90.011)" opacity="0.1"/>
    <path id="Caminho_491" data-name="Caminho 491" d="M452.3,436.837a3.458,3.458,0,0,1-.229.446c-2.322,3.922-8.209,6.413-10,7.095-.338-.6-.527-.952-.527-.952l1.242-5.826,6.568-2.7a18.352,18.352,0,0,1,2.943,1.937Z" transform="translate(-164.519 -154.913)" opacity="0.1"/>
    <path id="Caminho_492" data-name="Caminho 492" d="M427.339,298.81l-5.448,3.247-4.962,22.068s-6.211,18.719-1.438,32.092,7.547,21.028,7.547,21.028,1.91,15.189,4.779,16.431,4.1,1.91,4.1,1.91l.574,3.632s7.777-2.639,10.524-7.291-2.025-16.2-2.025-16.2-4.1-9.842-3.051-14.426-2.106-16.62-2.106-16.876-.284-6.69,2.025-11.611.77-7.021.77-7.021l-1.438-14.041Z" transform="translate(-155.465 -110.692)" fill="#67647e"/>
    <path id="Caminho_493" data-name="Caminho 493" d="M557.487,366.737s-14.426,5.441-19.01.675-4.111-27.13-4.111-27.13-4.388-41.266-7.162-48.044-1.35-55.692-1.35-55.692-1.863-6.325-3.49-7.979a1.771,1.771,0,0,0-.344-.277l.56.122,1.958.419,3.038,2.437,9.741,62.908s16.876,48.435,20.036,67.985Z" transform="translate(-190.667 -87.776)" opacity="0.1"/>
    <path id="Caminho_494" data-name="Caminho 494" d="M590.481,433.654h-.162c-1.816.236-17.842,2.174-17.909-1.161a9.749,9.749,0,0,1,.061-1.154l14.851-1.519,2.943,3.024h0c.054.2.095.365.135.5Z" transform="translate(-207.041 -153.263)" opacity="0.1"/>
    <path id="Caminho_495" data-name="Caminho 495" d="M575.1,266.07l10.531,5.495s8.776,22.722,10.18,32.463c0,0,6.5,26.1,2.025,36.831s-4.1,32.038-4.1,32.038-2.579,3.915-3.632,2.869.385,4.1.385,4.1-18,2.39-18.078-1.148,4.131-20.441,4.131-20.441,1.148-40.213-.479-46.518S575.1,266.07,575.1,266.07Z" transform="translate(-207.041 -100.053)" fill="#67647e"/>
    <path id="Caminho_496" data-name="Caminho 496" d="M525.712,329.52s-5.927,14.514-7.837,15.472.385,4.773.385,4.773S529.053,334.677,525.712,329.52Z" transform="translate(-189.073 -120.671)" opacity="0.1"/>
    <path id="Caminho_497" data-name="Caminho 497" d="M520.159,254.1c.068-.277-7.068,7-8.978,8.1S518.155,262.129,520.159,254.1Z" transform="translate(-187.059 -96.159)" opacity="0.1"/>
    <path id="Caminho_498" data-name="Caminho 498" d="M490.568,327.82s-10.889,7.041-9.451,9.829S490.568,327.82,490.568,327.82Z" transform="translate(-177.334 -120.118)" opacity="0.1"/>
    <path id="Caminho_499" data-name="Caminho 499" d="M524.47,480.07s9.268,5.961,23.688,7.426Z" transform="translate(-191.464 -169.591)" opacity="0.1"/>
    <path id="Caminho_500" data-name="Caminho 500" d="M491.5,501.3s8.593,10.8,12.516,11.078S491.5,501.3,491.5,501.3Z" transform="translate(-180.75 -176.49)" opacity="0.1"/>
    <path id="Caminho_501" data-name="Caminho 501" d="M504.339,564c-.385.189-4.874,9.741-9.451,10.031S504.339,564,504.339,564Z" transform="translate(-181.553 -196.864)" opacity="0.1"/>
    <path id="Caminho_502" data-name="Caminho 502" d="M568.33,594.864s8.519-1.91,10.416,4.2C578.746,599.042,578.172,597.132,568.33,594.864Z" transform="translate(-205.716 -206.801)" opacity="0.1"/>
    <path id="Caminho_503" data-name="Caminho 503" d="M559.84,646.4s10.322-2.106,12.516.763S559.84,646.4,559.84,646.4Z" transform="translate(-202.957 -223.398)" opacity="0.1"/>
    <path id="Caminho_504" data-name="Caminho 504" d="M511.711,654c0,.094-10.5,2.106-10.126,3.443s11.206,1.148,11.591-.959A2.025,2.025,0,0,0,511.711,654Z" transform="translate(-184.024 -226.109)" opacity="0.1"/>
    <path id="Caminho_505" data-name="Caminho 505" d="M554.75,667.128s17.261-2.106,16.2,1.526S554.75,667.128,554.75,667.128Z" transform="translate(-201.303 -230.178)" opacity="0.1"/>
    <path id="Caminho_506" data-name="Caminho 506" d="M420.89,352.44c.095.284,11.368,1.816,12.894,5.448,0,0-11.078-5.164-12.826-5.164" transform="translate(-157.806 -128.118)" opacity="0.1"/>
    <path id="Caminho_507" data-name="Caminho 507" d="M440.178,396.16s-9.363,2.964-8.695,7.426S430.532,401.52,440.178,396.16Z" transform="translate(-161.237 -142.325)" opacity="0.1"/>
    <path id="Caminho_508" data-name="Caminho 508" d="M437.92,427.95s3.409-4.678,6.656-3.821S437.92,427.95,437.92,427.95Z" transform="translate(-163.339 -151.38)" opacity="0.1"/>
    <path id="Caminho_509" data-name="Caminho 509" d="M499.887,166.308a5.312,5.312,0,0,1-1.094.817c-2.7,1.573-3.443,4-4.725,6.791-1.195,2.558-2.511,5.265-4.921,6.717-3.112,1.877-7.21,1.188-10.443,2.822a8.1,8.1,0,0,0-4.32,7.986,23.041,23.041,0,0,0,.918,3.659,26.09,26.09,0,0,1,.986,7.945,1.352,1.352,0,0,1,0,.236,22.061,22.061,0,1,1,23.627-36.973Z" transform="translate(-171.842 -66.068)" opacity="0.1"/>
    <path id="Caminho_510" data-name="Caminho 510" d="M494.01,153.5c-2.423-5.09-7.7-8.317-13.116-9.89a22.029,22.029,0,0,0-12.738-.27,46.727,46.727,0,0,0-6.663,3.126c-4.091,2.066-8.587,3.7-11.665,7.095a3.555,3.555,0,0,0-1.168,2.849,7.953,7.953,0,0,0,1.154,2.066,6.269,6.269,0,0,1,.061,5.191,47.6,47.6,0,0,0-1.9,4.989,5.249,5.249,0,0,0,1.026,5,18.706,18.706,0,0,0,1.931,1.35,10.16,10.16,0,0,1,1.829,2.079l3.645,4.982a50.533,50.533,0,0,1,4.563,7.014,33.419,33.419,0,0,0,2.822,5.353,6.109,6.109,0,0,0,5.117,2.734.992.992,0,0,0,.81-.385,1.067,1.067,0,0,0,.1-.506,25.91,25.91,0,0,0-.965-7.918,22.851,22.851,0,0,1-.918-3.659,8.134,8.134,0,0,1,4.32-7.986c3.24-1.634,7.338-.945,10.443-2.815,2.417-1.458,3.733-4.165,4.921-6.751,1.3-2.795,2.025-5.218,4.725-6.791S495.353,156.183,494.01,153.5Z" transform="translate(-166.539 -59.906)" fill="#585268"/>
    <path id="Caminho_511" data-name="Caminho 511" d="M501.63,693.06s3.375,4.3,2.5,6.751S501.63,693.06,501.63,693.06Z" transform="translate(-184.042 -238.802)" opacity="0.1"/>
    <path id="Caminho_512" data-name="Caminho 512" d="M569.28,706.162s.749-5.765,3.753-5.819,3.152-.311,5.448.574,4.449,2.255,3.76,2.457-3.949-3.294-7.3-1.505a24.11,24.11,0,0,0-5.664,4.293Z" transform="translate(-206.024 -241.144)" opacity="0.1"/>
    <path id="Caminho_513" data-name="Caminho 513" d="M482.473,249.26l9.451-6.622s-13.825-8.168-15.472-7.021-2.781,11.476-2.781,11.476Z" transform="translate(-174.956 -90.121)" opacity="0.1"/>
    <path id="Caminho_514" data-name="Caminho 514" d="M482.413,248.568l9.451-6.751s-13.825-8.168-15.472-7.021-2.781,12.043-2.781,12.043Z" transform="translate(-174.937 -89.855)" fill="#e1e7ef"/>
    <path id="Caminho_515" data-name="Caminho 515" d="M482.413,248.568l9.451-6.751s-13.825-8.168-15.472-7.021-2.781,12.043-2.781,12.043Z" transform="translate(-174.937 -89.855)" fill="#86a5c0"/>
    <path id="Caminho_516" data-name="Caminho 516" d="M462.4,234.733l-.284-.142a2.45,2.45,0,0,0-2.653.277l-28.352,23s-6.163,8.526-5.306,23.235l16.721,23.688s1.91-8.02,4.2-6.494c0,0,3.247,41.077,0,47s-4.678,28.082-4.678,28.082l10.983,1.242s1.148-15,3.726-20.346,3.983-23.728,3.983-23.728,2.322-26.705,1.937-38.168-3.726-36.109-3.726-36.109S459.884,241.821,462.4,234.733Z" transform="translate(-159.375 -89.737)" fill="#67647e"/>
    <path id="Caminho_517" data-name="Caminho 517" d="M516.22,242.733l-11.78-4.361s15-16.431,16.876-7.318Z" transform="translate(-184.955 -87.78)" opacity="0.1"/>
    <path id="Caminho_518" data-name="Caminho 518" d="M516.22,241.883l-11.78-4.361s15-16.431,16.876-7.318Z" transform="translate(-184.955 -87.504)" fill="#e1e7ef"/>
    <path id="Caminho_519" data-name="Caminho 519" d="M516.22,241.883l-11.78-4.361s15-16.431,16.876-7.318Z" transform="translate(-184.955 -87.504)" fill="#86a5c0"/>
    <path id="Caminho_520" data-name="Caminho 520" d="M521.32,228.116a.675.675,0,0,1,.486.108Z" transform="translate(-190.44 -87.717)" opacity="0.1"/>
    <path id="Caminho_521" data-name="Caminho 521" d="M523,226.424l31.255,6.751s8.6,1.91,14.811,23.5-8.506,48.037-8.506,48.037l-3.247-2.761,1.627,63.043s-14.426,5.441-19.009.675-4.1-27.151-4.1-27.151-4.395-41.259-7.169-48.044-1.35-55.685-1.35-55.685S524.755,226.046,523,226.424Z" transform="translate(-190.986 -87.166)" fill="#67647e"/>
    <path id="Caminho_522" data-name="Caminho 522" d="M565.163,285.8c-.439.405-.952,19.482.958,34a185.326,185.326,0,0,0,5.4,26.172l-2.835-58.169S566.5,284.562,565.163,285.8Z" transform="translate(-204.553 -106.373)" opacity="0.1"/>
    <path id="Caminho_523" data-name="Caminho 523" d="M559.7,261.6c.763.479,4.111,8.4,2.579,11.651S559.7,261.6,559.7,261.6Z" transform="translate(-202.911 -98.6)" opacity="0.1"/>
    <path id="Caminho_524" data-name="Caminho 524" d="M501.959,155.326a17.255,17.255,0,0,0-6.872-7.2,16.343,16.343,0,0,1,5.151,6.076c1.35,2.7.952,5.4-1.674,6.879s-3.443,4-4.725,6.791c-1.195,2.558-2.511,5.265-4.928,6.751-3.105,1.877-7.2,1.181-10.443,2.815a8.155,8.155,0,0,0-4.32,7.993,22.951,22.951,0,0,0,.925,3.652,26.113,26.113,0,0,1,.986,7.945,1.067,1.067,0,0,1-.108.506.966.966,0,0,1-.8.385,4.651,4.651,0,0,1-2.356-.439,5.482,5.482,0,0,0,4.05,1.586.8.8,0,0,0,.9-.891,25.9,25.9,0,0,0-.979-7.945,22.17,22.17,0,0,1-.925-3.659,8.134,8.134,0,0,1,4.32-7.986c3.24-1.634,7.338-.945,10.443-2.815,2.417-1.458,3.733-4.165,4.921-6.751,1.3-2.795,2.025-5.218,4.725-6.791S503.309,158.006,501.959,155.326Z" transform="translate(-174.67 -61.729)" opacity="0.1"/>
    <path id="Caminho_525" data-name="Caminho 525" d="M737.528,247.57c-9.3-.182-17.511-6.751-22.162-14.777a14.85,14.85,0,0,1-2.241-6.325,7.3,7.3,0,0,1,.256-1.512,15.7,15.7,0,0,0,.675-2.315,4.045,4.045,0,0,0,0-.945v-.054a5.585,5.585,0,0,0-2.025-4.543c-1.242-1.168-2.8-2.025-4.1-3.186-4-3.51-5.211-9.14-5.286-14.5v-.284c.047-2.3.23-4.6.209-6.892a28.98,28.98,0,0,0-.169-3.9c-.385-3.247-1.62-6.555-4.172-8.627-6.656-5.4-17.848.223-24.741-4.881-1.674-1.249-3.031-3.092-5.063-3.578a8.529,8.529,0,0,0-4.624.628c-5.076,1.674-10.74,3.875-12.725,8.776-1.134,2.815-.817,6.028-1.856,8.877-.675,1.91-1.964,3.551-2.9,5.36a8.391,8.391,0,0,0-1.08,4.476,5.049,5.049,0,0,0,.331,2.383,6.074,6.074,0,0,0,1.654,2.369,7.872,7.872,0,0,1-.986,1.58c-1.3,1.586-3.287,2.7-4.638,4.28-2.5,2.9-2.4,6.832-1.175,10.234s3.45,6.5,4.982,9.815c.675,1.438,1.188,3.044.506,4.476a12.834,12.834,0,0,1-2.241,2.606,8.188,8.188,0,0,0-2.025,4.523c-15.2,3.47-15.209,15.681-15.209,15.681h0l-8.209,20.643s-1.316,3.477-2.862,8.067l-9.714-1.742,6.751,11.3c-1.276,4.6-2.18,8.87-1.883,11.017,0,0-3.017,14.176,2.349,16.654L625,328.576a7.009,7.009,0,0,0,1.64.736l.479.216a1.269,1.269,0,0,0,1.107,0h.162a1.592,1.592,0,0,0,.675-.1,1.35,1.35,0,0,0,.594-.641.2.2,0,0,1,0-.068l3.544-1.026,3,3.557c1.35.952,2.7,1.775,3.976,2.518l-4.651,46.187s-.749,61.43-3.017,75.43a39.212,39.212,0,0,0-.527,11.125l-.088.149c.56,3.949,2.025,4.725,2.025,4.725v-.054a.443.443,0,0,0,.088.054,39.768,39.768,0,0,1,2.43-5.211v1.013c-.047,5.211-.209,12.509-.749,17.254-.918,8.1,2.349,34.8,2.349,34.8l1.127,24.3a22.466,22.466,0,0,1-2.768,11.84c-2.7,4.854-6.15,11.685-6.4,14.716a3.046,3.046,0,0,0,0,.493h0l-5.792,6.967s-2.261,3.5,2.849,4.908c2.747.763,7.486,0,11.294-.9a7.547,7.547,0,0,0,5.853-7.345,25.99,25.99,0,0,1,4.779-9.174l.952,5.6,6.372,1.58.817-15.337a6.749,6.749,0,0,0,.439-2.7h0c1.256-10.909-2.957-9.93-2.957-9.93a.587.587,0,0,1,.2.378l-.2-.371h0c-2.585-5.1-1.35-13.5-1.35-13.5s3.375-24.3,4.53-30.722c.83-4.536.486-19.388.209-27.677a9.9,9.9,0,0,0-.034-1.006c9.883-.128,21.993-.459,30.492-1.283v1l-1.566,57.413a31.521,31.521,0,0,1-2.2,10.679.584.584,0,0,1-.074.2,46.576,46.576,0,0,0-3.112,15.047l-.729,18.226v.506h0c-1.269.486-3.274,1.9-3.328,5.988-.088,5.994,10.477,4,10.477,4,10.558,0,10.646-10.99,10.646-10.99s.331-10.079.837-16.822-1.593-5.259-1.593-5.259l-.162,19.185V552.572l.162-2.437v-.068h0v-.52l1.33-19.786s9.727-32.97,11.233-39.295c1.073-4.5.628-18.037.277-25.524a5.956,5.956,0,0,0-.054-.992c3.017-.27,5.684-.3,6.75-.3h.493s-.5-52.951-1.762-72.906-3.267-38.215-8.3-43.71c-3.038-3.321-7.27-13.575-10.126-21.17a105.906,105.906,0,0,0,18.611,6.075c15.924,3.335,13.744-10.49,13.744-10.49l-1.613-26.145h.108a133.313,133.313,0,0,0-1.755-20.441,60.136,60.136,0,0,0-4.1-14.851c1.728-.675,3.436-1.4,5.11-2.14,4.327-1.91,9.2-4.617,9.822-9.282h-.209a6.025,6.025,0,0,0,.162-1.026Zm-98.713,37.8h0c.034,2.7-.068,7.385-.23,12.563l-5.056-6.751,5.07-8.222ZM706.563,299.083ZM708.67,309.3l-8.425-2.7a37.807,37.807,0,0,1,5.2-6.44l.729-.675-.263.054.405-.371.243-.054-.385.371.459-.095a14.371,14.371,0,0,0,2.869,5.772c3.024,3.3-.83,4.138-.83,4.138Z" transform="translate(-217.937 -69.199)" fill="url(#linear-gradient-2)"/>
    <path id="Caminho_526" data-name="Caminho 526" d="M647.013,715.66l-.986,18.686-6.285-1.573L638.42,725Z" transform="translate(-207.456 -232.55)" fill="#a27772"/>
    <path id="Caminho_527" data-name="Caminho 527" d="M647.013,715.66l-.986,18.686-6.285-1.573L638.42,725Z" transform="translate(-207.456 -232.55)" opacity="0.1"/>
    <path id="Caminho_528" data-name="Caminho 528" d="M716.48,709.764l9.586,1.985,7.108-6.278V687.778l.162-2.417v-.074h0v-.513l1.323-19.664s9.592-32.733,11.084-39.018c1.053-4.455.614-17.9.263-25.335-.142-3.045-.263-5.083-.263-5.083l-21.163-5.124-.446,16.269-1.546,57a31.586,31.586,0,0,1-2.167,10.605l-.074.2a46.385,46.385,0,0,0-3.071,14.932l-.716,18.125v.5Z" transform="translate(-253.856 -205.491)" fill="#cc818c"/>
    <path id="Caminho_529" data-name="Caminho 529" d="M741.45,730.144v.5h0v-.513Z" transform="translate(-261.97 -250.847)" opacity="0.1"/>
    <path id="Caminho_530" data-name="Caminho 530" d="M716.48,764.359l9.586,1.985,7.108-6.278V758.56a2.026,2.026,0,0,1-1.019,1.62l-.1.061a19.1,19.1,0,0,1-10.76,2.126l-3.74-.317a3.5,3.5,0,0,0-.992.243v.5Z" transform="translate(-253.856 -260.086)" opacity="0.1"/>
    <path id="Caminho_531" data-name="Caminho 531" d="M730.5,751.676l.1-.054a2.025,2.025,0,0,0,1.033-1.755l.155-19.043s2.066-1.478,1.566,5.218-.823,16.7-.823,16.7-.081,10.909-10.5,10.909c0,0-10.416,1.985-10.335-3.969s4.3-6.2,4.3-6.2l3.74.324A19.057,19.057,0,0,0,730.5,751.676Z" transform="translate(-252.303 -251.028)" fill="#b07473"/>
    <path id="Caminho_532" data-name="Caminho 532" d="M642.52,708.717c.243,4.3,12.894,1.816,12.894,1.816l8.512-16.525s7.108-5.461,3.551-10.254a7.616,7.616,0,0,1-.52-.817l-.034-.04h0c-.074-.122-.142-.25-.209-.385h0c-2.552-5.063-1.3-13.366-1.3-13.366s3.3-24.14,4.462-30.506c.817-4.5.479-19.246.209-27.495-.108-3.429-.209-5.731-.209-5.731l-21-5.623v6.265c-.047,5.178-.209,12.421-.742,17.133-.9,8.013,2.315,34.549,2.315,34.549l1.114,24.147a22.364,22.364,0,0,1-2.7,11.753c-2.633,4.82-6.075,11.611-6.312,14.615a2.95,2.95,0,0,0-.034.466Z" transform="translate(-229.823 -208.494)" fill="#cc818c"/>
    <path id="Caminho_533" data-name="Caminho 533" d="M642.517,748.74c.243,4.3,12.894,1.816,12.894,1.816l8.512-16.525s7.108-5.461,3.551-10.254a7.643,7.643,0,0,1-.52-.817c-.115,2.5-2.862,8.776-2.862,8.776s-7.027,14.061-9.262,17.281-11.942-.6-12.306-.736A2.955,2.955,0,0,0,642.517,748.74Z" transform="translate(-229.821 -248.517)" opacity="0.1"/>
    <path id="Caminho_534" data-name="Caminho 534" d="M663.692,722.289s4.158-.965,2.916,9.863h0a6.973,6.973,0,0,1-3.288,6.19c-2.977,1.87-7.567,5.893-9.89,13.717h0a7.479,7.479,0,0,1-5.772,7.29c-3.753.878-8.431,1.647-11.138.891-5.043-1.4-2.808-4.874-2.808-4.874L639.5,748.5s10.085,3.969,12.313.743,9.262-17.275,9.262-17.275S664.927,723.2,663.692,722.289Z" transform="translate(-226.801 -248.292)" fill="#b07473"/>
    <path id="Caminho_535" data-name="Caminho 535" d="M728.266,593.52l-.445,16.269c5.637-.547,9.674-1.31,10.362-2.383,1.492-2.309,6.906-3.281,11.51-3.679-.142-3.044-.263-5.083-.263-5.083Z" transform="translate(-257.541 -206.456)" opacity="0.1"/>
    <path id="Caminho_536" data-name="Caminho 536" d="M651.94,608.984a7.722,7.722,0,0,1,2.315-2.795c2.228-1.235,1.985,7.939,1.985,7.939s7.426.068,16.91-.054c-.108-3.429-.209-5.738-.209-5.738l-21-5.616S651.98,605.326,651.94,608.984Z" transform="translate(-232.884 -209.446)" opacity="0.1"/>
    <path id="Caminho_537" data-name="Caminho 537" d="M647.337,541.441s2.484-6.75,4.725-7.952,1.985,7.932,1.985,7.932,54.558.5,57.285-3.719,18.6-3.969,18.6-3.969-.493-52.573-1.735-72.406-3.22-37.945-8.182-43.4c-3.206-3.531-7.77-14.952-10.592-22.567-1.532-4.158-2.552-7.189-2.552-7.189L654.8,391.14l-.425,4.219-5.529,55.3s-.743,61-2.977,74.89S647.337,541.441,647.337,541.441Z" transform="translate(-230.678 -139.729)" fill="#444053"/>
    <g id="Grupo_84" data-name="Grupo 84" transform="translate(414.533 248.441)" opacity="0.1">
      <path id="Caminho_538" data-name="Caminho 538" d="M712.844,537.7c2.7-4.212,18.6-3.969,18.6-3.969s-.493-52.573-1.735-72.406-3.22-37.945-8.182-43.4c-3.22-3.544-7.77-14.952-10.592-22.567-1.289-3.5-2.214-6.19-2.471-6.96l4.05-.23s1.019,3.031,2.558,7.189c2.822,7.615,7.378,19.036,10.585,22.567,4.962,5.454,6.946,23.559,8.182,43.4s1.742,72.406,1.742,72.406-15.87-.243-18.6,3.969c-2.329,3.6-42.474,3.767-54.126,3.733C677.8,541.4,710.738,540.955,712.844,537.7Z" transform="translate(-650.962 -388.17)"/>
      <path id="Caminho_539" data-name="Caminho 539" d="M647.852,603.384c1.006-.56,1.505.992,1.755,2.876a38.929,38.929,0,0,0-2.342,5.076s-1.438-.776-2.025-4.725A9.191,9.191,0,0,1,647.852,603.384Z" transform="translate(-645.24 -458.065)"/>
    </g>
    <path id="Caminho_540" data-name="Caminho 540" d="M667.231,196.149c-3.6,4.914.04,11.9-3.828,16.681-1.276,1.58-3.24,2.7-4.57,4.253-2.464,2.876-2.369,6.784-1.161,10.16s3.375,6.454,4.914,9.748c.675,1.424,1.175,3.024.5,4.442a12.583,12.583,0,0,1-2.214,2.585c-2.484,2.774-2.552,6.629-1.215,9.9s3.888,6.076,6.406,8.843c.992,1.087,2.248,2.288,3.9,2.255a5.4,5.4,0,0,0,2.45-.8,24.977,24.977,0,0,0,11.368-32.6c-2.093-5.016-5.583-9.822-5.616-15.121,0-4.206,2.16-8.222,2.545-12.407.466-5.09-2.545-13.17-8.688-15.391C672.429,191.957,669.06,193.625,667.231,196.149Z" transform="translate(-234.479 -74.908)" fill="#585268"/>
    <path id="Caminho_541" data-name="Caminho 541" d="M667.231,196.149c-3.6,4.914.04,11.9-3.828,16.681-1.276,1.58-3.24,2.7-4.57,4.253-2.464,2.876-2.369,6.784-1.161,10.16s3.375,6.454,4.914,9.748c.675,1.424,1.175,3.024.5,4.442a12.583,12.583,0,0,1-2.214,2.585c-2.484,2.774-2.552,6.629-1.215,9.9s3.888,6.076,6.406,8.843c.992,1.087,2.248,2.288,3.9,2.255a5.4,5.4,0,0,0,2.45-.8,24.977,24.977,0,0,0,11.368-32.6c-2.093-5.016-5.583-9.822-5.616-15.121,0-4.206,2.16-8.222,2.545-12.407.466-5.09-2.545-13.17-8.688-15.391C672.429,191.957,669.06,193.625,667.231,196.149Z" transform="translate(-234.479 -74.908)" opacity="0.1"/>
    <path id="Caminho_542" data-name="Caminho 542" d="M712.408,464.55c-7.216.378-14.007,3.483-20.326,6.993s-12.435,7.486-19.232,9.977" transform="translate(-239.679 -164.548)" opacity="0.1"/>
    <path id="Caminho_543" data-name="Caminho 543" d="M708.5,489.74a29.749,29.749,0,0,0-18.733,9.113c-1.755,1.856-3.267,3.936-5.1,5.718a22.641,22.641,0,0,1-10.045,5.691" transform="translate(-240.257 -172.734)" opacity="0.1"/>
    <path id="Caminho_544" data-name="Caminho 544" d="M707.337,508.91A32.755,32.755,0,0,0,692.27,518c-1.107,1.2-2.113,2.471-3.22,3.666-5.974,6.413-14.412,9.815-22.56,13.035" transform="translate(-237.612 -178.963)" opacity="0.1"/>
    <path id="Caminho_545" data-name="Caminho 545" d="M712.3,242.892a148.141,148.141,0,0,0,1.485,17.227c.675,4.05,1.62,7.7,2.977,9.309,3.969,4.725-19.34,11.037-19.34,11.037L683.66,269.8s10.909-10.045,5.826-19.84S712.3,242.892,712.3,242.892Z" transform="translate(-243.192 -92.408)" fill="#cc818c"/>
    <path id="Caminho_546" data-name="Caminho 546" d="M658.79,395.359h55.051c-1.532-4.158-2.552-7.189-2.552-7.189l-52.074,2.97Z" transform="translate(-235.11 -139.729)" opacity="0.1"/>
    <path id="Caminho_547" data-name="Caminho 547" d="M648.367,356.7h58.858c-1.654-5.92,0-11.395,2.356-15.607a34.493,34.493,0,0,1,6.163-7.993l.4-.371,20.549-4.55,1.107-.243s.169-37.364-13.062-42.495a77.356,77.356,0,0,1-21.163-12.063L685.4,278.991l-13.393-6.751c-4.3,4.624-15.709,2.808-15.709,2.808-18.679,2.147-18.679,16.2-18.679,16.2s10.909,25.456,11.739,25.456S648.367,356.7,648.367,356.7Z" transform="translate(-228.231 -102.058)" fill="#86a5c0"/>
    <path id="Caminho_548" data-name="Caminho 548" d="M675.9,358.641s-12-2.66-16.087-7.311" transform="translate(-235.442 -127.758)" opacity="0.1"/>
    <path id="Caminho_549" data-name="Caminho 549" d="M766.59,341.51l-13.92,11.408a23.712,23.712,0,0,0,.459,2.7l.405-.371,20.549-4.55Z" transform="translate(-265.616 -124.567)" opacity="0.1"/>
    <path id="Caminho_550" data-name="Caminho 550" d="M717.46,383.671s3.045,1.715,7.709,3.969h8c-1.654-5.92,0-11.395,2.356-15.607l-14.1-4.563C726.222,371.932,717.46,383.671,717.46,383.671Z" transform="translate(-254.175 -133.002)" opacity="0.1"/>
    <path id="Caminho_551" data-name="Caminho 551" d="M637.921,293.76l-8.263,4.462-8.1,20.5s-8.431,22.479-7.608,28.433c0,0-2.97,14.055,2.315,16.532l13.771,6.238a1.283,1.283,0,0,0,1.654-1.769c-1.964-3.72-4.125-9.539-.675-12.738l-3.969-8.263,14.345-23.478,4.793-8.1Z" transform="translate(-220.269 -109.051)" fill="#86a5c0"/>
    <path id="Caminho_552" data-name="Caminho 552" d="M677.038,352.468c.715,2.916,3.132,7.426,11.132,9.107l8.776,7.189L706.281,373l3.807,1.721L711.7,363.06l-3.666-2.025-4.273-2.336s-9.64-17.464-24.9-10.126A3.375,3.375,0,0,0,677.038,352.468Z" transform="translate(-241.005 -126.277)" opacity="0.1"/>
    <path id="Caminho_553" data-name="Caminho 553" d="M677.785,351.017c.716,2.923,3.125,7.426,11.125,9.106l8.776,7.189,9.343,4.233,3.8,1.721,1.613-11.658-3.665-2.025-4.239-2.315s-9.646-17.464-24.909-10.092a3.375,3.375,0,0,0-1.843,3.841Z" transform="translate(-241.252 -125.818)" fill="#cc818c"/>
    <circle id="Elipse_70" data-name="Elipse 70" cx="21.325" cy="21.325" r="21.325" transform="translate(432.408 122.956)" opacity="0.1"/>
    <circle id="Elipse_71" data-name="Elipse 71" cx="21.325" cy="21.325" r="21.325" transform="translate(432.408 122.463)" fill="#cc818c"/>
    <path id="Caminho_554" data-name="Caminho 554" d="M719.793,290.153l-6.413-12.461s9.383-3.794,10.065-8.188,8.992,5.151,7.2,8.317S719.793,290.153,719.793,290.153Z" transform="translate(-252.849 -100.799)" opacity="0.1"/>
    <path id="Caminho_555" data-name="Caminho 555" d="M719.793,288.683l-6.413-12.461s9.383-3.794,10.065-8.188,8.992,5.157,7.2,8.317S719.793,288.683,719.793,288.683Z" transform="translate(-252.849 -100.322)" fill="#86a5c0"/>
    <path id="Caminho_556" data-name="Caminho 556" d="M632.821,344.631l35.434,47.639s-13.062,7.108-31.052-5.616l-7.77-9.262L607.25,340Z" transform="translate(-218.363 -124.076)" fill="#f6f8fb"/>
    <path id="Caminho_557" data-name="Caminho 557" d="M634.4,379.322l3.227-.088s19.712-19.131,24.552-9.451S649.9,388.51,649.9,388.51l-5.2,2.808-6.784,2.025-4.341-5.826Z" transform="translate(-226.915 -132.866)" fill="#cc818c"/>
    <path id="Caminho_558" data-name="Caminho 558" d="M637.011,394.588a4.816,4.816,0,0,1,.081,3.335,1.35,1.35,0,0,1-.587.641,1.506,1.506,0,0,1-.675.095,6.784,6.784,0,0,1-4.449-2.2,20.323,20.323,0,0,1-2.883-4.172c-.877-1.532-1.789-3.227-1.478-4.968.351-1.9,2.025-3.213,3.666-4.28,3.267-2.16,3.375.358,4.091,3.139S636.262,391.78,637.011,394.588Z" transform="translate(-224.767 -137.797)" opacity="0.1"/>
    <path id="Caminho_559" data-name="Caminho 559" d="M636.28,394.588a4.855,4.855,0,0,1,.081,3.335,1.35,1.35,0,0,1-.587.641,1.518,1.518,0,0,1-.675.095,6.75,6.75,0,0,1-4.449-2.2,20.087,20.087,0,0,1-2.889-4.172c-.878-1.532-1.789-3.227-1.472-4.968.344-1.9,2.025-3.213,3.659-4.28,3.274-2.16,3.375.358,4.1,3.139S635.524,391.78,636.28,394.588Z" transform="translate(-224.528 -137.797)" fill="#86a5c0"/>
    <path id="Caminho_560" data-name="Caminho 560" d="M623.85,316.6l1.647-2.788-1.438,5.178Z" transform="translate(-202.722 -101.97)" opacity="0.1"/>
    <path id="Caminho_561" data-name="Caminho 561" d="M721.19,378.392l3.8,1.721,1.613-11.658-3.666-2.025C725.47,369.333,723.256,374.7,721.19,378.392Z" transform="translate(-255.387 -132.664)" opacity="0.1"/>
    <path id="Caminho_562" data-name="Caminho 562" d="M735.374,362.849s-12.272.749-17.484-2.6" transform="translate(-254.315 -130.656)" opacity="0.1"/>
    <g id="Grupo_85" data-name="Grupo 85" transform="translate(427.285 171.154)" opacity="0.1">
      <path id="Caminho_563" data-name="Caminho 563" d="M738.9,343.1a34.548,34.548,0,0,1,6.163-8,16.446,16.446,0,0,1,1.816-.986l19.131-3.929,1.107-.243s.169-37.364-13.056-42.495a79.47,79.47,0,0,1-20.63-11.618l1.451-.446a77.15,77.15,0,0,0,21.163,12.063c13.231,5.124,13.056,42.495,13.056,42.495h-1.985l-19.577,3.747s-.844.817-1.1,1.053a37.941,37.941,0,0,0-6.258,8.276,20.751,20.751,0,0,0-1.64,15.688h-2.025C734.881,352.792,736.569,347.317,738.9,343.1Z" transform="translate(-686.649 -274.236)"/>
      <path id="Caminho_564" data-name="Caminho 564" d="M664.13,277.938c.317-.047.621-.095.952-.128a34.23,34.23,0,0,0,4.05.331A36.83,36.83,0,0,1,664.13,277.938Z" transform="translate(-664.13 -275.022)"/>
      <path id="Caminho_565" data-name="Caminho 565" d="M699.87,280.451l-12.11-6.129a6.411,6.411,0,0,0,.675-.641l12.637,6.393Z" transform="translate(-671.808 -273.68)"/>
    </g>
    <path id="Caminho_566" data-name="Caminho 566" d="M755.865,340l8.1,9.923,1.654,26.948s2.147,13.717-13.555,10.409-33.874-13.528-33.874-13.528,8.776-11.739,3.969-16.2l22.486,7.277s3.8-.83.823-4.131-3.5-9.262-3.5-9.262Z" transform="translate(-254.412 -124.076)" fill="#86a5c0"/>
    <path id="Caminho_567" data-name="Caminho 567" d="M779.42,382.17l4.462,5.124a6.433,6.433,0,0,1-4.462-5.124Z" transform="translate(-274.308 -137.779)" opacity="0.1"/>
    <path id="Caminho_568" data-name="Caminho 568" d="M736.99,360.8l6.946,8.924-3.47.83Z" transform="translate(-239.486 -117.239)" opacity="0.1"/>
    <path id="Caminho_569" data-name="Caminho 569" d="M665.411,204.47c-.763-1.87-.176-4.05.742-5.812a45.882,45.882,0,0,0,2.869-5.326c1.02-2.822.709-6.015,1.823-8.776,1.964-4.894,7.547-7.081,12.549-8.776a8.438,8.438,0,0,1,4.563-.621c2.025.479,3.341,2.315,5,3.551,6.791,5.063,17.835-.513,24.4,4.847,2.511,2.025,3.733,5.34,4.111,8.56s0,6.487-.04,9.734c-.108,5.684.958,11.9,5.211,15.668,1.283,1.134,2.795,1.985,4.05,3.159a5.531,5.531,0,0,1,2.025,4.516,15.66,15.66,0,0,1-.675,2.3c-.844,2.964.419,6.075,1.958,8.776,4.59,7.945,12.684,14.493,21.858,14.676-.614,4.631-5.4,7.318-9.687,9.215-5.4,2.423-11.152,4.8-17.1,4.5s-12.151-4.111-13.191-9.971c-.358-2.025-.311-4.462-2.025-5.515-1.053-.641-2.417-.479-3.551-.959-1.64-.675-2.45-2.518-2.99-4.212a37.916,37.916,0,0,1-1.762-10.8c-.074-4.347.5-9.093-1.964-12.671-2.282-3.314-6.332-5-8.965-8.04-2.43-2.822-5.07-6.224-9.052-6.751C680.06,204.956,668.665,212.442,665.411,204.47Z" transform="translate(-237.148 -70.471)" opacity="0.1"/>
    <path id="Caminho_570" data-name="Caminho 570" d="M665.411,203c-.763-1.87-.176-4.05.742-5.812a45.88,45.88,0,0,0,2.869-5.326c1.02-2.822.709-6.015,1.823-8.776,1.964-4.9,7.547-7.088,12.549-8.776a8.437,8.437,0,0,1,4.563-.621c2.025.479,3.341,2.315,5,3.551,6.791,5.063,17.835-.513,24.4,4.847,2.511,2.025,3.733,5.34,4.111,8.566s0,6.48-.04,9.728c-.108,5.684.958,11.9,5.211,15.668,1.283,1.134,2.795,1.985,4.05,3.159a5.531,5.531,0,0,1,2.025,4.516,15.658,15.658,0,0,1-.675,2.3c-.844,2.964.419,6.075,1.958,8.776,4.6,7.918,12.664,14.487,21.838,14.669-.614,4.631-5.4,7.318-9.687,9.221-5.4,2.417-11.152,4.793-17.1,4.489s-12.151-4.111-13.191-9.971c-.358-2.025-.31-4.462-2.025-5.515-1.053-.641-2.417-.479-3.551-.959-1.64-.675-2.45-2.518-2.99-4.212a37.872,37.872,0,0,1-1.762-10.8c-.074-4.347.5-9.093-1.965-12.671-2.282-3.315-6.332-5-8.965-8.04-2.43-2.822-5.07-6.224-9.052-6.751C680.06,203.486,668.665,210.986,665.411,203Z" transform="translate(-237.148 -69.993)" fill="#585268"/>
    <path id="Caminho_571" data-name="Caminho 571" d="M685.975,288.9l12.225-9.923s-8.371-4.536-9.37-8.4-7.7,1.836-7.014,5.306S685.975,288.9,685.975,288.9Z" transform="translate(-242.577 -101.097)" opacity="0.1"/>
    <path id="Caminho_572" data-name="Caminho 572" d="M686.7,286.7l12.225-9.917s-8.371-4.536-9.329-8.4-7.7,1.836-7.014,5.306S686.7,286.7,686.7,286.7Z" transform="translate(-242.827 -100.382)" fill="#86a5c0"/>
    <circle id="Elipse_72" data-name="Elipse 72" cx="0.972" cy="0.972" r="0.972" transform="translate(455.61 183.731)" opacity="0.1"/>
    <circle id="Elipse_73" data-name="Elipse 73" cx="0.972" cy="0.972" r="0.972" transform="translate(455.61 189.131)" opacity="0.1"/>
    <circle id="Elipse_74" data-name="Elipse 74" cx="0.972" cy="0.972" r="0.972" transform="translate(455.61 194.525)" opacity="0.1"/>
    <g id="Grupo_86" data-name="Grupo 86" transform="translate(428.066 110.919)" opacity="0.1">
      <path id="Caminho_573" data-name="Caminho 573" d="M672.279,192.753c.965-2.653.756-5.63,1.661-8.3a9.074,9.074,0,0,0-1.033,1.9c-1.121,2.788-.8,5.981-1.829,8.776l-.067.162a15.422,15.422,0,0,0,1.269-2.538Z" transform="translate(-667.147 -184.45)"/>
      <path id="Caminho_574" data-name="Caminho 574" d="M747.544,266.729c-5.4,2.417-11.152,4.793-17.1,4.489s-12.151-4.111-13.19-9.964c-.358-2.025-.31-4.469-2.025-5.522-1.053-.641-2.417-.479-3.551-.959-1.64-.675-2.45-2.518-2.99-4.212a37.874,37.874,0,0,1-1.762-10.8c-.074-4.341.506-9.086-1.958-12.671-2.288-3.315-6.339-4.989-8.971-8.04-2.43-2.815-5.07-6.224-9.053-6.751-5.461-.743-16.876,6.751-20.1-1.229a6.278,6.278,0,0,1,.209-4.611c-.236.4-.466.8-.675,1.2-.918,1.8-1.5,3.949-.736,5.819,3.247,7.966,14.642.479,20.1,1.229,3.983.54,6.622,3.949,9.052,6.751,2.633,3.051,6.683,4.725,8.965,8.047,2.471,3.578,1.89,8.323,1.964,12.664a37.87,37.87,0,0,0,1.762,10.8c.54,1.7,1.35,3.524,2.99,4.212,1.134.479,2.5.324,3.551.959,1.742,1.053,1.694,3.517,2.025,5.522,1.053,5.853,7.25,9.66,13.19,9.964s11.665-2.066,17.1-4.489c3.915-1.742,8.276-4.152,9.451-8.1C753.917,263.6,750.6,265.372,747.544,266.729Z" transform="translate(-665.288 -191.602)"/>
    </g>
    <path id="Caminho_575" data-name="Caminho 575" d="M901.592,315.675c-14.291-8.222-19.691-10.247-19.718-10.247l-.3-.209a11.888,11.888,0,0,1-3.6-4.55,9.5,9.5,0,0,1,0-.979.415.415,0,0,0,0,.095c.223-4.354,3.321-8.317,6.258-11.773l7.513-8.836a8.709,8.709,0,0,0,1.937-3.065,7.07,7.07,0,0,0,.2-1.883q0-.385,0-.77c-.041-2.194-.1-4.395-.182-6.589-.068-1.917-.56-4.334-2.477-4.725-1-.2-2.322.155-2.849-.675a1.641,1.641,0,0,1-.128-1.141.4.4,0,0,0,0,.095v-.108a25.418,25.418,0,0,0,.709-4.516,6.157,6.157,0,0,0-.311-2.288c-1.107-3.18-4.935-4.489-8.317-5.09s-7.176-1.114-9.3-3.76a27.5,27.5,0,0,0-1.85-2.545,7.3,7.3,0,0,0-3.456-1.708,19.577,19.577,0,0,0-12.576,1.094c-1.634.729-3.274,1.715-5.07,1.607s-3.456-1.4-5.292-1.715c-2.97-.506-5.812,1.674-7.277,4.26a10.416,10.416,0,0,0-1.35,5.022v.3h0a7.344,7.344,0,0,0,1.931,5.13c1.283,1.35,3.186,2.241,3.72,3.99.216.709.162,1.478.358,2.2a1.972,1.972,0,0,0,.081.263l-.095.128a22.277,22.277,0,0,0-4.725,13.731,22.79,22.79,0,0,0,16.012,21.6c0,.223,0,.446,0,.675a9.712,9.712,0,0,1-3.105,7.561L828.1,314.338s-12.2-1.451-16.606,16.384a30.408,30.408,0,0,0-.756,9.046c.162,2.7-.209,7.426-3.375,13.548-5,9.8-3.861,32.3,6.373,34.529,9.66,2.106,13.44,1.229,13.839,1.127v.391c-.162,4.226-1.694,40.638-7.264,45.04-1.539,1.222-1.256,2.025,0,2.6,0,0,0,.236-.034.675-.169,2.7-1.026,12.826-4.725,18.577-4.327,6.683-3.875,45.229-3.875,45.229l-2.95,22.722s1.816,14.034,0,16.485c-1.627,2.181-3.787,54.1-4.239,65.359H804.3a5.481,5.481,0,0,0-4.374,2.7c-2.39,3.882-10.76,11.057-10.76,11.057-1.816,2.579-8.533,5.049-12.083,6.21a7.5,7.5,0,0,0-1.35.594,7.2,7.2,0,0,0-3.051,3.213,3.449,3.449,0,0,0-.324,2.7c.9,2.221,19.786,3.787,24.565,1.553,3.753-1.748,18.631-4.05,24.808-4.955a5.09,5.09,0,0,0,4.415-4.415,2.91,2.91,0,0,0-.567-2.207h0c-1.181-1.465-1.782-5.468-2.025-8.1a5.474,5.474,0,0,0,1.391-.824,59.3,59.3,0,0,1,3.375-23.836c4.55-12.03,5.913-34.306,4.779-48.786,0,0,13.872-59.7,24.795-65.271h0c.169.216,5.468,7.014,6.143,28.069.675,21.386,8.411,35.42,8.411,35.42s-3.416,36.311,0,49.9L867.981,610.5c-.331-.277-.54-.493-.54-.493s.135.594.317,1.546l-.095.459.2.04c.506,2.7,1.255,7.352.945,10.126-.176,1.559-.614,3.7-.911,5.8-.473,3.3-.6,6.5,1.134,7.2,2.849,1.148,19.577,2.7,22.412-.972a5.259,5.259,0,0,0,.824-5.5,5.565,5.565,0,0,0-.824-1.4s-4.442-7.257-3.186-12.374a3.767,3.767,0,0,0-.533-2.937,150.932,150.932,0,0,1,3.828-24c2.849-10.72,8.85-34.225,4.435-49.677h0q-.25-.911-.567-1.782a66.723,66.723,0,0,1-2.5-26.064,53.12,53.12,0,0,1,0-22.722c2.734-12.475,4.644-24.727,4.644-24.727s1.505-16.485.189-26.59a6.635,6.635,0,0,0-.088-.675l.715-.162s-3.868-17.153-5.232-28.069c-.324-2.579-.743-5.839-1.2-9.322a23.794,23.794,0,0,0,3.706-.925c12.279-4.233,16.147-42.528,16.147-42.528V342.6S915.923,323.917,901.592,315.675ZM810.081,611.51c-.378-.189-.6-.317-.6-.317h0Z" transform="translate(-271.967 -91.529)" fill="url(#linear-gradient-3)"/>
    <path id="Caminho_576" data-name="Caminho 576" d="M910.13,627.306c5.326,15.317-.891,40.179-3.78,51.3a155.091,155.091,0,0,0-3.773,24.423,51.436,51.436,0,0,1-19.536-.445l4.665-22.864c-3.335-13.542,0-49.731,0-49.731s-7.547-13.987-8.215-35.3c-.675-20.974-5.826-27.758-5.988-27.968h0c-10.652,5.549-24.194,65.048-24.194,65.048,1.107,14.426-.23,36.628-4.665,48.6a60.078,60.078,0,0,0-3.328,23.748c-1.553,1.35-3.713,1.539-6.076,1.161-6.339-1.026-13.94-6.487-13.94-6.487s2.437-64.805,4.219-67.262,0-16.431,0-16.431l2.882-22.641s-.445-38.411,3.774-45.066c3.645-5.752,4.482-15.864,4.644-18.517v-.675l6.427-7.7s62.159-4.664,66.83,0c1.141,1.141,1.85,3.747,2.268,7.021,1.283,10.072-.189,26.5-.189,26.5s-1.863,12.212-4.53,24.639a54.086,54.086,0,0,0,0,22.648A67.793,67.793,0,0,0,910.13,627.306Z" transform="translate(-287.917 -182.059)" fill="#65617d"/>
    <path id="Caminho_577" data-name="Caminho 577" d="M935.848,810.7c-2.774,3.666-19.091,2.113-21.872.972-1.694-.675-1.566-3.9-1.107-7.183.29-2.086.716-4.219.891-5.772.439-4-1.35-12.1-1.35-12.1s3.659,3.888,4.543,0a4.234,4.234,0,0,1,3.173-3.011,8.289,8.289,0,0,1,5.765.358c2.882,1.256,7.689,3.922,6.831,7.527-1.222,5.1,3.105,12.333,3.105,12.333a5.611,5.611,0,0,1,.81,1.391,5.326,5.326,0,0,1-.79,5.488Z" transform="translate(-317.523 -268.106)" fill="#a27772"/>
    <path id="Caminho_578" data-name="Caminho 578" d="M935.925,820.92c-2.774,3.666-19.091,2.113-21.872.972-1.694-.675-1.566-3.9-1.107-7.183,1.755.823,4.725,1.505,9.7,1.046a27.359,27.359,0,0,1,3.49-.108,81.194,81.194,0,0,0,10.6-.216A5.326,5.326,0,0,1,935.925,820.92Z" transform="translate(-317.6 -278.331)" opacity="0.1"/>
    <path id="Caminho_579" data-name="Caminho 579" d="M856.008,652.915c1.107,14.426-.23,36.628-4.665,48.6a60.078,60.078,0,0,0-3.328,23.748c-1.553,1.35-3.713,1.539-6.076,1.161,1.35-9.363,7.048-49.7,10.7-81.58,4.165-36.3,23.627-61.268,23.627-61.268l3.881,4.273C869.55,593.416,856.008,652.915,856.008,652.915Z" transform="translate(-294.624 -203.227)" opacity="0.1"/>
    <path id="Caminho_580" data-name="Caminho 580" d="M915.482,327.828l-2.7,13.319L899.5,363.457l-16.37-6.994s-22.277-23.31-8.269-26.638a12.4,12.4,0,0,0,4.645-2.066,9.6,9.6,0,0,0,3.625-8.033,24.626,24.626,0,0,0-2.255-9.545l28.636-8.992a45.958,45.958,0,0,0-2.025,11.6c-.223,7.8,2.7,11.645,5.056,13.5A8.6,8.6,0,0,0,915.482,327.828Z" transform="translate(-303.82 -111.465)" fill="#fbbebe"/>
    <path id="Caminho_581" data-name="Caminho 581" d="M914.609,301.19a45.966,45.966,0,0,0-2.025,11.6,21.761,21.761,0,0,1-1.667,1.775,22.655,22.655,0,0,1-22.641,5.164A24.629,24.629,0,0,0,886,310.182Z" transform="translate(-308.941 -111.465)" opacity="0.1"/>
    <path id="Caminho_582" data-name="Caminho 582" d="M911.446,284.861a22.54,22.54,0,1,1-6.6-16.041,22.648,22.648,0,0,1,6.6,16.041Z" transform="translate(-302.491 -98.802)" fill="#fbbebe"/>
    <path id="Caminho_583" data-name="Caminho 583" d="M915.482,339.9l-2.7,13.319L899.5,375.529l-16.37-6.994s-22.277-23.31-8.269-26.638a12.4,12.4,0,0,0,4.645-2.066c-2.525,6.94,7.9,21.379,7.9,21.379,1.215,1.789,4,.675,4,.675,6.717-1.019,19.077-20.333,21.1-23.546a8.6,8.6,0,0,0,2.984,1.559Z" transform="translate(-303.82 -123.537)" opacity="0.1"/>
    <path id="Caminho_584" data-name="Caminho 584" d="M919.882,527.54c-3.942.9-25.753,5.724-34.023,4.516-9.1-1.35-26.793-2.214-26.793-2.214s-11.267.608-14.736-.979v-.675l6.427-7.7s62.159-4.664,66.83,0C918.755,521.66,919.464,524.266,919.882,527.54Z" transform="translate(-295.401 -182.053)" opacity="0.1"/>
    <path id="Caminho_585" data-name="Caminho 585" d="M871.547,361.98s-11.712-16.2-7.3-22.547l-19.786,8.1s-11.908-1.445-16.2,16.329a30.925,30.925,0,0,0-.736,9.019c.162,2.7-.2,7.426-3.261,13.5-4.881,9.768-3.774,32.193,6.217,34.428s13.535,1.107,13.535,1.107-1.35,40.625-7.1,45.289,14.716,3.551,14.716,3.551,17.693.891,26.8,2.221,34.63-4.665,34.63-4.665-3.774-17.092-5.11-27.967S903.5,406.3,903.5,406.3l22.641-30.674s4-18.537-9.991-26.752-19.246-10.227-19.246-10.227-14.055,22.884-21.379,23.991C875.543,362.641,872.762,363.762,871.547,361.98Z" transform="translate(-287.967 -123.637)" fill="#86a5c0"/>
    <path id="Caminho_586" data-name="Caminho 586" d="M855.364,382.74s-.216,7.331,1.114,10.214,6.217,18.9,6.217,18.9h-11.1s5.994-6.44,5.556-9.552S855.364,382.74,855.364,382.74Z" transform="translate(-297.76 -137.964)" opacity="0.1"/>
    <path id="Caminho_587" data-name="Caminho 587" d="M888.83,449.653s-24.518-5.994-26.8-11.1-8.58-16.532-8.58-16.532l2.586-3.483,11.921,9.356s14.176,11.321,20.873,12.434S888.83,449.653,888.83,449.653Z" transform="translate(-298.364 -149.597)" fill="#fbbebe"/>
    <path id="Caminho_588" data-name="Caminho 588" d="M888.83,449.653s-24.518-5.994-26.8-11.1-8.58-16.532-8.58-16.532l2.586-3.483,11.921,9.356s14.176,11.321,20.873,12.434S888.83,449.653,888.83,449.653Z" transform="translate(-298.364 -149.597)" opacity="0.05"/>
    <path id="Caminho_589" data-name="Caminho 589" d="M915.94,421.809v13.3h-2.133a62.164,62.164,0,0,0-30.2,7.823l-4,2.215-1.073.6L871.65,430.22l6.44-5.772h.331c1.573.155,8.384.722,11.273-.25,2.741-.932,6.143-3.882,14.217-1.823,3.976,1.019,7.378,5.475,11.233,4.084Z" transform="translate(-304.278 -150.612)" fill="#fbbebe"/>
    <path id="Caminho_590" data-name="Caminho 590" d="M945.731,378.736l4.435,5v12.1s-3.773,38.181-15.756,42.4-33.388-2.444-33.388-2.444-5.529-14.649-2.943-15.526,22.85-6.237,22.85-6.237-.283-22.4,4.152-29.061c0,0-2.882-20.866,7.108-21.311S945.731,378.736,945.731,378.736Z" transform="translate(-312.642 -131.76)" opacity="0.1"/>
    <path id="Caminho_591" data-name="Caminho 591" d="M946.732,378.736l4.442,5v12.1s-3.774,38.181-15.763,42.4-33.388-2.444-33.388-2.444-5.529-14.649-2.936-15.526,22.851-6.237,22.851-6.237-.29-22.4,4.152-29.061c0,0-2.889-20.866,7.1-21.311S946.732,378.736,946.732,378.736Z" transform="translate(-312.969 -131.76)" fill="#86a5c0"/>
    <path id="Caminho_592" data-name="Caminho 592" d="M907.465,294.435a8.923,8.923,0,0,0-.506-4.327,3.294,3.294,0,0,0-3.524-2.025c-1.9.446-2.7,2.916-4.577,3.51-1.573.5-3.288-.614-4.05-2.079a10.358,10.358,0,0,1-.769-4.833v-5.562c0-2.025-.068-4.2-1.31-5.785-1.546-1.971-5.184-2.835-7.615-2.754a6.46,6.46,0,0,0-4.347,1.748,5.6,5.6,0,0,1-4.57,1.627,3.935,3.935,0,0,1-3.186-2.754v-.068a22.641,22.641,0,1,1,33.658,30.053,61.035,61.035,0,0,0,.8-6.75Z" transform="translate(-304.72 -98.763)" opacity="0.1"/>
    <path id="Caminho_593" data-name="Caminho 593" d="M873.371,266.686a3.969,3.969,0,0,1-3.193-2.761c-.182-.716-.135-1.478-.344-2.187-.52-1.748-2.383-2.653-3.632-3.983-2.5-2.653-2.336-7.014-.567-10.207,1.431-2.572,4.2-4.725,7.1-4.239,1.8.311,3.375,1.586,5.171,1.708s3.375-.871,4.948-1.6a18.645,18.645,0,0,1,12.3-1.094,7.088,7.088,0,0,1,3.375,1.708,29.537,29.537,0,0,1,1.8,2.531c2.066,2.633,5.772,3.153,9.073,3.747s7.034,1.9,8.1,5.076c.722,2.106,0,4.388-.392,6.575a1.985,1.985,0,0,0,.088,1.35c.52.851,1.809.493,2.781.675,1.87.4,2.349,2.808,2.423,4.725q.115,3.281.175,6.568a8.363,8.363,0,0,1-.2,2.43,8.58,8.58,0,0,1-1.883,3.058l-7.331,8.809c-3.254,3.9-6.7,8.452-6.075,13.5-1.539.675-3.375-.641-3.875-2.255a10.085,10.085,0,0,1,.243-5,61.332,61.332,0,0,0,1.175-8.674,8.9,8.9,0,0,0-.506-4.32,3.294,3.294,0,0,0-3.524-2.025c-1.9.446-2.7,2.916-4.577,3.51-1.573.5-3.288-.614-4.05-2.079a10.329,10.329,0,0,1-.769-4.827v-5.569c0-2.025-.068-4.2-1.31-5.785-1.546-1.971-5.184-2.835-7.615-2.754a6.46,6.46,0,0,0-4.341,1.748A5.605,5.605,0,0,1,873.371,266.686Z" transform="translate(-301.895 -92.15)" fill="#7c5c5c"/>
    <path id="Caminho_594" data-name="Caminho 594" d="M885.3,381.92l6.953,28.562S897.734,410.448,885.3,381.92Z" transform="translate(-308.714 -137.698)" opacity="0.1"/>
    <path id="Caminho_595" data-name="Caminho 595" d="M917.423,374.85s-9.1,14.905-5.549,30.323l1.694.122S910.544,398.16,917.423,374.85Z" transform="translate(-317.082 -135.4)" opacity="0.1"/>
    <path id="Caminho_596" data-name="Caminho 596" d="M929,499.438s11.179-3.7,11.989,4.881C941.016,504.319,938.91,498.439,929,499.438Z" transform="translate(-322.914 -175.627)" opacity="0.1"/>
    <path id="Caminho_597" data-name="Caminho 597" d="M871.991,426.81s-2.221,15.526,1.775,21.757a48.687,48.687,0,0,1-19.536,2.667l-1.35-24.423Z" transform="translate(-298.179 -152.285)" opacity="0.1"/>
    <path id="Caminho_598" data-name="Caminho 598" d="M879.609,446.487l-1.073.6-6.886-15.526,6.44-5.772h.331C878.32,426.56,876.524,439.905,879.609,446.487Z" transform="translate(-304.278 -151.953)" opacity="0.1"/>
    <path id="Caminho_599" data-name="Caminho 599" d="M868.9,425.83s-2.221,15.526,1.775,21.75a48.545,48.545,0,0,1-19.536,2.666l-7.77-24.417Z" transform="translate(-295.089 -151.966)" fill="#86a5c0"/>
    <path id="Caminho_600" data-name="Caminho 600" d="M827.41,800.971a5.029,5.029,0,0,1-4.314,4.4c-6.028.9-20.549,3.193-24.214,4.941-4.665,2.221-23.087.675-23.978-1.553a3.524,3.524,0,0,1,.317-2.7,7.116,7.116,0,0,1,2.977-3.2,7.888,7.888,0,0,1,1.35-.594c3.47-1.154,10.024-3.611,11.793-6.19,0,0,8.175-7.149,10.5-11.01a5.333,5.333,0,0,1,4.266-2.66c1.944-.088,4.111.891,5,5.151,0,0,10.646,6.076,13.5.749,0,0,.445,8.182,2.214,10.423h0a2.97,2.97,0,0,1,.581,2.241Z" transform="translate(-272.797 -267.833)" fill="#a27772"/>
    <path id="Caminho_601" data-name="Caminho 601" d="M827.41,808.831a5.029,5.029,0,0,1-4.314,4.4c-6.028.9-20.549,3.193-24.214,4.941-4.665,2.221-23.087.675-23.978-1.553a3.524,3.524,0,0,1,.317-2.7,7.115,7.115,0,0,1,2.977-3.2c3,2.025,9.674,3.942,24.342,1.654,13.994-2.187,20.927-4.327,24.3-5.785h0a2.97,2.97,0,0,1,.567,2.241Z" transform="translate(-272.797 -275.693)" opacity="0.1"/>
    <g id="Grupo_87" data-name="Grupo 87" transform="translate(562.4 160.097)" opacity="0.1">
      <path id="Caminho_602" data-name="Caminho 602" d="M942.45,269.671v-.108a19.885,19.885,0,0,0,.675-5.043,33.288,33.288,0,0,1-.675,4.05A2.46,2.46,0,0,0,942.45,269.671Z" transform="translate(-889.664 -259.646)"/>
      <path id="Caminho_603" data-name="Caminho 603" d="M904.117,288.1a6.419,6.419,0,0,1,.547,2.538,7.656,7.656,0,0,0-.547-3.537,3.281,3.281,0,0,0-3.517-2.025c-1.9.446-2.7,2.916-4.584,3.51-1.566.5-3.281-.614-4.05-2.079a10.271,10.271,0,0,1-.77-4.833v-5.562c0-2.025-.067-4.2-1.31-5.785-1.553-1.978-5.184-2.835-7.615-2.761a6.467,6.467,0,0,0-4.347,1.755,5.609,5.609,0,0,1-4.577,1.627,3.956,3.956,0,0,1-3.186-2.754c-.182-.716-.135-1.485-.344-2.194-.52-1.742-2.383-2.653-3.632-3.976a7.27,7.27,0,0,1-1.87-4.725,7.567,7.567,0,0,0,1.87,5.691c1.249,1.35,3.112,2.234,3.632,3.976.209.675.162,1.478.344,2.194a3.956,3.956,0,0,0,3.186,2.754,5.609,5.609,0,0,0,4.577-1.627,6.467,6.467,0,0,1,4.347-1.755c2.43-.074,6.075.783,7.615,2.761,1.242,1.586,1.3,3.767,1.31,5.785v5.562a10.215,10.215,0,0,0,.77,4.827c.77,1.451,2.464,2.585,4.05,2.086,1.863-.594,2.7-3.065,4.584-3.51A3.409,3.409,0,0,1,904.117,288.1Z" transform="translate(-864.285 -257.3)"/>
      <path id="Caminho_604" data-name="Caminho 604" d="M942.949,293.188a8.532,8.532,0,0,1-1.89,3.051l-7.331,8.809c-3.085,3.706-6.345,8-6.075,12.731.223-4.341,3.247-8.29,6.075-11.732l7.331-8.809a8.532,8.532,0,0,0,1.89-3.051,8.424,8.424,0,0,0,.2-2.437,6.419,6.419,0,0,1-.2,1.438Z" transform="translate(-884.871 -268.494)"/>
      <path id="Caminho_605" data-name="Caminho 605" d="M921.883,327.538a5.192,5.192,0,0,1-.223-1.188,5.984,5.984,0,0,0,.223,2.187c.5,1.607,2.329,2.937,3.875,2.248a9.454,9.454,0,0,1-.081-.972C924.138,330.427,922.355,329.118,921.883,327.538Z" transform="translate(-882.922 -279.738)"/>
    </g>
    <path id="Caminho_606" data-name="Caminho 606" d="M812.69,789.36s2.322,4.05,10.733.486" transform="translate(-285.12 -270.094)" opacity="0.1"/>
    <path id="Caminho_607" data-name="Caminho 607" d="M918,790.82s7.25,8.539,16.39,2.8" transform="translate(-319.34 -270.568)" opacity="0.1"/>
    <path id="Caminho_608" data-name="Caminho 608" d="M946.712,641.23s-5.124,3.2-5.286,5.029,2.646-1.35,2.646-1.35Z" transform="translate(-326.95 -221.96)" opacity="0.1"/>
    <path id="Caminho_609" data-name="Caminho 609" d="M947.832,677.59a10.713,10.713,0,0,1-6.312,2.464c-3.834.169-3.51,5.164-1.006,3.666S947.832,677.59,947.832,677.59Z" transform="translate(-326.044 -233.775)" opacity="0.1"/>
    <path id="Caminho_610" data-name="Caminho 610" d="M951.555,682.34s-2.457,12.077-4.455,9.748" transform="translate(-328.796 -235.318)" opacity="0.1"/>
    <path id="Caminho_611" data-name="Caminho 611" d="M246.92,625.831s15.425,4.233,22.851-1.4,10.646-3.821,10.646-3.821,17.707-.979,19.165-5.164-6.791-19.388-6.791-19.388c-.587-1.35-1.445-3.065-1.829-3.065l.081-6.413h0l2.565-26.833c5.92-15.182.108-34.8.108-34.8l-1.06-4.867a12.313,12.313,0,0,1,1.006-8.1l10.754-21.6a32.331,32.331,0,0,1,2.025-4.145c.675-1.235,1.573-2.761,2.7-4.59.331-.527.675-1.073,1.053-1.647,1.3-2.025,2.882-4.32,4.793-6.967,4.759-6.6,7.264-14.851,8.56-20.927l.574,1.9h.128l.155.034h.257l.277.047h.1l3.308,42.1c.2,16.417,6.231,25.5,6.231,25.5l-.83,36.244c1.134,8.728-1.35,20.366-2.491,25.011l-2.606,5.88a7.068,7.068,0,0,0-3.841,5.346c-.513,4.34-5.083,13.7-5.083,13.7-1.769,2.241-5.61,8.3-5.61,8.3s-1.809,5.846-.689,8.033,10.49,1.964,10.49,1.964c10.7,2.37,18.9-3.375,18.382-7.331s1.667-4.962,1.667-4.962c4.253-1.35,3.841-4.233,3.841-4.233a26.489,26.489,0,0,0-3.22-17.241l-.675,1.559a23.739,23.739,0,0,1,1.283-9.2l-.391.27-.122.074h-.04c.675-5.92,6.892-16.876,6.892-16.876,11.422-20.036,7.27-47.186,7.27-47.186l-1.769-8.465-.1-3.193a106.571,106.571,0,0,1,1.721-22.749c.614-3.321,1.249-7.331,1.735-11.753,1.026-9.343,4.334-18.983,5.859-23.067l.452-.081h.054c.621-.108,1.249-.216,1.883-.338h.121s.365-1.971.675-5.326c.182-2.14.331-4.854.331-7.972a89.7,89.7,0,0,0-4.26-27.751l.344-.493s.817-1.107,2.309-3.024h0c2.741-3.483,7.007-8.776,12.266-14.743,9.417-10.74,6.649-21.6,6.649-21.6s-6.818-24.984-9.856-39.983a45.469,45.469,0,0,0-7.48-17.788,35.4,35.4,0,0,0,.945-7.21c.2-4.442.047-9.073-1.951-13.062s-6.251-7.142-10.693-6.609a4.091,4.091,0,0,1-1.917,0,2.916,2.916,0,0,1-1.262-1.1c-2.6-3.585-2.768-8.4-1.958-12.752s2.471-8.506,3.213-12.867.405-9.2-2.369-12.657c-3.26-4.05-8.944-5.191-13.184-8.236-2.977-2.14-5.211-5.211-8.35-7.108s-6.075-1.175-9.484-.459c-5.731,1.208-11.179,1.762-16.6,4.226A44.209,44.209,0,0,0,291.663,245.4a13.731,13.731,0,0,0-3.227,5.09c-1.35,4.462,1.289,9.215.736,13.832-.391,3.274-2.322,6.123-3.854,9.046s-2.7,6.393-1.5,9.451c1.89,4.779,8.053,5.792,12.536,8.337a3.827,3.827,0,0,1,1.485,1.289c1.107,1.931-1.154,3.936-2.579,5.65a8.513,8.513,0,0,0-1.688,3.429,12.232,12.232,0,0,0-7.338,8.857c-1.519,6.8.817,15.378,2.876,21.048-2.248,12.63.675,17.612,2.828,19.523a10.834,10.834,0,0,1,3.753,7.385v.236c.142,2.3.385,4.584.709,6.865h0c-.074-.533-.148-1.1-.189-1.35-1.762,3.26-5.117,11.591-7.007,25.6a76.947,76.947,0,0,1-1.708,8.917,48.766,48.766,0,0,0-1.431,15.945l.338,4.543a1.431,1.431,0,0,1-.918-.3l2.369,4.341v7.324a27,27,0,0,1-1.8,9.66c-.169.446-.351.891-.547,1.35a7.858,7.858,0,0,0-.8,3.976c-5.1,7.81-16.782,51.581-16.782,51.581-6.339,14.352.52,23.627.52,23.627s3.321,39.956,3.942,42.022,2,26.422,2,26.422h0v1.938a4.542,4.542,0,0,0-1.154-.331c-5.556-.311-7.061,8.465-7.061,8.465l-11.368,10.855s-5.191-.877-12.826,4.854S246.92,625.831,246.92,625.831ZM360.43,394.9l-.034-.122-.31.182h0l-.128.074-.061.04h0l-5.238-18.49a30.7,30.7,0,0,1-.385-15.209l4.05-17.74h0v-4.266L371.2,373.678C372.021,378.3,364.373,389.5,360.43,394.9Z" transform="translate(-98.872 -88.298)" fill="url(#linear-gradient-4)"/>
    <path id="Caminho_612" data-name="Caminho 612" d="M407.065,557s-5.2,12.644-6.521,24.774c-.479,4.374-1.1,8.33-1.708,11.611a106.1,106.1,0,0,0-1.661,22.459l.1,3.153,1.688,8.35s4.05,26.82-7.135,46.579c0,0-6.629,11.834-6.832,17.437l-4.489,1.735-9.073-2.545s4.381-15.709,2.957-26.719l.817-35.778s-5.893-8.951-6.1-25.153l-3.463-44.459Z" transform="translate(-139.855 -194.589)" fill="#fdc2cc"/>
    <path id="Caminho_613" data-name="Caminho 613" d="M337.478,547.62s-1.114,17.335-9.687,29.284-10.4,17.133-10.4,17.133l-10.558,21.345a12.225,12.225,0,0,0-.992,7.986l1.04,4.806s5.711,19.374-.1,34.367l-2.754,28.96H287.922s-1.35-24.066-1.937-26.1-3.875-41.5-3.875-41.5-6.751-9.181-.513-23.35c0,0,14.075-53.025,17.842-52.107S337.478,547.62,337.478,547.62Z" transform="translate(-111.683 -191.541)" fill="#fdc2cc"/>
    <g id="Grupo_88" data-name="Grupo 88" transform="translate(190.712 356.079)" opacity="0.1">
      <path id="Caminho_614" data-name="Caminho 614" d="M316.535,628.208,315.5,623.4a12.151,12.151,0,0,1,.986-8.02l10.558-21.365s1.829-5.2,10.4-17.133c8.229-11.476,9.586-27.92,9.68-29.183l1.64-.081s-1.114,17.335-9.687,29.284-10.4,17.133-10.4,17.133l-10.558,21.345a12.225,12.225,0,0,0-.992,7.986l1.04,4.806s5.711,19.374-.1,34.367l-2.754,28.96H313.68l2.754-28.96C322.246,647.548,316.535,628.208,316.535,628.208Z" transform="translate(-313.68 -547.62)"/>
    </g>
    <path id="Caminho_615" data-name="Caminho 615" d="M390.087,691.383c.2-5.6,6.832-17.437,6.832-17.437,11.219-19.779,7.135-46.579,7.135-46.579l-1.728-8.357-.1-3.153a106.109,106.109,0,0,1,1.661-22.459c.6-3.281,1.222-7.237,1.7-11.611,1.276-11.678,6.143-23.829,6.5-24.72l1.674-.068s-5.2,12.644-6.521,24.774c-.479,4.374-1.1,8.33-1.708,11.611a106.1,106.1,0,0,0-1.661,22.459l.1,3.153,1.688,8.35s4.05,26.82-7.135,46.579c0,0-6.629,11.834-6.832,17.437l-4.489,1.735-.945-.263Z" transform="translate(-146.553 -194.589)" opacity="0.1"/>
    <path id="Caminho_616" data-name="Caminho 616" d="M379.265,754.506a7.8,7.8,0,0,0,7.426-.918,23.965,23.965,0,0,0-.608,13.461c1.836,7.345-17.133-5.914-17.133-5.914L373,751.88S374.573,754.81,379.265,754.506Z" transform="translate(-140.928 -257.915)" fill="#d39999"/>
    <path id="Caminho_617" data-name="Caminho 617" d="M380.682,754.908a7.58,7.58,0,0,0,6.028-1.35,23.964,23.964,0,0,0-.608,13.461c1.836,7.345-17.133-5.913-17.133-5.913l4.05-9.255a5.787,5.787,0,0,0,4.624,2.606C378.691,754.577,379.69,754.719,380.682,754.908Z" transform="translate(-140.934 -257.905)" opacity="0.1"/>
    <path id="Caminho_618" data-name="Caminho 618" d="M289.32,459.342h7.925V414.377L291.3,413.31Z" transform="translate(-94.018 -134.302)" fill="#fdc2cc"/>
    <path id="Caminho_619" data-name="Caminho 619" d="M289.32,459.342h7.925V414.377L291.3,413.31Z" transform="translate(-94.018 -134.302)" opacity="0.05"/>
    <path id="Caminho_620" data-name="Caminho 620" d="M368.119,760.522s5-.311,7.237,4.179l2.754,2.14,1.35-3.159a26.327,26.327,0,0,1,3.119,17.032s.405,2.849-3.774,4.179c0,0-2.14,1.019-1.634,4.894s-7.54,9.586-18.044,7.237c0,0-9.181.209-10.3-1.937s.716-7.851.716-7.851,3.774-5.981,5.5-8.188c0,0,4.489-9.248,5-13.5S365.466,758.172,368.119,760.522Z" transform="translate(-134.271 -260.461)" fill="#7e5659"/>
    <path id="Caminho_621" data-name="Caminho 621" d="M308.155,763.283l.081-6.339s-9.12,2.626-16.505-.344c0,0,.621,6.372-.405,7.243s3.416,9.073,3.416,9.073l4.962,5.2,8.533-3.105,2.315-7.291S308.763,763.283,308.155,763.283Z" transform="translate(-115.654 -259.449)" fill="#d39999"/>
    <path id="Caminho_622" data-name="Caminho 622" d="M308.155,763.283l.081-6.339s-9.12,2.626-16.505-.344c0,0,.621,6.372-.405,7.243s3.416,9.073,3.416,9.073l4.962,5.2,8.533-3.105,2.315-7.291S308.763,763.283,308.155,763.283Z" transform="translate(-115.654 -259.449)" opacity="0.1"/>
    <path id="Caminho_623" data-name="Caminho 623" d="M274.634,763.1s4.847.56,4.233,6.751.257,0,.257,0,5.151,2.086,6.987,5,5.151-2.6,5.4-4.179,2.315-2.234,2.315-2.234,8.1,15.02,6.669,19.151-18.82,5.083-18.82,5.083-3.166-1.782-10.457,3.774-22.432,1.35-22.432,1.35-12.34-5.151-4.84-10.8,12.59-4.793,12.59-4.793l11.165-10.76S269.179,762.786,274.634,763.1Z" transform="translate(-99.522 -261.557)" fill="#7e5659"/>
    <path id="Caminho_624" data-name="Caminho 624" d="M353.216,236.506c3.085,1.87,5.279,4.908,8.2,7.021,4.158,3,9.741,4.125,12.941,8.134,2.7,3.416,3.051,8.188,2.322,12.5s-2.363,8.418-3.153,12.711-.628,9.052,1.924,12.59a2.856,2.856,0,0,0,1.235,1.087,4.05,4.05,0,0,0,1.883,0c4.361-.527,8.546,2.592,10.5,6.528s2.113,8.512,1.91,12.9c-.169,3.6-.574,7.27-2.153,10.511-2.7,5.508-8.317,8.911-13.859,11.516a107.351,107.351,0,0,1-11.064,4.469c-2.592.878-5.326,1.667-8.02,1.208-4.611-.8-7.878-4.989-12.252-6.629-3.585-1.35-7.561-.864-11.375-.527-3.254.284-6.973.277-9.214-2.1-2.876-3.051-1.58-7.972-.108-11.9a8.472,8.472,0,0,1-5.994-13.852c1.391-1.694,3.612-3.672,2.525-5.583a3.7,3.7,0,0,0-1.458-1.269c-4.395-2.511-10.45-3.517-12.3-8.229-1.188-3.031-.041-6.46,1.465-9.343s3.375-5.7,3.787-8.931c.54-4.563-2.025-9.255-.722-13.656a13.69,13.69,0,0,1,3.166-5.036,43.446,43.446,0,0,1,14.176-10.389c5.326-2.437,10.666-2.984,16.3-4.172C347.256,235.345,350.05,234.589,353.216,236.506Z" transform="translate(-120.219 -90.052)" fill="#865a61"/>
    <path id="Caminho_625" data-name="Caminho 625" d="M324.588,337.756s-12.914-.675-15.357,10.335,5.3,26.779,5.3,26.779Z" transform="translate(-121.367 -123.344)" fill="#fdc2cc"/>
    <path id="Caminho_626" data-name="Caminho 626" d="M324.588,337.756s-12.914-.675-15.357,10.335,5.3,26.779,5.3,26.779Z" transform="translate(-121.367 -123.344)" opacity="0.05"/>
    <path id="Caminho_627" data-name="Caminho 627" d="M320,357.674l4.894,3.875,22.837,1.019,14.257-9.788,14.5-24.882c-8.863-2.261-12.448-8.384-13.785-14.109A30.889,30.889,0,0,1,362.42,302s-23.249-12.036-20.393,6.75a25.517,25.517,0,0,1,.216,6.98c-1.35,11-12.029,8.931-12.029,8.931l-4.1,6.319-4.692,15.526Z" transform="translate(-125.022 -110.495)" fill="#fdc2cc"/>
    <path id="Caminho_628" data-name="Caminho 628" d="M352.543,308.724a25.518,25.518,0,0,1,.216,6.98,20.61,20.61,0,0,0,20.461-1.917A30.89,30.89,0,0,1,372.936,302S349.688,289.964,352.543,308.724Z" transform="translate(-135.517 -110.493)" opacity="0.1"/>
    <circle id="Elipse_75" data-name="Elipse 75" cx="20.596" cy="20.596" r="20.596" transform="translate(205.212 165.065)" fill="#fdc2cc"/>
    <path id="Caminho_629" data-name="Caminho 629" d="M333.827,366.3c.5,0,.992.074,1.485.121,2.7.27,13.98.878,20.407-6.8,7.189-8.587,16.762-19.192,17.153-19.624l9.741,2.943s-7.709-2.741-12.826,11.6a14.851,14.851,0,0,0,5.016,17.086,15.433,15.433,0,0,0,6.373,2.7.034.034,0,0,1,0,.034v6.292h0L377.193,398.2a30.424,30.424,0,0,0,.378,15.02l6.075,21.473c-.918.635-38.613,26.273-63.793,8.566h0c.095-.77,3.207-25.969,1.046-38.3a85.179,85.179,0,0,1-1.127-9.532c0-.081,0-.155,0-.236a10.747,10.747,0,0,0-3.693-7.291c-2.268-2.025-5.34-7.426-2.3-21.7a52.425,52.425,0,0,1,3.375-10.281L325.6,336.84h0l7.783.155v.054c-.675.837-9.7,12.111-10.679,19.374C321.744,363.329,320.562,365.449,333.827,366.3Z" transform="translate(-122.587 -123.049)" fill="#86a5c0"/>
    <path id="Caminho_630" data-name="Caminho 630" d="M407.879,349.084s7.615,6.528,10.605,21.345,9.653,39.43,9.653,39.43,2.7,10.74-6.528,21.345-15.364,18.9-15.364,18.9l-6.076,8.951a7.62,7.62,0,0,1-4.374,3.092c-2.768.729-7.021,1.256-10.706-.763a6.237,6.237,0,0,1-2.7-7.878l1.35-3.125s-12.509,7.885-13.6,3.531,14.547-8.7,14.547-8.7,12.914-2.174,15.526-8.29c0,0,13.866-17.815,12.779-23.931L399.6,377.1s-16.748-2.214-11.037-21.028S407.879,349.084,407.879,349.084Z" transform="translate(-141.298 -125.836)" fill="#fdc2cc"/>
    <path id="Caminho_631" data-name="Caminho 631" d="M307.385,527.105s30.593,6.116,37.8,5.3l.776,2.585s11.611,2.6,37.864-1.566q2.572-.4,5.34-.911l.614-.108s.358-1.944.641-5.259c.628-7.527.851-22.1-4.449-37.02l-4.415-13.6s-27.286,16.357-45.35,14.851c-1.613-.135-3.213-.263-4.827-.317-3.706-.142-9.451,0-13.184-2.99l-7.831,1.35V511.7a26.691,26.691,0,0,1-1.769,9.532c-.169.445-.344.884-.54,1.35A7.088,7.088,0,0,0,307.385,527.105Z" transform="translate(-120.885 -168.441)" fill="#65617d"/>
    <path id="Caminho_632" data-name="Caminho 632" d="M364.58,552.421v6.933s13.366,2.99,43.818-2.586c0,0,.358-1.944.641-5.259C399.7,553.009,373.929,556.613,364.58,552.421Z" transform="translate(-139.508 -192.806)" opacity="0.1"/>
    <path id="Caminho_633" data-name="Caminho 633" d="M307.386,548.636s30.593,6.116,37.8,5.3l.776,2.585v-6.933c-3.483,1.445-28.352-4.55-37.364-6.8-.169.445-.344.884-.54,1.35a7.088,7.088,0,0,0-.675,4.5Z" transform="translate(-120.887 -189.972)" opacity="0.1"/>
    <path id="Caminho_634" data-name="Caminho 634" d="M417.31,537.907l2.268,14.068q2.572-.405,5.34-.911c-.709-4.111-2.255-13.5-1.829-15.06l-2.856-2.444Z" transform="translate(-156.642 -186.973)" fill="#65617d"/>
    <path id="Caminho_635" data-name="Caminho 635" d="M417.78,537.457l2.268,14.075q2.572-.412,5.34-.911c-.709-4.111-2.255-13.5-1.829-15.06l-2.855-2.45Z" transform="translate(-156.795 -186.826)" opacity="0.1"/>
    <g id="Grupo_89" data-name="Grupo 89" transform="translate(195.998 308.069)" opacity="0.05">
      <path id="Caminho_636" data-name="Caminho 636" d="M339.2,496.928c-1.607-.135-3.213-.263-4.827-.317-3.6-.135-9.106,0-12.86-2.761l1.31-.229c3.753,2.977,9.451,2.849,13.184,2.99,1.613.054,3.213.182,4.827.317.527.047,1.067.074,1.613.088a30.305,30.305,0,0,1-3.247-.088Z" transform="translate(-321.51 -482.063)"/>
      <path id="Caminho_637" data-name="Caminho 637" d="M405.782,533.414q2.572-.405,5.34-.9l.621-.115s.358-1.944.635-5.259c.635-7.527.857-22.1-4.449-37.02L403.77,477.29c.884-.5,1.35-.79,1.35-.79l4.415,13.6c5.3,14.919,5.076,29.493,4.449,37.02-.284,3.315-.641,5.259-.641,5.259l-.614.115q-2.761.5-5.34.9a168.146,168.146,0,0,1-27.508,2.363A173.486,173.486,0,0,0,405.782,533.414Z" transform="translate(-340.477 -476.5)"/>
      <path id="Caminho_638" data-name="Caminho 638" d="M360.578,559.3v.074H359.7Q360.2,559.34,360.578,559.3Z" transform="translate(-333.92 -503.406)"/>
    </g>
    <ellipse id="Elipse_76" data-name="Elipse 76" cx="1.154" cy="2.376" rx="1.154" ry="2.376" transform="translate(263.314 348.808)" fill="#d39999"/>
    <path id="Caminho_639" data-name="Caminho 639" d="M312.253,456.921c1.863-13.839,5.151-22.061,6.886-25.281.067.439.243,1.863.324,2.3.351,2.025.041,4.577.149,7.149l-1.728,31.3,2.315,9.788c2.174,7.75-5.88,1.627-5.88,1.627-1.667,3.672-4.725,3.267-4.725,3.267l-.419-5.616a48.51,48.51,0,0,1,1.4-15.749A75.029,75.029,0,0,0,312.253,456.921Z" transform="translate(-121.46 -153.854)" fill="#fdc2cc"/>
    <path id="Caminho_640" data-name="Caminho 640" d="M312.253,456.921c1.863-13.839,5.151-22.061,6.886-25.281.067.439.243,1.863.324,2.3.351,2.025.041,4.577.149,7.149l-1.728,31.3,2.315,9.788c2.174,7.75-5.88,1.627-5.88,1.627-1.667,3.672-4.725,3.267-4.725,3.267l-.419-5.616a48.51,48.51,0,0,1,1.4-15.749A75.029,75.029,0,0,0,312.253,456.921Z" transform="translate(-121.46 -153.854)" opacity="0.05"/>
    <path id="Caminho_641" data-name="Caminho 641" d="M410.084,487.426c-1.465,1.9-2.268,2.984-2.268,2.984l-6.075,8.944a7.588,7.588,0,0,1-4.374,3.092c-2.768.729-7.021,1.262-10.706-.763a6.224,6.224,0,0,1-2.7-7.871l1.35-3.132s-12.509,7.885-13.6,3.537,14.547-8.7,14.547-8.7,12.914-2.174,15.526-8.3c0,0,1.127-1.445,2.7-3.659" transform="translate(-141.808 -167.476)" fill="#fdc2cc"/>
    <path id="Caminho_642" data-name="Caminho 642" d="M406.9,511.546s-14.79-1.438-19.475-9.9l-2.147,6.987s15.526,10.72,19.07,9.329Z" transform="translate(-146.234 -176.604)" fill="#65617d"/>
    <path id="Caminho_643" data-name="Caminho 643" d="M406.125,511.443s-14.784-1.438-19.475-9.9l-2.14,6.967s15.526,10.72,19.064,9.329Z" transform="translate(-145.984 -176.568)" opacity="0.1"/>
    <path id="Caminho_644" data-name="Caminho 644" d="M314.6,510.46s-5.178,1.836-6.2.817l2.329,4.287,4.4-3.375Z" transform="translate(-121.252 -179.466)" fill="#65617d"/>
    <path id="Caminho_645" data-name="Caminho 645" d="M314.6,510.46s-5.178,1.836-6.2.817l2.329,4.287,4.4-3.375Z" transform="translate(-121.252 -179.466)" opacity="0.1"/>
    <path id="Caminho_646" data-name="Caminho 646" d="M332.4,528.414V519.47l-2.126,9.161Z" transform="translate(-107.324 -168.799)" opacity="0.1"/>
    <path id="Caminho_647" data-name="Caminho 647" d="M373.159,269.736a7.944,7.944,0,0,1-5.549,2.923,43.721,43.721,0,0,1-6.447,0c-3.375-.054-6.967.466-9.728,2.45a24.735,24.735,0,0,0-4.462,4.725c-4.172,5.1-9.964,9.869-16.539,9.336a4.287,4.287,0,0,1-3.072-1.3,4.928,4.928,0,0,1-.783-2.795,63.884,63.884,0,0,1,.4-12.6,26.554,26.554,0,0,1,1.9-7.513,25.652,25.652,0,0,1,4.577-6.534,28,28,0,0,1,7.986-6.4,14.325,14.325,0,0,1,9.991-1.289c3.936,1.073,7,4.152,10.754,5.738C366.476,258.287,377.858,263.1,373.159,269.736Z" transform="translate(-127.113 -94.95)" opacity="0.1"/>
    <path id="Caminho_648" data-name="Caminho 648" d="M373.159,268.523a7.944,7.944,0,0,1-5.549,2.923,43.717,43.717,0,0,1-6.447,0c-3.375-.061-6.967.459-9.728,2.444a24.73,24.73,0,0,0-4.462,4.725c-4.172,5.1-9.964,9.869-16.539,9.336a4.26,4.26,0,0,1-3.071-1.3,4.908,4.908,0,0,1-.783-2.795,63.884,63.884,0,0,1,.4-12.6,26.558,26.558,0,0,1,1.9-7.513,25.476,25.476,0,0,1,4.577-6.528,27.9,27.9,0,0,1,7.986-6.406,14.325,14.325,0,0,1,9.991-1.289c3.936,1.073,7,4.152,10.754,5.738C366.476,257.074,377.858,261.874,373.159,268.523Z" transform="translate(-127.113 -94.554)" fill="#865a61"/>
    <path id="Caminho_649" data-name="Caminho 649" d="M292.008,473.47l-.054,2.464-.554-2.356Z" transform="translate(-94.694 -153.851)" fill="#fdc2cc"/>
    <path id="Caminho_650" data-name="Caminho 650" d="M292.008,473.47l-.054,2.464-.554-2.356Z" transform="translate(-94.694 -153.851)" opacity="0.05"/>
    <g id="Grupo_90" data-name="Grupo 90" transform="translate(245.731 220.156)" opacity="0.05">
      <path id="Caminho_651" data-name="Caminho 651" d="M398.827,355.059c-5.718,18.814,10.949,21.021,10.949,21.021l13.393,35.893c1.087,6.116-12.786,23.931-12.786,23.931-.965,2.282-3.375,4.017-6.008,5.3a9.41,9.41,0,0,0,3.564-3.915s13.866-17.808,12.779-23.924l-13.393-35.9s-16.66-2.207-10.949-21.021c1.91-6.285,4.725-9.147,7.574-10.173C401.986,347.85,400.183,350.584,398.827,355.059Z" transform="translate(-395.184 -346.27)"/>
    </g>
    <g id="Grupo_91" data-name="Grupo 91" transform="translate(189.968 213.784)" opacity="0.1">
      <path id="Caminho_652" data-name="Caminho 652" d="M401,384.61a14.069,14.069,0,0,0,2.7,2.558,15.344,15.344,0,0,0,6.373,2.7v.709a15.3,15.3,0,0,1-5.779-2.558A14.008,14.008,0,0,1,401,384.61Z" transform="translate(-341.31 -352.356)"/>
      <path id="Caminho_653" data-name="Caminho 653" d="M323.12,421.63v.236a87.177,87.177,0,0,0,1.161,9.565c2.025,11.638-.628,34.745-1.006,37.938-.216-.142-.432-.277-.675-.432.1-.77,3.213-25.969,1.053-38.3a85.55,85.55,0,0,1-1.127-9.532v-.236a10.417,10.417,0,0,0-1.816-5.164,10.5,10.5,0,0,1,2.41,5.92Z" transform="translate(-315.22 -362.462)"/>
      <path id="Caminho_654" data-name="Caminho 654" d="M332.905,337.755l-6.6-.128a.034.034,0,0,0-.034,0L317.831,356.7a52.6,52.6,0,0,0-3.375,10.281c-2.457,11.543-.911,17.295.965,20.137-2.113-2.491-4.293-8.168-1.573-20.927a52.038,52.038,0,0,1,3.342-10.288l8.5-19.077h0l7.783.155v.047C333.411,337.113,333.2,337.37,332.905,337.755Z" transform="translate(-312.577 -336.83)"/>
      <path id="Caminho_655" data-name="Caminho 655" d="M416.39,345.87l.115.034Z" transform="translate(-346.311 -339.768)"/>
      <path id="Caminho_656" data-name="Caminho 656" d="M385.391,344.358l-6.615-1.991h-.034c-.392.432-9.957,11.037-17.146,19.624-6.426,7.675-17.693,7.075-20.407,6.8-.493-.054-.992-.095-1.485-.128-7.378-.473-10.281-1.35-11.253-3.213,1.384,1.35,4.428,2.025,10.639,2.4.5,0,.992.074,1.485.122,2.7.27,13.98.871,20.407-6.8,7.189-8.593,16.762-19.2,17.153-19.631h0l9.626,2.916A6.013,6.013,0,0,0,385.391,344.358Z" transform="translate(-317.735 -338.364)"/>
    </g>
    <path id="Caminho_657" data-name="Caminho 657" d="M291.418,776.931s-9.316,2.545-11.118-1.451" transform="translate(-112.121 -265.584)" opacity="0.1"/>
    <path id="Caminho_658" data-name="Caminho 658" d="M377.979,774.066s-10.8,2.788-13.3-1.526" transform="translate(-139.54 -264.628)" opacity="0.1"/>
    <path id="Caminho_659" data-name="Caminho 659" d="M579.954,756.732c.155-1.35.378-2.7.621-4.05a28.232,28.232,0,0,0-1.35-13.69h0c-.25-.709-.432-1.107-.432-1.107-4.3-1.175-21.251,11.975-27.427,16.93-2.14,0-4.462.094-7,.263-1.107.081-2.214.108-3.321.088h-4.05c-5.731-4.617-23.472-18.5-27.886-17.3,0,0-.182.4-.432,1.107h0a27.74,27.74,0,0,0-1.384,13.69c.243,1.35.466,2.7.621,4.05.331,2.963,1.573,8.654,6.076,12.5.965,7.021,4.577,16.248,7.358,21.851a15.652,15.652,0,0,0,.945,3.085c-1.148,4.428-2.471,10.207-2.093,12.151,0,0-5.995-1.451-6.6,5.765v.223c-2.167.992-4.874,3.267-1.829,8.033a3.126,3.126,0,0,0,1.566,1.276c.54.189,1.067.189,1.013-.567l3.747,4.219s6.791.783,6.872-3.159l.4.061c.911.135,1.863.25,2.842.351l.473,1.559s-5.1-.108-3.706,3.031c0,0,1.283,1.188,1.721.756,0,0-.675,2.059,1.985,2.059,0,0,2.855,1.512,3.969.432s3.422-2.7,3.639-3.375c.061-.182.088-1.782.1-4h.439c5.691.135,11.732-.047,17.227-.344h.445c0,2.4.034,4.165.095,4.354.223.675,2.538,2.275,3.645,3.375s3.963-.432,3.963-.432c2.646,0,1.985-2.059,1.985-2.059.446.432,1.728-.756,1.728-.756,1.391-3.139-3.713-3.031-3.713-3.031l.608-2.025,2.815-.236.446-.04c-.27,4.286,6.865,3.463,6.865,3.463l3.753-4.219c-.061.756.466.756,1.006.567a3.1,3.1,0,0,0,1.519-1.289c4.6-7.189-3.9-8.715-3.9-8.715a4.17,4.17,0,0,0-.8-.128,1.383,1.383,0,0,1,.034-.371h0a14.811,14.811,0,0,0,.054-2.849c-.317-1.3-2.41-3.375-5.056-3.679-1.728-.216-1.762-8.155-1.586-13.656a15.71,15.71,0,0,0,.27-3.132,16.529,16.529,0,0,0-.675-5.016c3.375-5.724,6.075-11.726,6.379-13.5C578.381,765.366,579.623,759.7,579.954,756.732Z" transform="translate(-185.767 -253.337)" fill="url(#linear-gradient-5)"/>
    <path id="Caminho_660" data-name="Caminho 660" d="M577.1,834.978h0c-.27,3.74-.992,9.741-.992,9.741s-3,.365-7.648.783l-3.152.27c-2.417.2-5.13.385-8,.547-5.3.29-11.118.473-16.606.338-2.741-.061-5.4-.2-7.864-.446-1.1-.108-2.167-.236-3.18-.385-6.292-.938-10.8-2.734-11.186-5.886a18.229,18.229,0,0,1-.142-4.05c.587-7.088,6.359-5.657,6.359-5.657-.371-1.958,1.026-8.04,2.16-12.441.716-2.775,1.35-4.881,1.35-4.881l40.584-2.7h.135a1.985,1.985,0,0,1,1.985,2.086c-.243,4.867-.587,16.012,1.4,16.262,2.552.317,4.57,2.336,4.881,3.612A15.152,15.152,0,0,1,577.1,834.978Z" transform="translate(-189.452 -276.869)" fill="#86a5c0"/>
    <path id="Caminho_661" data-name="Caminho 661" d="M539.573,758.857s-15.3,18.422-22.675,13.319c-.175-.122-.344-.243-.506-.371-4.955-3.753-6.258-9.8-6.6-12.873-.149-1.35-.365-2.653-.6-3.969a27.562,27.562,0,0,1,1.35-13.44h0c.243-.675.412-1.087.412-1.087C516.047,739.017,539.573,758.857,539.573,758.857Z" transform="translate(-186.389 -254.172)" fill="#86a5c0"/>
    <path id="Caminho_662" data-name="Caminho 662" d="M531.335,761.116s-4.82,3.375-11.618,8.924a24.563,24.563,0,0,1-3.375,2.322c-4.955-3.753-6.258-9.8-6.6-12.873-.149-1.35-.365-2.653-.6-3.969a27.562,27.562,0,0,1,1.35-13.44h0C520.021,742.742,531.335,761.116,531.335,761.116Z" transform="translate(-186.373 -254.73)" fill="#86a5c0"/>
    <path id="Caminho_663" data-name="Caminho 663" d="M531.335,761.116s-4.82,3.375-11.618,8.924a24.563,24.563,0,0,1-3.375,2.322c-4.955-3.753-6.258-9.8-6.6-12.873-.149-1.35-.365-2.653-.6-3.969a27.562,27.562,0,0,1,1.35-13.44h0C520.021,742.742,531.335,761.116,531.335,761.116Z" transform="translate(-186.373 -254.73)" fill="#fff" opacity="0.5"/>
    <path id="Caminho_664" data-name="Caminho 664" d="M528.645,762.7s-2.572,1.816-6.2,4.766a13.071,13.071,0,0,1-1.782,1.235,9.938,9.938,0,0,1-3.524-6.865c-.074-.715-.189-1.418-.317-2.126a14.756,14.756,0,0,1,.749-7.169h0C522.61,752.891,528.645,762.7,528.645,762.7Z" transform="translate(-188.928 -258.129)" opacity="0.1"/>
    <path id="Caminho_665" data-name="Caminho 665" d="M569.05,758.857s15.3,18.422,22.675,13.319c.169-.122.344-.243.506-.371,4.955-3.753,6.258-9.8,6.6-12.873.148-1.35.365-2.653.594-3.969a27.481,27.481,0,0,0-1.35-13.44h0c-.243-.675-.419-1.087-.419-1.087C592.576,739.017,569.05,758.857,569.05,758.857Z" transform="translate(-205.95 -254.172)" fill="#86a5c0"/>
    <path id="Caminho_666" data-name="Caminho 666" d="M581.22,761.116s4.827,3.375,11.624,8.924a24.538,24.538,0,0,0,3.342,2.322c4.955-3.753,6.258-9.8,6.6-12.873.148-1.35.365-2.653.594-3.969a27.482,27.482,0,0,0-1.35-13.44h0C592.547,742.742,581.22,761.116,581.22,761.116Z" transform="translate(-209.904 -254.73)" fill="#86a5c0"/>
    <path id="Caminho_667" data-name="Caminho 667" d="M581.22,761.116s4.827,3.375,11.624,8.924a24.538,24.538,0,0,0,3.342,2.322c4.955-3.753,6.258-9.8,6.6-12.873.148-1.35.365-2.653.594-3.969a27.482,27.482,0,0,0-1.35-13.44h0C592.547,742.742,581.22,761.116,581.22,761.116Z" transform="translate(-209.904 -254.73)" fill="#fff" opacity="0.5"/>
    <path id="Caminho_668" data-name="Caminho 668" d="M589.05,762.7s2.558,1.809,6.163,4.725a12.359,12.359,0,0,0,1.775,1.229,9.969,9.969,0,0,0,3.5-6.825c.074-.675.189-1.411.317-2.113a14.785,14.785,0,0,0-.709-7.129h0C595.051,752.954,589.05,762.7,589.05,762.7Z" transform="translate(-212.449 -258.146)" opacity="0.1"/>
    <path id="Caminho_669" data-name="Caminho 669" d="M572.894,810.23a36.657,36.657,0,0,1-5.859,7.466c-6.076,5.4-32.308,3.254-34.009,2.977-.358-.061-1.1-1.12-2.025-2.842.716-2.775,1.35-4.881,1.35-4.881Z" transform="translate(-193.585 -276.876)" opacity="0.1"/>
    <path id="Caminho_670" data-name="Caminho 670" d="M548.091,765.342c-1.067.074-2.133.1-3.206.081-5.475-.095-23.917.148-25.963,7.594-2.41,8.776,8.364,32.274,10.058,32.558S556.9,807.985,563,802.6s14.028-22.277,13.6-23.809C576.6,778.789,584.159,762.844,548.091,765.342Z" transform="translate(-189.547 -262.203)" fill="#86a5c0"/>
    <path id="Caminho_671" data-name="Caminho 671" d="M551.094,786.493s-13.5-2.079-19.833,11.206a16.2,16.2,0,0,0,1.195,16.33c2.106,2.963,5.2,5.171,9.5,3.375C551.512,813.468,551.094,786.493,551.094,786.493Z" transform="translate(-193.131 -269.124)" opacity="0.1"/>
    <path id="Caminho_672" data-name="Caminho 672" d="M550.464,785.233s-13.5-2.079-19.833,11.206a16.2,16.2,0,0,0,1.195,16.33c2.106,2.963,5.2,5.171,9.5,3.375C550.882,812.208,550.464,785.233,550.464,785.233Z" transform="translate(-192.926 -268.715)" opacity="0.1"/>
    <path id="Caminho_673" data-name="Caminho 673" d="M550.464,785.863s-13.5-2.079-19.833,11.206a16.2,16.2,0,0,0,1.195,16.33c2.106,2.963,5.2,5.171,9.5,3.375C550.882,812.838,550.464,785.863,550.464,785.863Z" transform="translate(-192.926 -268.919)" fill="#86a5c0"/>
    <path id="Caminho_674" data-name="Caminho 674" d="M550.464,785.863s-13.5-2.079-19.833,11.206a16.2,16.2,0,0,0,1.195,16.33c2.106,2.963,5.2,5.171,9.5,3.375C550.882,812.838,550.464,785.863,550.464,785.863Z" transform="translate(-192.926 -268.919)" fill="#fff" opacity="0.5"/>
    <path id="Caminho_675" data-name="Caminho 675" d="M538.616,803.13s-1.843,1.7-1.134,2.127S538.616,803.13,538.616,803.13Z" transform="translate(-195.639 -274.569)" fill="#3f2b3b"/>
    <path id="Caminho_676" data-name="Caminho 676" d="M541.917,806.35s-1.006,2.221-.29,2.464,1.141-1.593,1.141-1.593Z" transform="translate(-196.955 -275.615)" fill="#3f2b3b"/>
    <path id="Caminho_677" data-name="Caminho 677" d="M535.379,811.32s-.986,2.619,0,2.619S535.379,811.32,535.379,811.32Z" transform="translate(-194.866 -277.23)" fill="#3f2b3b"/>
    <path id="Caminho_678" data-name="Caminho 678" d="M533.78,821.71s1.971,5.036,7.1,4.678" transform="translate(-194.489 -280.606)" fill="none" stroke="#3f2b3b" stroke-miterlimit="10" stroke-width="1"/>
    <path id="Caminho_679" data-name="Caminho 679" d="M540.61,823.91s2.025,1.985,4.246.567" transform="translate(-196.708 -281.321)" fill="none" stroke="#3f2b3b" stroke-miterlimit="10" stroke-width="1"/>
    <path id="Caminho_680" data-name="Caminho 680" d="M564,786.493s13.5-2.079,19.833,11.206a16.2,16.2,0,0,1-1.195,16.33c-2.1,2.963-5.2,5.171-9.5,3.375C563.553,813.468,564,786.493,564,786.493Z" transform="translate(-204.307 -269.124)" opacity="0.1"/>
    <path id="Caminho_681" data-name="Caminho 681" d="M564.589,785.233s13.5-2.079,19.833,11.206a16.2,16.2,0,0,1-1.195,16.33c-2.1,2.963-5.2,5.171-9.5,3.375C564.191,812.208,564.589,785.233,564.589,785.233Z" transform="translate(-204.499 -268.715)" opacity="0.1"/>
    <path id="Caminho_682" data-name="Caminho 682" d="M564.589,785.863s13.5-2.079,19.833,11.206a16.2,16.2,0,0,1-1.195,16.33c-2.1,2.963-5.2,5.171-9.5,3.375C564.191,812.838,564.589,785.863,564.589,785.863Z" transform="translate(-204.499 -268.919)" fill="#86a5c0"/>
    <path id="Caminho_683" data-name="Caminho 683" d="M564.589,785.863s13.5-2.079,19.833,11.206a16.2,16.2,0,0,1-1.195,16.33c-2.1,2.963-5.2,5.171-9.5,3.375C564.191,812.838,564.589,785.863,564.589,785.863Z" transform="translate(-204.499 -268.919)" fill="#fff" opacity="0.5"/>
    <path id="Caminho_684" data-name="Caminho 684" d="M586.16,803.13s1.843,1.7,1.134,2.127S586.16,803.13,586.16,803.13Z" transform="translate(-211.509 -274.569)" fill="#3f2b3b"/>
    <path id="Caminho_685" data-name="Caminho 685" d="M582.81,806.35s1.006,2.221.29,2.464-1.141-1.593-1.141-1.593Z" transform="translate(-210.145 -275.615)" fill="#3f2b3b"/>
    <path id="Caminho_686" data-name="Caminho 686" d="M589.611,811.32s.979,2.619,0,2.619S589.611,811.32,589.611,811.32Z" transform="translate(-212.489 -277.23)" fill="#3f2b3b"/>
    <path id="Caminho_687" data-name="Caminho 687" d="M588.2,821.71s-1.971,5.036-7.1,4.678" transform="translate(-209.865 -280.606)" fill="none" stroke="#3f2b3b" stroke-miterlimit="10" stroke-width="1"/>
    <path id="Caminho_688" data-name="Caminho 688" d="M582.753,823.91s-2.025,1.985-4.253.567" transform="translate(-209.02 -281.321)" fill="none" stroke="#3f2b3b" stroke-miterlimit="10" stroke-width="1"/>
    <path id="Caminho_689" data-name="Caminho 689" d="M553.2,842.266c.358-.067,7.088-2.977,14.028,0Z" transform="translate(-200.799 -286.851)" fill="#3f2b3b"/>
    <path id="Caminho_690" data-name="Caminho 690" d="M529.662,857.727c-6.292-.938-10.8-2.734-11.186-5.886a18.228,18.228,0,0,1-.142-4.05,9.088,9.088,0,0,1,2.4-.878c1.141-.317,2.552-.1,5.529.749s2.761,4.354,3.375,8.924A3.775,3.775,0,0,1,529.662,857.727Z" transform="translate(-189.452 -288.75)" opacity="0.1"/>
    <path id="Caminho_691" data-name="Caminho 691" d="M518.851,847.565s-8.182,1.5-3.753,8.56a3.019,3.019,0,0,0,1.512,1.249c.52.182,1.019.182.965-.56l3.618,4.145s7.223.851,6.589-3.72-.425-8.1-3.375-8.924S520,847.248,518.851,847.565Z" transform="translate(-187.991 -288.964)" fill="#86a5c0"/>
    <path id="Caminho_692" data-name="Caminho 692" d="M524.18,854.67s1.735,3.963,4.145.635" transform="translate(-191.369 -291.316)" fill="none" stroke="#3f2b3b" stroke-miterlimit="10" stroke-width="1"/>
    <path id="Caminho_693" data-name="Caminho 693" d="M518.28,857s.9,3.753,4.3.959" transform="translate(-189.452 -292.073)" fill="none" stroke="#3f2b3b" stroke-miterlimit="10" stroke-width="1"/>
    <path id="Caminho_694" data-name="Caminho 694" d="M601.251,846.867h0c-.27,3.74-.992,9.741-.992,9.741s-3,.365-7.648.783a3.914,3.914,0,0,1,0-.783c.635-4.57.425-8.1,3.375-8.924C598.754,846.935,600.164,846.658,601.251,846.867Z" transform="translate(-213.599 -288.759)" opacity="0.1"/>
    <path id="Caminho_695" data-name="Caminho 695" d="M602.2,847.565s8.188,1.5,3.76,8.56a3.044,3.044,0,0,1-1.512,1.249c-.52.182-1.026.182-.972-.56l-3.612,4.145s-7.23.851-6.588-3.72.425-8.1,3.375-8.924S601.071,847.248,602.2,847.565Z" transform="translate(-213.81 -288.964)" fill="#86a5c0"/>
    <path id="Caminho_696" data-name="Caminho 696" d="M601.645,854.67s-1.742,3.963-4.145.635" transform="translate(-215.194 -291.316)" fill="none" stroke="#3f2b3b" stroke-miterlimit="10" stroke-width="1"/>
    <path id="Caminho_697" data-name="Caminho 697" d="M607.467,857s-.9,3.753-4.307.959" transform="translate(-217.033 -292.073)" fill="none" stroke="#3f2b3b" stroke-miterlimit="10" stroke-width="1"/>
    <path id="Caminho_698" data-name="Caminho 698" d="M546.427,856.844c-2.741-.061-5.4-.2-7.864-.446l-2.45-8.249a5.357,5.357,0,0,1-.223-1.505,5.252,5.252,0,0,1,10.5-.034C546.414,849.823,546.441,853.894,546.427,856.844Z" transform="translate(-195.174 -287.057)" opacity="0.1"/>
    <path id="Caminho_699" data-name="Caminho 699" d="M535.15,848.064l2.889,9.734s-4.914-.108-3.571,2.977c0,0,1.235,1.168,1.661.743,0,0-.641,2.025,1.91,2.025,0,0,2.754,1.492,3.821.425s3.3-2.66,3.517-3.294c.135-.419.094-8.56.047-14.176a5.238,5.238,0,0,0-5.245-5.2h0a5.245,5.245,0,0,0-5.029,6.764Z" transform="translate(-194.637 -286.972)" fill="#86a5c0"/>
    <path id="Caminho_700" data-name="Caminho 700" d="M540.723,869.47s-2.147,2.025-1.013,3.22" transform="translate(-196.308 -296.125)" fill="none" stroke="#3f2b3b" stroke-miterlimit="10" stroke-width="1"/>
    <path id="Caminho_701" data-name="Caminho 701" d="M539.045,867.56a2.915,2.915,0,0,0-1.985,2.491" transform="translate(-195.555 -295.505)" fill="none" stroke="#3f2b3b" stroke-miterlimit="10" stroke-width="1"/>
    <path id="Caminho_702" data-name="Caminho 702" d="M586.654,846.557a5.343,5.343,0,0,1-.216,1.505l-2.288,7.81c-2.417.2-5.13.385-8,.547,0-2.916,0-6.8.047-9.9a5.245,5.245,0,0,1,10.49.034Z" transform="translate(-208.257 -286.97)" opacity="0.1"/>
    <path id="Caminho_703" data-name="Caminho 703" d="M587.036,848.064l-2.889,9.734s4.921-.108,3.578,2.977c0,0-1.235,1.168-1.661.743,0,0,.635,2.025-1.917,2.025,0,0-2.754,1.492-3.821.425s-3.294-2.66-3.51-3.294c-.135-.419-.094-8.56-.047-14.176a5.238,5.238,0,0,1,5.245-5.2h0a5.245,5.245,0,0,1,5.022,6.764Z" transform="translate(-208.443 -286.972)" fill="#86a5c0"/>
    <path id="Caminho_704" data-name="Caminho 704" d="M586.23,869.47s2.147,2.025,1.013,3.22" transform="translate(-211.532 -296.125)" fill="none" stroke="#3f2b3b" stroke-miterlimit="10" stroke-width="1"/>
    <path id="Caminho_705" data-name="Caminho 705" d="M587.63,867.56a2.915,2.915,0,0,1,1.985,2.491" transform="translate(-211.987 -295.505)" fill="none" stroke="#3f2b3b" stroke-miterlimit="10" stroke-width="1"/>
    <path id="Caminho_706" data-name="Caminho 706" d="M555.853,782.769s-10-.317-10.315,7.426,15.621,4.462,15.621,4.462,6.7-.9,5.529-5.6S563.082,783.194,555.853,782.769Z" transform="translate(-198.308 -267.952)" opacity="0.1"/>
    <path id="Caminho_707" data-name="Caminho 707" d="M555.853,781.509s-10-.317-10.315,7.426,15.621,4.462,15.621,4.462,6.7-.9,5.529-5.6S563.082,781.934,555.853,781.509Z" transform="translate(-198.308 -267.542)" opacity="0.1"/>
    <path id="Caminho_708" data-name="Caminho 708" d="M555.853,782.139s-10-.317-10.315,7.426,15.621,4.462,15.621,4.462,6.7-.9,5.529-5.6S563.082,782.564,555.853,782.139Z" transform="translate(-198.308 -267.747)" fill="#3f2b3b"/>
    <path id="Caminho_709" data-name="Caminho 709" d="M527.78,839.92s3.375,1.2,4.05,3.5" transform="translate(-192.539 -286.523)" opacity="0.1"/>
    <path id="Caminho_710" data-name="Caminho 710" d="M597.2,837.4s-2.4,1.006-2.228,5.2" transform="translate(-214.371 -285.704)" opacity="0.1"/>
    <ellipse id="Elipse_77" data-name="Elipse 77" cx="1.565" cy="2.594" rx="1.565" ry="2.594" transform="translate(334.012 569.476) rotate(-29.887)" fill="#86a5c0"/>
    <ellipse id="Elipse_78" data-name="Elipse 78" cx="2.585" cy="1.559" rx="2.585" ry="1.559" transform="translate(381.524 570.086) rotate(-60)" fill="#86a5c0"/>
    <ellipse id="Elipse_79" data-name="Elipse 79" cx="1.565" cy="2.594" rx="1.565" ry="2.594" transform="translate(334.012 569.476) rotate(-29.887)" fill="#fff" opacity="0.5"/>
    <ellipse id="Elipse_80" data-name="Elipse 80" cx="2.585" cy="1.559" rx="2.585" ry="1.559" transform="translate(381.524 570.086) rotate(-60)" fill="#fff" opacity="0.5"/>
    <ellipse id="Elipse_81" data-name="Elipse 81" cx="18.179" cy="3.071" rx="18.179" ry="3.071" transform="translate(111.832 480.309)" fill="#86a5c0" opacity="0.1"/>
    <ellipse id="Elipse_82" data-name="Elipse 82" cx="18.179" cy="3.071" rx="18.179" ry="3.071" transform="translate(40.215 523.87)" fill="#86a5c0" opacity="0.1"/>
    <ellipse id="Elipse_83" data-name="Elipse 83" cx="27.144" cy="4.59" rx="27.144" ry="4.59" transform="translate(12.322 483.38)" fill="#86a5c0"/>
    <path id="Caminho_711" data-name="Caminho 711" d="M71.712,725.859a7.851,7.851,0,0,1-2.592-3.9,3.479,3.479,0,0,1,1.809-3.976c1.661-.635,3.436.513,4.779,1.674s2.889,2.491,4.651,2.248a7.081,7.081,0,0,1-2.187-6.629,2.7,2.7,0,0,1,.608-1.35c.918-.986,2.592-.56,3.7.216,3.5,2.471,4.489,7.237,4.5,11.53a21.264,21.264,0,0,0,.068-4.725c.007-1.566.446-3.375,1.782-4.2a5.4,5.4,0,0,1,2.7-.675c1.58-.054,3.335.1,4.415,1.256,1.35,1.431.992,3.841-.176,5.4a17.652,17.652,0,0,1-4.563,3.659A10.071,10.071,0,0,0,87.94,729.5a3.183,3.183,0,0,0-.243.553H77.835a27.294,27.294,0,0,1-6.123-4.192Z" transform="translate(-43.472 -245.395)" fill="#86a5c0"/>
    <ellipse id="Elipse_84" data-name="Elipse 84" cx="18.179" cy="3.071" rx="18.179" ry="3.071" transform="translate(677.007 506.001)" fill="#86a5c0" opacity="0.1"/>
    <path id="Caminho_712" data-name="Caminho 712" d="M1042.91,750.413s10.369-.317,13.5-2.545,15.945-4.881,16.721-1.31,15.587,17.747,3.875,17.842-27.2-1.823-30.317-3.726S1042.91,750.413,1042.91,750.413Z" transform="translate(-359.928 -255.618)" fill="#a8a8a8"/>
    <path id="Caminho_713" data-name="Caminho 713" d="M1077.209,765.858c-11.705.094-27.2-1.823-30.317-3.726-2.376-1.445-3.321-6.636-3.639-9.032h-.344s.675,8.364,3.774,10.261,18.611,3.821,30.317,3.726c3.375,0,4.55-1.229,4.482-3.011C1081.017,765.183,1079.727,765.858,1077.209,765.858Z" transform="translate(-359.929 -258.311)" opacity="0.2"/>
  </g>
</svg>
